<svg width="80" height="24" viewBox="0 0 80 24" fill="none" xmlns="http://www.w3.org/2000/svg">
<path fill-rule="evenodd" clip-rule="evenodd" d="M49.4078 18.7689C44.7797 22.1802 38.0717 24.0002 32.2962 24.0002C24.1978 24.0002 16.9073 21.0051 11.3919 16.0234C10.9585 15.6316 11.3468 15.0977 11.8668 15.4028C17.8192 18.8661 25.179 20.9496 32.7815 20.9496C37.9087 20.9496 43.549 19.8887 48.7352 17.6874C49.5187 17.3546 50.1738 18.2004 49.4078 18.7689Z" fill="#FF9900"/>
<path fill-rule="evenodd" clip-rule="evenodd" d="M51.3316 16.567C50.7423 15.8113 47.4211 16.21 45.9305 16.3868C45.4763 16.4422 45.407 16.047 45.8161 15.7628C48.4611 13.9011 52.8015 14.4385 53.3076 15.0625C53.8138 15.69 53.176 20.0406 50.6903 22.1171C50.309 22.4361 49.945 22.2663 50.1148 21.8433C50.673 20.4498 51.9245 17.3263 51.3316 16.567Z" fill="#FF9900"/>
<path fill-rule="evenodd" clip-rule="evenodd" d="M46.0344 2.62074V0.811119C46.0344 0.537251 46.2424 0.353516 46.4921 0.353516H54.5937C54.8537 0.353516 55.0617 0.540717 55.0617 0.811119V2.36074C55.0582 2.62074 54.8397 2.96048 54.4516 3.49781L50.2534 9.49174C51.8134 9.45361 53.4601 9.68588 54.8744 10.4832C55.1934 10.6635 55.2801 10.927 55.3044 11.187V13.1179C55.3044 13.3814 55.0131 13.6899 54.7081 13.5305C52.2156 12.2235 48.9047 12.0814 46.1487 13.5443C45.8679 13.6969 45.5732 13.3918 45.5732 13.1283V11.2944C45.5732 10.9998 45.5767 10.4971 45.8714 10.0499L50.7352 3.07488H46.5024C46.2424 3.07488 46.0344 2.89114 46.0344 2.62074Z" fill="black"/>
<path fill-rule="evenodd" clip-rule="evenodd" d="M16.4803 13.9116H14.0155C13.7797 13.8943 13.5925 13.7175 13.5752 13.4922V0.84217C13.5752 0.589101 13.7867 0.38803 14.0501 0.38803H16.3486C16.5878 0.398423 16.7784 0.582165 16.7958 0.810968V2.46459H16.8408C17.4406 0.866435 18.5673 0.121094 20.0856 0.121094C21.6284 0.121094 22.5921 0.866435 23.2854 2.46459C23.8818 0.866435 25.2373 0.121094 26.6898 0.121094C27.7228 0.121094 28.8529 0.547498 29.5428 1.50431C30.3228 2.56859 30.1634 4.11474 30.1634 5.47022L30.1599 13.454C30.1599 13.7071 29.9484 13.9116 29.6849 13.9116H27.2236C26.9774 13.8943 26.7799 13.6967 26.7799 13.454V6.74942C26.7799 6.21556 26.8284 4.88434 26.7106 4.37821C26.5268 3.52886 25.9756 3.28966 25.2614 3.28966C24.6653 3.28966 24.0411 3.68832 23.7881 4.32621C23.5351 4.96407 23.5593 6.03182 23.5593 6.74942V13.454C23.5593 13.7071 23.3478 13.9116 23.0844 13.9116H20.6229C20.3734 13.8943 20.1793 13.6967 20.1793 13.454L20.1758 6.74942C20.1758 5.33847 20.4081 3.26192 18.6574 3.26192C16.8859 3.26192 16.9553 5.28647 16.9553 6.74942V13.454C16.9553 13.7071 16.7438 13.9116 16.4803 13.9116Z" fill="black"/>
<path fill-rule="evenodd" clip-rule="evenodd" d="M62.0371 0.121094C65.6944 0.121094 67.6739 3.26192 67.6739 7.25557C67.6739 11.114 65.4864 14.1751 62.0371 14.1751C58.4456 14.1751 56.4902 11.0343 56.4902 7.12036C56.4902 3.18219 58.4697 0.121094 62.0371 0.121094ZM62.0579 2.70379C60.2412 2.70379 60.1269 5.17901 60.1269 6.72169C60.1269 8.26784 60.1026 11.5681 62.0371 11.5681C63.9472 11.5681 64.0374 8.90572 64.0374 7.28331C64.0374 6.21556 63.9922 4.93981 63.6699 3.92753C63.3926 3.04699 62.8412 2.70379 62.0579 2.70379Z" fill="black"/>
<path fill-rule="evenodd" clip-rule="evenodd" d="M72.4163 13.9116H69.9618C69.7157 13.8943 69.5181 13.6967 69.5181 13.454L69.5146 0.800568C69.5355 0.568298 69.74 0.38803 69.9896 0.38803H72.2741C72.4891 0.398423 72.6658 0.544033 72.7145 0.741635V2.67606H72.7595C73.4493 0.94617 74.4165 0.121094 76.1186 0.121094C77.2246 0.121094 78.3028 0.519765 78.9961 1.61178C79.6408 2.62406 79.6408 4.32621 79.6408 5.54994V13.513C79.6131 13.7348 79.4086 13.9116 79.166 13.9116H76.6941C76.4688 13.8943 76.2816 13.7279 76.2573 13.513V6.64196C76.2573 5.25874 76.4168 3.23419 74.7147 3.23419C74.115 3.23419 73.5638 3.63632 73.2898 4.24647C72.9431 5.01954 72.8981 5.78916 72.8981 6.64196V13.454C72.8946 13.7071 72.6798 13.9116 72.4163 13.9116Z" fill="black"/>
<path fill-rule="evenodd" clip-rule="evenodd" d="M39.5761 7.86942C39.5761 8.82968 39.6005 9.6305 39.1151 10.4833C38.7235 11.1767 38.0993 11.6031 37.4095 11.6031C36.4631 11.6031 35.9085 10.882 35.9085 9.8177C35.9085 7.71688 37.7908 7.33555 39.5761 7.33555V7.86942ZM42.0618 13.8772C41.899 14.0228 41.6631 14.0332 41.4795 13.9361C40.6613 13.2567 40.5121 12.9412 40.065 12.2929C38.713 13.6727 37.7526 14.0852 36.002 14.0852C33.9255 14.0852 32.3135 12.806 32.3135 10.2441C32.3135 8.24382 33.3951 6.8814 34.9411 6.2158C36.2793 5.62645 38.148 5.52247 39.5761 5.35952V5.04058C39.5761 4.45472 39.6213 3.76137 39.2746 3.25523C38.9765 2.8011 38.401 2.6139 37.8913 2.6139C36.952 2.6139 36.1165 3.09577 35.912 4.09418C35.8703 4.31605 35.7073 4.53445 35.482 4.54485L33.0935 4.28832C32.8925 4.24325 32.6671 4.08032 32.726 3.77177C33.2738 0.873611 35.8946 0 38.238 0C39.4375 0 41.0045 0.318938 41.951 1.22721C43.1503 2.34695 43.036 3.8411 43.036 5.46698V9.3081C43.036 10.4625 43.5143 10.9687 43.965 11.5927C44.121 11.8145 44.1556 12.0815 43.9546 12.2479C43.452 12.6673 42.5575 13.4473 42.0653 13.8842L42.0618 13.8772" fill="black"/>
<path fill-rule="evenodd" clip-rule="evenodd" d="M7.26275 7.86941C7.26275 8.8297 7.287 9.6305 6.80167 10.4833C6.40993 11.1766 5.7894 11.603 5.09605 11.603C4.14963 11.603 3.59843 10.882 3.59843 9.8177C3.59843 7.71688 5.48085 7.33555 7.26275 7.33555V7.86941ZM9.74837 13.8772C9.58543 14.0228 9.3497 14.0332 9.16597 13.9361C8.34782 13.2567 8.20222 12.9412 7.75155 12.2929C6.39953 13.6727 5.44272 14.0852 3.68857 14.0852C1.61548 14.0852 0 12.806 0 10.2441C0 8.24381 1.08508 6.88141 2.62777 6.2158C3.9659 5.62646 5.83447 5.52246 7.26275 5.35953V5.04058C7.26275 4.45471 7.30782 3.76136 6.9646 3.25523C6.663 2.8011 6.08753 2.6139 5.58138 2.6139C4.64192 2.6139 3.80297 3.09576 3.59843 4.09418C3.55683 4.31605 3.3939 4.53445 3.17203 4.54485L0.780008 4.28831C0.578938 4.24325 0.35707 4.08031 0.412537 3.77178C0.963743 0.873612 3.5811 0 5.9246 0C7.12407 0 8.69102 0.318937 9.63743 1.22721C10.8369 2.34696 10.7225 3.84111 10.7225 5.467V9.3081C10.7225 10.4625 11.2009 10.9686 11.6516 11.5926C11.8111 11.8145 11.8457 12.0815 11.6446 12.2479C11.142 12.6673 10.2476 13.4473 9.7553 13.8841L9.74837 13.8772" fill="black"/>
</svg>
