<svg width="73" height="24" viewBox="0 0 73 24" fill="none" xmlns="http://www.w3.org/2000/svg">
<path d="M31.2005 12.6302C31.2005 16.0831 28.4993 18.6275 25.1842 18.6275C21.8692 18.6275 19.168 16.0831 19.168 12.6302C19.168 9.15289 21.8692 6.63281 25.1842 6.63281C28.4993 6.63281 31.2005 9.15289 31.2005 12.6302ZM28.5669 12.6302C28.5669 10.4724 27.0013 8.99606 25.1842 8.99606C23.3672 8.99606 21.8016 10.4724 21.8016 12.6302C21.8016 14.7663 23.3672 16.2643 25.1842 16.2643C27.0013 16.2643 28.5669 14.7636 28.5669 12.6302Z" fill="#EA4335"/>
<path d="M44.18 12.6302C44.18 16.0831 41.4788 18.6275 38.1637 18.6275C34.8487 18.6275 32.1475 16.0831 32.1475 12.6302C32.1475 9.15559 34.8487 6.63281 38.1637 6.63281C41.4788 6.63281 44.18 9.15289 44.18 12.6302ZM41.5464 12.6302C41.5464 10.4724 39.9808 8.99606 38.1637 8.99606C36.3467 8.99606 34.7811 10.4724 34.7811 12.6302C34.7811 14.7663 36.3467 16.2643 38.1637 16.2643C39.9808 16.2643 41.5464 14.7636 41.5464 12.6302Z" fill="#FBBC05"/>
<path d="M56.6183 6.99514V17.7622C56.6183 22.1913 54.0062 24.0002 50.9183 24.0002C48.0116 24.0002 46.2622 22.0561 45.6024 20.4662L47.8953 19.5117C48.3036 20.4878 49.3041 21.6397 50.9156 21.6397C52.8922 21.6397 54.1171 20.4202 54.1171 18.1246V17.262H54.0252C53.4357 17.9894 52.3001 18.6248 50.867 18.6248C47.8683 18.6248 45.1211 16.0128 45.1211 12.6518C45.1211 9.26645 47.8683 6.63281 50.867 6.63281C52.2974 6.63281 53.433 7.26824 54.0252 7.97397H54.1171V6.99784H56.6183V6.99514ZM54.3037 12.6518C54.3037 10.54 52.8949 8.99606 51.1022 8.99606C49.2852 8.99606 47.7628 10.54 47.7628 12.6518C47.7628 14.7419 49.2852 16.2643 51.1022 16.2643C52.8949 16.2643 54.3037 14.7419 54.3037 12.6518Z" fill="#4285F4"/>
<path d="M60.7416 0.683594V18.2592H58.1729V0.683594H60.7416Z" fill="#34A853"/>
<path d="M70.7517 14.6038L72.7959 15.9666C72.1362 16.9427 70.5462 18.6246 67.799 18.6246C64.3921 18.6246 61.8477 15.9909 61.8477 12.6272C61.8477 9.06073 64.4137 6.62988 67.5043 6.62988C70.6165 6.62988 72.1389 9.10669 72.6364 10.4451L72.9095 11.1265L64.8923 14.447C65.5061 15.6502 66.4606 16.264 67.799 16.264C69.1402 16.264 70.0703 15.6043 70.7517 14.6038ZM64.4597 12.4461L69.8189 10.2207C69.5242 9.47173 68.6373 8.94987 67.5935 8.94987C66.2551 8.94987 64.3921 10.1315 64.4597 12.4461Z" fill="#EA4335"/>
<path d="M9.44487 11.0699V8.52553H18.0191C18.1029 8.96898 18.1462 9.49354 18.1462 10.0614C18.1462 11.9704 17.6243 14.3309 15.9424 16.0127C14.3066 17.7162 12.2164 18.6248 9.44757 18.6248C4.31549 18.6248 0 14.4445 0 9.31238C0 4.18029 4.31549 0 9.44757 0C12.2867 0 14.3093 1.11402 15.8289 2.56604L14.0335 4.36146C12.9438 3.33937 11.4674 2.54441 9.44487 2.54441C5.69721 2.54441 2.76613 5.56471 2.76613 9.31238C2.76613 13.06 5.69721 16.0803 9.44487 16.0803C11.8757 16.0803 13.2601 15.1042 14.147 14.2173C14.8663 13.4981 15.3395 12.4706 15.526 11.0672L9.44487 11.0699Z" fill="#4285F4"/>
</svg>
