<svg width="108" height="24" viewBox="0 0 108 24" fill="none" xmlns="http://www.w3.org/2000/svg">
<path fill-rule="evenodd" clip-rule="evenodd" d="M33.5696 3.74764C33.1752 2.27249 32.0132 1.11073 30.5383 0.716406C27.8644 0 17.1429 0 17.1429 0C17.1429 0 6.42143 0 3.74768 0.716406C2.27252 1.11073 1.11077 2.27249 0.71644 3.74764C0 6.42143 0 12 0 12C0 12 0 17.5787 0.71644 20.2525C1.11077 21.7275 2.27252 22.8895 3.74768 23.2836C6.42143 24 17.1429 24 17.1429 24C17.1429 24 27.8644 24 30.5383 23.2836C32.0132 22.8895 33.1752 21.7275 33.5696 20.2525C34.286 17.5787 34.286 12 34.286 12C34.286 12 34.286 6.42143 33.5696 3.74764Z" fill="#FF0000"/>
<path fill-rule="evenodd" clip-rule="evenodd" d="M13.7148 17.1432L22.6223 12.0004L13.7148 6.85742V17.1432Z" fill="white"/>
<path fill-rule="evenodd" clip-rule="evenodd" d="M53.5665 19.4811C53.754 18.9908 53.8485 18.1901 53.8485 17.0784V12.3953C53.8485 11.3165 53.754 10.528 53.5665 10.0292C53.3783 9.53077 53.0473 9.28137 52.5734 9.28137C52.1156 9.28137 51.7926 9.53077 51.6051 10.0292C51.4169 10.528 51.3231 11.3165 51.3231 12.3953V17.0784C51.3231 18.1901 51.4125 18.9908 51.5927 19.4811C51.7722 19.9716 52.0993 20.2167 52.5734 20.2167C53.0473 20.2167 53.3783 19.9716 53.5665 19.4811ZM49.7663 21.8349C49.0879 21.3774 48.6054 20.6663 48.3198 19.7018C48.0334 18.7375 47.8906 17.4545 47.8906 15.8524V13.6702C47.8906 12.052 48.0538 10.7524 48.3808 9.77172C48.7078 8.79103 49.2184 8.07616 49.9135 7.62638C50.6079 7.17702 51.5192 6.95215 52.6471 6.95215C53.7586 6.95215 54.6493 7.18116 55.3196 7.63866C55.9897 8.09642 56.4802 8.81169 56.7909 9.78397C57.1012 10.7567 57.2567 12.052 57.2567 13.6702V15.8524C57.2567 17.4545 57.1056 18.7418 56.8032 19.7141C56.5006 20.6867 56.0101 21.3978 55.332 21.8473C54.6536 22.2964 53.7343 22.5213 52.5737 22.5213C51.3804 22.5213 50.4444 22.2924 49.7663 21.8349Z" fill="#282828"/>
<path fill-rule="evenodd" clip-rule="evenodd" d="M102.271 9.56183C102.1 9.77435 101.985 10.1218 101.928 10.6038C101.87 11.0862 101.842 11.8175 101.842 12.7983V13.8772H104.319V12.7983C104.319 11.834 104.286 11.1026 104.221 10.6038C104.155 10.1054 104.037 9.7541 103.865 9.54958C103.693 9.34529 103.428 9.24305 103.068 9.24305C102.708 9.24305 102.443 9.3496 102.271 9.56183ZM101.842 15.8878V16.6479C101.842 17.6126 101.87 18.3359 101.928 18.8179C101.985 19.3002 102.103 19.6516 102.284 19.8722C102.463 20.0929 102.741 20.2033 103.118 20.2033C103.624 20.2033 103.971 20.007 104.159 19.6148C104.347 19.2225 104.449 18.5688 104.466 17.6532L107.383 17.8248C107.4 17.9559 107.408 18.1356 107.408 18.3643C107.408 19.7538 107.028 20.7915 106.268 21.4783C105.508 22.1647 104.433 22.5081 103.044 22.5081C101.377 22.5081 100.208 21.9852 99.5373 20.9387C98.8669 19.8929 98.5322 18.2747 98.5322 16.0841V13.4604C98.5322 11.2048 98.8796 9.55816 99.5744 8.5199C100.269 7.48208 101.458 6.96289 103.142 6.96289C104.302 6.96289 105.193 7.17555 105.814 7.60048C106.435 8.02567 106.873 8.68765 107.126 9.58639C107.379 10.4856 107.506 11.7281 107.506 13.3133V15.8878H101.842Z" fill="#282828"/>
<path fill-rule="evenodd" clip-rule="evenodd" d="M41.5272 15.6063L37.6777 1.7041H41.0367L42.3851 8.0055C42.7285 9.55861 42.9818 10.8825 43.1453 11.9775H43.2434C43.3579 11.1928 43.6111 9.87732 44.0036 8.03003L45.4011 1.7041H48.7604L44.8618 15.6063V22.2757H41.5272V15.6063Z" fill="#282828"/>
<path fill-rule="evenodd" clip-rule="evenodd" d="M68.1816 7.24609V22.2759H65.5338L65.2394 20.437H65.1657C64.4462 21.8268 63.3674 22.5212 61.9292 22.5212C60.9321 22.5212 60.1967 22.1945 59.7228 21.5405C59.2483 20.8868 59.0117 19.8651 59.0117 18.4756V7.24609H62.3954V18.2795C62.3954 18.9499 62.4688 19.428 62.6159 19.7138C62.7631 20 63.008 20.1429 63.3514 20.1429C63.6457 20.1429 63.9277 20.0532 64.1973 19.8731C64.4673 19.6934 64.6672 19.4648 64.798 19.1866V7.24609H68.1816Z" fill="#282828"/>
<path fill-rule="evenodd" clip-rule="evenodd" d="M85.5374 7.24609V22.2759H82.8892L82.5949 20.437H82.5215C81.8021 21.8268 80.7232 22.5212 79.285 22.5212C78.2879 22.5212 77.5521 22.1945 77.0783 21.5405C76.6041 20.8868 76.3672 19.8651 76.3672 18.4756V7.24609H79.7508V18.2795C79.7508 18.9499 79.8246 19.428 79.9714 19.7138C80.1186 20 80.3638 20.1429 80.7072 20.1429C81.0015 20.1429 81.2832 20.0532 81.5531 19.8731C81.8227 19.6934 82.0226 19.4648 82.1538 19.1866V7.24609H85.5374Z" fill="#282828"/>
<path fill-rule="evenodd" clip-rule="evenodd" d="M77.3755 4.42668H74.0165V22.2762H70.7066V4.42668H67.3477V1.70508H77.3755V4.42668Z" fill="#282828"/>
<path fill-rule="evenodd" clip-rule="evenodd" d="M93.6333 15.779C93.6333 16.8744 93.5879 17.7326 93.4985 18.3534C93.4084 18.9749 93.2572 19.4163 93.0446 19.6775C92.8321 19.9392 92.5458 20.0698 92.1867 20.0698C91.9084 20.0698 91.6511 20.0047 91.4142 19.8736C91.1773 19.743 90.9851 19.5469 90.8379 19.2852V10.7527C90.9524 10.3443 91.1483 10.0091 91.4266 9.74744C91.7042 9.48619 92.0065 9.35515 92.3339 9.35515C92.6769 9.35515 92.9425 9.49006 93.1304 9.75968C93.3183 10.0293 93.4494 10.483 93.5228 11.1206C93.5966 11.758 93.6333 12.6651 93.6333 13.842V15.779ZM96.735 9.64843C96.5305 8.70067 96.1995 8.01417 95.742 7.58894C95.2841 7.16411 94.6548 6.95149 93.8539 6.95149C93.2326 6.95149 92.6526 7.12734 92.113 7.47862C91.5738 7.83023 91.157 8.292 90.8627 8.86398H90.838V0.944336H87.5771V22.2757H90.3722L90.7155 20.8535H90.7889C91.0502 21.3604 91.4427 21.7605 91.9659 22.0552C92.4888 22.3491 93.0694 22.4963 93.7068 22.4963C94.8507 22.4963 95.6929 21.9691 96.2322 20.9149C96.7717 19.8605 97.0414 18.214 97.0414 15.9744V13.596C97.0414 11.9127 96.9389 10.5968 96.735 9.64843Z" fill="#282828"/>
</svg>
