<svg width="24" height="24" viewBox="0 0 24 24" fill="none" xmlns="http://www.w3.org/2000/svg">
<path d="M20.9397 16.5256C22.2021 15.4256 23 13.806 23 12.0001C23 8.68638 20.3137 6.00009 17 6.00009H14V8.00009H17C19.2091 8.00009 21 9.79095 21 12.0001C21 13.2539 20.4232 14.3729 19.5204 15.1063L20.9397 16.5256Z" fill="black"/>
<path d="M3 1.41431L1.58582 2.82849L5.07342 6.31609C2.70476 7.11868 1 9.3603 1 12.0001C1 15.3138 3.68629 18.0001 7 18.0001H10V16.0001H7C4.79086 16.0001 3 14.2092 3 12.0001C3 9.87009 4.66485 8.12894 6.76425 8.00692L9.75742 11.0001H7V13.0001H11.7574L14.7574 16.0001L16.7574 18.0001L20.5564 21.7991L21.9706 20.3849L3 1.41431Z" fill="black"/>
</svg>
