<svg width="24" height="24" viewBox="0 0 24 24" fill="none" xmlns="http://www.w3.org/2000/svg">
<path fill-rule="evenodd" clip-rule="evenodd" d="M9 2C7.34315 2 6 3.34315 6 5V6H5C3.34315 6 2 7.34315 2 9V16C2 17.6569 3.34315 19 5 19H6V22L18 22V19H19C20.6569 19 22 17.6569 22 16V9C22 7.34315 20.6569 6 19 6H18V5C18 3.34315 16.6569 2 15 2H9ZM16 6H8V5C8 4.44772 8.44772 4 9 4H15C15.5523 4 16 4.44772 16 5V6ZM8 16H16V20H8L8 16ZM18 14V17H19C19.5523 17 20 16.5523 20 16V9C20 8.44772 19.5523 8 19 8H5C4.44772 8 4 8.44772 4 9V16C4 16.5523 4.44772 17 5 17H6V14L18 14ZM17 11C17.5523 11 18 10.5523 18 10C18 9.44771 17.5523 9 17 9C16.4477 9 16 9.44771 16 10C16 10.5523 16.4477 11 17 11Z" fill="black"/>
</svg>
