<svg width="24" height="24" viewBox="0 0 24 24" fill="none" xmlns="http://www.w3.org/2000/svg">
<path fill-rule="evenodd" clip-rule="evenodd" d="M12 2C6.47715 2 2 6.47715 2 12C2 17.5228 6.47715 22 12 22C17.5228 22 22 17.5228 22 12C22 6.47715 17.5228 2 12 2ZM7.09437 5.68013C8.44905 4.62708 10.1513 4 12 4C13.8487 4 15.551 4.62708 16.9056 5.68014L12 10.5858L7.09437 5.68013ZM5.68016 7.09434C4.62709 8.44903 4 10.1513 4 12C4 13.8487 4.62708 15.551 5.68015 16.9057L10.5858 12L5.68016 7.09434ZM7.09436 18.3199C8.44904 19.3729 10.1513 20 12 20C13.8487 20 15.551 19.3729 16.9057 18.3199L12 13.4142L7.09436 18.3199ZM18.3199 16.9056C19.3729 15.551 20 13.8487 20 12C20 10.1513 19.3729 8.44904 18.3199 7.09436L13.4142 12L18.3199 16.9056Z" fill="black"/>
</svg>
