<svg width="24" height="24" viewBox="0 0 24 24" fill="none" xmlns="http://www.w3.org/2000/svg">
<path fill-rule="evenodd" clip-rule="evenodd" d="M16.9496 4.22194C15.778 3.05037 13.8785 3.05037 12.7069 4.22194L5.63586 11.293C3.68323 13.2456 3.68323 16.4115 5.63585 18.3641C7.58848 20.3167 10.7543 20.3167 12.7069 18.3641L21.1922 9.87881L22.6064 11.293L14.1211 19.7783C11.3875 22.512 6.95532 22.512 4.22164 19.7783C1.48797 17.0446 1.48797 12.6125 4.22164 9.87879L11.2927 2.80773C13.2453 0.855106 16.4111 0.855107 18.3638 2.80773C20.3164 4.76035 20.3164 7.92618 18.3638 9.8788L11.2927 16.9499C10.1211 18.1214 8.22163 18.1214 7.05006 16.9499C5.87849 15.7783 5.87849 13.8788 7.05006 12.7072L13.7676 5.98971L15.1818 7.40392L8.46427 14.1214C8.07375 14.512 8.07375 15.1451 8.46428 15.5357C8.8548 15.9262 9.48796 15.9262 9.87849 15.5357L16.9496 8.46458C18.1211 7.29301 18.1211 5.39351 16.9496 4.22194Z" fill="black"/>
</svg>
