<svg width="24" height="24" viewBox="0 0 24 24" fill="none" xmlns="http://www.w3.org/2000/svg">
<path fill-rule="evenodd" clip-rule="evenodd" d="M13.4691 16.0618C13.4881 16.0611 13.5071 16.0604 13.5261 16.0597L9.29289 20.2929L10.7071 21.7071L17.4142 15L10.7071 8.29289L9.29289 9.70711L13.6398 14.0541C13.5575 14.0571 13.4757 14.0602 13.3942 14.0632L13.3256 14.0658C12.5121 14.0963 11.7461 14.125 11.0156 14.125C9.4997 14.125 8.25951 13.9979 7.26306 13.5784C6.31575 13.1795 5.53081 12.4917 4.95951 11.2162C4.3696 9.89921 4 7.93433 4 5L2 5C2 8.06567 2.3804 10.3508 3.13424 12.0338C3.90669 13.7583 5.05925 14.8205 6.48694 15.4216C7.86549 16.0021 9.4378 16.125 11.0156 16.125C11.7844 16.125 12.5837 16.095 13.3842 16.065L13.4691 16.0618ZM15.7071 8.29289L14.2929 9.70711L19.5858 15L14.2929 20.2929L15.7071 21.7071L22.4142 15L15.7071 8.29289Z" fill="black"/>
</svg>
