<svg width="24" height="24" viewBox="0 0 24 24" fill="none" xmlns="http://www.w3.org/2000/svg">
<path fill-rule="evenodd" clip-rule="evenodd" d="M10.5309 9.9382C10.5119 9.93891 10.4929 9.93962 10.4739 9.94033L14.7071 5.7071L13.2929 4.29289L6.58579 11L13.2929 17.7071L14.7071 16.2929L10.3602 11.9459C10.4425 11.9429 10.5243 11.9398 10.6058 11.9368L10.6744 11.9342C11.4879 11.9037 12.2539 11.875 12.9844 11.875C14.5003 11.875 15.7405 12.0021 16.7369 12.4216C17.6843 12.8205 18.4692 13.5083 19.0405 14.7838C19.6304 16.1008 20 18.0657 20 21L22 21C22 17.9343 21.6196 15.6492 20.8658 13.9662C20.0933 12.2417 18.9407 11.1795 17.5131 10.5784C16.1345 9.99792 14.5622 9.875 12.9844 9.875C12.2156 9.875 11.4163 9.90498 10.6158 9.93502L10.5309 9.9382ZM8.29289 17.7071L9.70711 16.2929L4.41421 11L9.70711 5.7071L8.29289 4.29289L1.58579 11L8.29289 17.7071Z" fill="black"/>
</svg>
