<svg width="24" height="24" viewBox="0 0 24 24" fill="none" xmlns="http://www.w3.org/2000/svg">
<path fill-rule="evenodd" clip-rule="evenodd" d="M5.00003 2V4.92258C6.80856 3.11732 9.3056 2 12.0645 2C17.5874 2 22.0645 6.47715 22.0645 12H20.0645C20.0645 7.58172 16.4828 4 12.0645 4C9.53912 4 7.28583 5.17005 5.81893 7H10.0645V9H3.00003V2H5.00003ZM19.0645 22V19.0774C17.2559 20.8827 14.7589 22 12 22C6.47715 22 2 17.5228 2 12H4C4 16.4183 7.58172 20 12 20C14.5254 20 16.7787 18.8299 18.2456 17H14V15H21.0645V22H19.0645Z" fill="black"/>
</svg>
