<svg width="24" height="24" viewBox="0 0 24 24" fill="none" xmlns="http://www.w3.org/2000/svg">
<path fill-rule="evenodd" clip-rule="evenodd" d="M12 20C16.4183 20 20 16.4183 20 12C20 7.58172 16.4183 4 12 4C7.58172 4 4 7.58172 4 12C4 16.4183 7.58172 20 12 20ZM12 22C17.5228 22 22 17.5228 22 12C22 6.47715 17.5228 2 12 2C6.47715 2 2 6.47715 2 12C2 17.5228 6.47715 22 12 22Z" fill="black"/>
<path fill-rule="evenodd" clip-rule="evenodd" d="M12 10.5858L15.2929 7.29289L16.7071 8.70711L12 13.4142L7.29289 8.70711L8.70711 7.29289L12 10.5858Z" fill="black"/>
<path fill-rule="evenodd" clip-rule="evenodd" d="M12 14.5858L15.2929 11.2929L16.7071 12.7071L12 17.4142L7.29289 12.7071L8.70711 11.2929L12 14.5858Z" fill="black"/>
</svg>
