<svg width="24" height="24" viewBox="0 0 24 24" fill="none" xmlns="http://www.w3.org/2000/svg">
<path fill-rule="evenodd" clip-rule="evenodd" d="M19.0645 2V4.92258C17.2559 3.11732 14.7589 2 12 2C6.47715 2 2 6.47715 2 12H4C4 7.58172 7.58172 4 12 4C14.5254 4 16.7787 5.17005 18.2456 7H14V9H21.0645V2H19.0645ZM5.00003 22V19.0774C6.80856 20.8827 9.3056 22 12.0645 22C17.5874 22 22.0645 17.5228 22.0645 12H20.0645C20.0645 16.4183 16.4828 20 12.0645 20C9.53912 20 7.28583 18.8299 5.81893 17H10.0645V15H3.00003V22H5.00003Z" fill="black"/>
</svg>
