<svg width="24" height="24" viewBox="0 0 24 24" fill="none" xmlns="http://www.w3.org/2000/svg">
<path fill-rule="evenodd" clip-rule="evenodd" d="M13.4691 9.9382C13.4881 9.93891 13.5071 9.93962 13.5261 9.94033L9.29289 5.7071L10.7071 4.29289L17.4142 11L10.7071 17.7071L9.29289 16.2929L13.6398 11.9459C13.5575 11.9429 13.4757 11.9398 13.3942 11.9368L13.3256 11.9342C12.5121 11.9037 11.7461 11.875 11.0156 11.875C9.4997 11.875 8.25951 12.0021 7.26306 12.4216C6.31575 12.8205 5.53081 13.5083 4.95951 14.7838C4.3696 16.1008 4 18.0657 4 21L2 21C2 17.9343 2.3804 15.6492 3.13424 13.9662C3.90669 12.2417 5.05925 11.1795 6.48694 10.5784C7.86549 9.99792 9.4378 9.875 11.0156 9.875C11.7844 9.875 12.5837 9.90498 13.3842 9.93502L13.4691 9.9382ZM15.7071 17.7071L14.2929 16.2929L19.5858 11L14.2929 5.7071L15.7071 4.29289L22.4142 11L15.7071 17.7071Z" fill="black"/>
</svg>
