<svg width="24" height="24" viewBox="0 0 24 24" fill="none" xmlns="http://www.w3.org/2000/svg">
<path fill-rule="evenodd" clip-rule="evenodd" d="M12 20C16.4183 20 20 16.4183 20 12C20 7.58172 16.4183 4 12 4C7.58172 4 4 7.58172 4 12C4 16.4183 7.58172 20 12 20ZM12 22C17.5228 22 22 17.5228 22 12C22 6.47715 17.5228 2 12 2C6.47715 2 2 6.47715 2 12C2 17.5228 6.47715 22 12 22Z" fill="black"/>
<path fill-rule="evenodd" clip-rule="evenodd" d="M13.4142 12L16.7071 15.2929L15.2929 16.7071L10.5858 12L15.2929 7.29289L16.7071 8.70711L13.4142 12Z" fill="black"/>
<path fill-rule="evenodd" clip-rule="evenodd" d="M9.41421 12L12.7071 15.2929L11.2929 16.7071L6.58579 12L11.2929 7.29289L12.7071 8.70711L9.41421 12Z" fill="black"/>
</svg>
