<svg width="24" height="24" viewBox="0 0 24 24" fill="none" xmlns="http://www.w3.org/2000/svg">
<path fill-rule="evenodd" clip-rule="evenodd" d="M6.6421 16.0612C6.58445 16.0592 6.52693 16.0573 6.46953 16.0553L10.7071 20.2929L9.29289 21.7071L2.58579 15L9.29289 8.29289L10.7071 9.70711L6.36362 14.0506C6.47353 14.0543 6.58335 14.058 6.69301 14.0618L6.73136 14.0631C7.64998 14.0944 8.55888 14.125 9.45312 14.125C11.2515 14.125 12.9079 13.9995 14.3202 13.5476C15.706 13.1041 16.8365 12.3538 17.6404 11.0887C18.4577 9.80241 19 7.88517 19 5L21 5C21 8.11484 20.4173 10.4476 19.3284 12.1613C18.226 13.8962 16.669 14.8959 14.9298 15.4524C13.2171 16.0005 11.311 16.125 9.45312 16.125C8.51925 16.125 7.57658 16.0931 6.66317 16.0619L6.6421 16.0612Z" fill="black"/>
</svg>
