<svg width="24" height="24" viewBox="0 0 24 24" fill="none" xmlns="http://www.w3.org/2000/svg">
<path fill-rule="evenodd" clip-rule="evenodd" d="M2 2H10V4H5.41421L5.70711 4.29289C7.69676 6.28254 9.44915 7.66887 10.9747 8.60483C11.0297 7.45289 11.2676 6.35204 11.7302 5.38208C12.7098 3.32769 14.6359 2 17.5 2C19.3322 2 20.5204 2.79029 21.2071 3.8203C21.8514 4.78677 22 5.87637 22 6.5C22 8.62936 20.5051 11.4859 17.3345 12.1653C16.1615 12.4167 14.8222 12.3558 13.3149 11.8913C13.8229 13.9563 14.8482 16.0009 16.2066 17.5212C17.5933 19.0731 19.2486 20 21 20V22C18.5015 22 16.3442 20.6769 14.7153 18.8538C13.0846 17.0288 11.9045 14.6239 11.3392 12.2298C11.2408 11.8127 11.16 11.3916 11.0988 10.9703C9.07994 9.92668 6.81242 8.22663 4.29289 5.70711L4 5.41421V10H2V2ZM12.9749 9.64123C14.6351 10.3315 15.9416 10.4184 16.9155 10.2097C18.9949 9.76411 20 7.87064 20 6.5C20 6.12363 19.8986 5.46323 19.5429 4.9297C19.2296 4.45971 18.6678 4 17.5 4C15.3641 4 14.1652 4.92231 13.5354 6.24292C13.095 7.16653 12.9093 8.34254 12.9749 9.64123Z" fill="black"/>
</svg>
