<svg width="24" height="24" viewBox="0 0 24 24" fill="none" xmlns="http://www.w3.org/2000/svg">
<path fill-rule="evenodd" clip-rule="evenodd" d="M6.6421 9.9388C6.58445 9.94076 6.52693 9.94273 6.46953 9.94468L10.7071 5.7071L9.29289 4.29289L2.58579 11L9.29289 17.7071L10.7071 16.2929L6.36362 11.9494C6.47353 11.9457 6.58335 11.942 6.69301 11.9382L6.73136 11.9369C7.64998 11.9056 8.55888 11.875 9.45312 11.875C11.2515 11.875 12.9079 12.0005 14.3202 12.4524C15.706 12.8959 16.8365 13.6462 17.6404 14.9113C18.4577 16.1976 19 18.1148 19 21L21 21C21 17.8852 20.4173 15.5524 19.3284 13.8387C18.226 12.1038 16.669 11.1041 14.9298 10.5476C13.2171 9.99952 11.311 9.875 9.45312 9.875C8.51925 9.875 7.57658 9.90692 6.66317 9.93808L6.6421 9.9388Z" fill="black"/>
</svg>
