<svg width="24" height="24" viewBox="0 0 24 24" fill="none" xmlns="http://www.w3.org/2000/svg">
<path fill-rule="evenodd" clip-rule="evenodd" d="M2.73507 4.5068C2.97617 3.06024 4.22774 2 5.69425 2H18.3057C19.7723 2 21.0238 3.06024 21.2649 4.5068L22 8.91724V19C22 20.6569 20.6569 22 19 22H5C3.34315 22 2 20.6569 2 19V8.91724L2.73507 4.5068ZM5.69425 4C5.20542 4 4.78822 4.35341 4.70786 4.8356L4.18046 8H19.8195L19.2921 4.8356C19.2118 4.35341 18.7946 4 18.3057 4H5.69425ZM20 10H4V19C4 19.5523 4.44772 20 5 20H19C19.5523 20 20 19.5523 20 19V10Z" fill="black"/>
<path fill-rule="evenodd" clip-rule="evenodd" d="M13 11V15.0858L14.2929 13.7929L15.7071 15.2071L12 18.9142L8.29289 15.2071L9.70711 13.7929L11 15.0858V11H13Z" fill="black"/>
</svg>
