<svg width="24" height="24" viewBox="0 0 24 24" fill="none" xmlns="http://www.w3.org/2000/svg">
<path fill-rule="evenodd" clip-rule="evenodd" d="M10.5309 16.0618C10.5119 16.0611 10.4929 16.0604 10.4739 16.0597L14.7071 20.2929L13.2929 21.7071L6.58579 15L13.2929 8.29289L14.7071 9.70711L10.3602 14.0541C10.4425 14.0571 10.5243 14.0602 10.6058 14.0632L10.6744 14.0658C11.4879 14.0963 12.2539 14.125 12.9844 14.125C14.5003 14.125 15.7405 13.9979 16.7369 13.5784C17.6843 13.1795 18.4692 12.4917 19.0405 11.2162C19.6304 9.89921 20 7.93433 20 5L22 5C22 8.06567 21.6196 10.3508 20.8658 12.0338C20.0933 13.7583 18.9407 14.8205 17.5131 15.4216C16.1345 16.0021 14.5622 16.125 12.9844 16.125C12.2156 16.125 11.4163 16.095 10.6158 16.065L10.5309 16.0618ZM8.29289 8.29289L9.70711 9.70711L4.41421 15L9.70711 20.2929L8.29289 21.7071L1.58579 15L8.29289 8.29289Z" fill="black"/>
</svg>
