<svg width="24" height="24" viewBox="0 0 24 24" fill="none" xmlns="http://www.w3.org/2000/svg">
<path fill-rule="evenodd" clip-rule="evenodd" d="M23.4142 11L13 0.585815V6.87883C10.5946 6.67221 8.62056 6.96466 7.01019 7.64632C5.14213 8.43706 3.83925 9.71978 2.94501 11.1939C1.18986 14.0871 0.999991 17.736 1 20L1.00001 23.6103L2.85749 20.5145C4.94724 17.0316 7.69779 15.673 9.91235 15.1619C11.0305 14.9039 12.0205 14.861 12.7275 14.8824C12.8239 14.8853 12.9149 14.8894 13 14.8943V21.4142L23.4142 11ZM14.1961 13.0194L15 13.1802V16.5858L20.5858 11L15 5.41424V9.15304L13.8586 8.98998C11.1892 8.60864 9.23162 8.8778 7.78981 9.48811C6.35786 10.0942 5.36074 11.0678 4.65497 12.2312C3.82382 13.6013 3.40125 15.226 3.19224 16.7846C5.22113 14.6762 7.50186 13.6656 9.46264 13.2131C10.782 12.9087 11.9483 12.8579 12.7881 12.8833C13.2088 12.896 13.5503 12.928 13.7913 12.9577C13.9119 12.9726 14.0077 12.9869 14.0759 12.9981L14.1961 13.0194Z" fill="black"/>
</svg>
