<svg width="24" height="24" viewBox="0 0 24 24" fill="none" xmlns="http://www.w3.org/2000/svg">
<path fill-rule="evenodd" clip-rule="evenodd" d="M17.3579 9.9388C17.4155 9.94076 17.4731 9.94273 17.5305 9.94468L13.2929 5.7071L14.7071 4.29289L21.4142 11L14.7071 17.7071L13.2929 16.2929L17.6364 11.9494C17.5265 11.9457 17.4166 11.942 17.307 11.9382L17.2686 11.9369C16.35 11.9056 15.4411 11.875 14.5469 11.875C12.7485 11.875 11.0921 12.0005 9.67978 12.4524C8.29399 12.8959 7.1635 13.6462 6.35965 14.9113C5.54232 16.1976 5 18.1148 5 21L3 21C3 17.8852 3.58268 15.5524 4.6716 13.8387C5.774 12.1038 7.33101 11.1041 9.07022 10.5476C10.7829 9.99952 12.689 9.875 14.5469 9.875C15.4808 9.875 16.4234 9.90692 17.3368 9.93808L17.3579 9.9388Z" fill="black"/>
</svg>
