<svg width="24" height="24" viewBox="0 0 24 24" fill="none" xmlns="http://www.w3.org/2000/svg">
<path fill-rule="evenodd" clip-rule="evenodd" d="M17.3579 16.0612C17.4155 16.0592 17.4731 16.0573 17.5305 16.0553L13.2929 20.2929L14.7071 21.7071L21.4142 15L14.7071 8.29289L13.2929 9.70711L17.6364 14.0506C17.5265 14.0543 17.4166 14.058 17.307 14.0618L17.2686 14.0631C16.35 14.0944 15.4411 14.125 14.5469 14.125C12.7485 14.125 11.0921 13.9995 9.67978 13.5476C8.29399 13.1041 7.1635 12.3538 6.35965 11.0887C5.54232 9.80241 5 7.88517 5 5L3 5C3 8.11484 3.58268 10.4476 4.6716 12.1613C5.774 13.8962 7.33101 14.8959 9.07022 15.4524C10.7829 16.0005 12.689 16.125 14.5469 16.125C15.4808 16.125 16.4234 16.0931 17.3368 16.0619L17.3579 16.0612Z" fill="black"/>
</svg>
