<svg width="24" height="24" viewBox="0 0 24 24" fill="none" xmlns="http://www.w3.org/2000/svg">
<path fill-rule="evenodd" clip-rule="evenodd" d="M12 19C14.2091 19 16 17.2091 16 15C16 12.7909 14.2091 11 12 11C9.79086 11 8 12.7909 8 15C8 17.2091 9.79086 19 12 19ZM12 17C13.1046 17 14 16.1046 14 15C14 13.8954 13.1046 13 12 13C10.8954 13 10 13.8954 10 15C10 16.1046 10.8954 17 12 17Z" fill="black"/>
<path fill-rule="evenodd" clip-rule="evenodd" d="M2 2H16.2142L22 7.78579V22H2V2ZM13 4H7V6H13V4ZM5 4V8H15V4H15.3858L20 8.61421V20H4V4H5Z" fill="black"/>
</svg>
