<svg width="24" height="24" viewBox="0 0 24 24" fill="none" xmlns="http://www.w3.org/2000/svg">
<path fill-rule="evenodd" clip-rule="evenodd" d="M2.41421 1.41431L1 2.82852L5.00003 6.82855V21.6181L12 18.1181L19 21.6181V20.8285L20.9706 22.7991L22.3848 21.3849L2.41421 1.41431ZM7.00003 18.3821V8.82855L16.107 17.9356L12 15.8821L7.00003 18.3821Z" fill="black"/>
<path d="M6.33349 2.50519L7.84098 4.01267C7.89277 4.00439 7.9459 4.00009 8.00003 4.00009H16C16.5523 4.00009 17 4.44781 17 5.00009V13.1717L19 15.1717V5.00009C19 3.34324 17.6569 2.00009 16 2.00009H8.00003C7.38337 2.00009 6.81017 2.18615 6.33349 2.50519Z" fill="black"/>
</svg>
