<svg width="24" height="24" viewBox="0 0 24 24" fill="none" xmlns="http://www.w3.org/2000/svg">
<path fill-rule="evenodd" clip-rule="evenodd" d="M2.41412 1.41416L0.999928 2.82835L6.95357 8.782L5.29281 9.99989L3.77813 8.48521L2.36392 9.89942L7.31367 14.8492L0.949707 21.2131L2.36392 22.6273L8.72788 16.2634L13.6776 21.2131L15.0918 19.7989L13.5772 18.2842L14.7951 16.6235L20.9705 22.7989L22.3847 21.3847L2.41412 1.41416ZM17.1883 13.3599L20.1587 9.30942L21.4558 10.6065L22.87 9.19231L14.3847 0.707031L12.9705 2.12124L14.2676 3.41835L10.2171 6.38873L11.648 7.81958L15.6985 4.84921L18.7278 7.87857L15.7575 11.9291L17.1883 13.3599ZM6.72367 11.4307L8.38442 10.2128L13.3642 15.1926L12.1463 16.8534L6.72367 11.4307Z" fill="black"/>
</svg>
