<svg width="24" height="24" viewBox="0 0 24 24" fill="none" xmlns="http://www.w3.org/2000/svg">
<path fill-rule="evenodd" clip-rule="evenodd" d="M2.41421 1.41431L1 2.82852L2.00003 3.82855V22.0001H20.1716L20.9706 22.7991L21.7696 22.0001L22 21.7696L22.3848 21.3849L2.41421 1.41431ZM4.00003 20.0001V5.82855L5.00003 6.82855V8.00009H6.17157L9.81836 11.6469C8.72365 12.3606 8.00003 13.5958 8.00003 15.0001C8.00003 17.2092 9.79089 19.0001 12 19.0001C13.4043 19.0001 14.6395 18.2765 15.3532 17.1818L18.1716 20.0001H4.00003ZM10 15.0001C10 14.1425 10.5398 13.4109 11.2982 13.1267L13.8734 15.7019C13.5892 16.4603 12.8576 17.0001 12 17.0001C10.8955 17.0001 10 16.1047 10 15.0001Z" fill="black"/>
<path d="M5.8284 2.00009L7.8284 4.00009H13V6.00009H9.8284L11.8284 8.00009H15V4.00009H15.3858L20 8.61431V16.1717L22 18.1717V7.78588L16.2142 2.00009H5.8284Z" fill="black"/>
</svg>
