<svg width="24" height="24" viewBox="0 0 24 24" fill="none" xmlns="http://www.w3.org/2000/svg">
<path d="M10.0615 8.02924L11.9998 3.52829L13.9381 8.02924C14.1552 8.53351 14.6306 8.87884 15.1772 8.92954L20.0569 9.38212L16.3752 12.6164L17.0352 13.3677L16.3752 12.6164C15.9627 12.9788 15.7812 13.5375 15.9019 14.0731L16.9793 18.8538L12.7656 16.3518C12.2935 16.0714 11.706 16.0714 11.2339 16.3518L7.02022 18.8538L8.09769 14.0731C8.2184 13.5375 8.03685 12.9788 7.62437 12.6164L3.94268 9.38212L8.82231 8.92954C9.369 8.87884 9.84431 8.53351 10.0615 8.02924ZM6.0219 19.4466C6.02216 19.4464 6.02241 19.4463 6.02267 19.4461L6.0219 19.4466Z" stroke="black" stroke-width="2"/>
</svg>
