<svg width="24" height="24" viewBox="0 0 24 24" fill="none" xmlns="http://www.w3.org/2000/svg">
<path fill-rule="evenodd" clip-rule="evenodd" d="M2.41422 1.41431L1 2.82852L6.32815 8.15667L2.6945 8.49368C2.25761 8.5342 2.08105 9.07761 2.41068 9.36718L6.96464 13.3678C7.10213 13.4886 7.16265 13.6748 7.12241 13.8533L5.78967 19.7666C5.6932 20.1947 6.15545 20.5305 6.53271 20.3065L11.7448 17.2117C11.9021 17.1182 12.0979 17.1182 12.2553 17.2117L17.4673 20.3065C17.7623 20.4816 18.1091 20.3146 18.2004 20.0289L20.9706 22.7991L22.3848 21.3849L2.41422 1.41431ZM6.34746 10.1635L8.16625 9.99477L14.2292 16.0577L13.2764 15.492C12.4896 15.0248 11.5104 15.0248 10.7236 15.492L8.50655 16.8085L9.07347 14.2931C9.27466 13.4004 8.97207 12.4691 8.28461 11.8652L6.34746 10.1635Z" fill="black"/>
<path d="M9.84127 6.01296L11.3634 7.53505L12 6.05663L13.0199 8.42484C13.3818 9.26528 14.174 9.84083 15.0851 9.92534L17.6526 10.1635L15.7155 11.8652C15.7116 11.8686 15.7077 11.8721 15.7038 11.8755L17.1209 13.2926L21.5894 9.36718C21.919 9.07761 21.7424 8.5342 21.3056 8.49368L15.2698 7.93388C15.0876 7.91698 14.9292 7.80187 14.8568 7.63378L12.4593 2.06646C12.2857 1.66348 11.7143 1.66348 11.5408 2.06646L9.84127 6.01296Z" fill="black"/>
</svg>
