<svg width="24" height="24" viewBox="0 0 24 24" fill="none" xmlns="http://www.w3.org/2000/svg">
<path d="M14.2929 14.7071L12 12.4142L9.70707 14.7071L8.29287 13.2929L10.5858 11L8.29287 8.70711L9.70707 7.29289L12 9.58579L14.2929 7.29289L15.7071 8.70711L13.4142 11L15.7071 13.2929L14.2929 14.7071Z" fill="black"/>
<path fill-rule="evenodd" clip-rule="evenodd" d="M8 2C6.34315 2 5 3.34315 5 5V21.618L12 18.118L19 21.618V5C19 3.34315 17.6569 2 16 2H8ZM7 5C7 4.44772 7.44772 4 8 4H16C16.5523 4 17 4.44772 17 5V18.382L12 15.882L7 18.382V5Z" fill="black"/>
</svg>
