<svg width="24" height="24" viewBox="0 0 24 24" fill="none" xmlns="http://www.w3.org/2000/svg">
<path fill-rule="evenodd" clip-rule="evenodd" d="M2.41417 1.41418L1 2.82835L2.5051 4.33346C2.18608 4.81012 2.00003 5.38331 2.00003 5.99996V19C2.00003 20.6568 3.34318 22 5.00003 22H19C19.3509 22 19.6877 21.9397 20.0007 21.829L21.9706 23.7989L23.3847 22.3848L2.41417 1.41418ZM4.00003 5.99996C4.00003 5.94584 4.00433 5.89274 4.0126 5.84096L6.1716 7.99996H4.00003V5.99996ZM4.00003 9.99996H8.1716L18.1716 20H5.00003C4.44775 20 4.00003 19.5522 4.00003 19V9.99996Z" fill="black"/>
<path d="M22 18.1716V5.99996C22 4.3431 20.6569 2.99996 19 2.99996H17V1.99996H15V2.99996H9.00003V1.99996H7.00003V2.99996H6.82837L9.00003 5.17162V4.99996H15V5.99996H17V4.99996H19C19.5523 4.99996 20 5.44767 20 5.99996V7.99996H11.8284L13.8284 9.99996H20V16.1716L22 18.1716Z" fill="black"/>
</svg>
