<svg width="24" height="24" viewBox="0 0 24 24" fill="none" xmlns="http://www.w3.org/2000/svg">
<path d="M15.2929 11.2929L11 15.5858L8.70711 13.2929L7.29289 14.7071L11 18.4142L16.7071 12.7071L15.2929 11.2929Z" fill="black"/>
<path fill-rule="evenodd" clip-rule="evenodd" d="M9 2V3H15V2H17V3H19C20.6569 3 22 4.34315 22 6V19C22 20.6569 20.6569 22 19 22H5C3.34315 22 2 20.6569 2 19V6C2 4.34315 3.34315 3 5 3H7V2H9ZM7 6V5H5C4.44772 5 4 5.44772 4 6V8H20V6C20 5.44772 19.5523 5 19 5H17V6H15V5H9V6H7ZM4 10V19C4 19.5523 4.44772 20 5 20H19C19.5523 20 20 19.5523 20 19V10H4Z" fill="black"/>
</svg>
