<svg width="24" height="24" viewBox="0 0 24 24" fill="none" xmlns="http://www.w3.org/2000/svg">
<path fill-rule="evenodd" clip-rule="evenodd" d="M2.00334 6.72549C1.93226 9.2617 2.97651 12.987 6.89425 16.9047C10.812 20.8225 14.5373 21.8667 17.0735 21.7956C18.7387 21.749 20.0401 20.7295 20.9764 19.7931C22.1848 18.5847 22.0428 16.5863 20.6757 15.5609L18.0743 13.6099C16.88 12.7142 15.2087 12.8329 14.153 13.8886L13.9259 14.1157C13.7676 14.274 13.631 14.361 13.5375 14.3965C13.4698 14.4221 13.4517 14.4136 13.4427 14.4094L13.4406 14.4084C12.9872 14.2169 12.2135 13.7387 11.1369 12.6621C10.0603 11.5855 9.58208 10.8117 9.39054 10.3584L9.38961 10.3563C9.38535 10.3473 9.37683 10.3292 9.4025 10.2615C9.43796 10.168 9.52492 10.0314 9.68327 9.87305L9.91035 9.64598C10.966 8.5903 11.0848 6.91902 10.189 5.72466L8.23803 3.12332C7.21269 1.7562 5.21423 1.61418 4.00586 2.82255C3.06952 3.75889 2.05002 5.06025 2.00334 6.72549ZM8.30847 15.4905C4.72752 11.9096 3.94883 8.69861 4.00256 6.78152C4.02678 5.91741 4.56719 5.08965 5.42007 4.23676C5.76783 3.88901 6.34295 3.92988 6.63803 4.32332L8.58903 6.92466C8.88762 7.32278 8.84803 7.87987 8.49614 8.23176L8.26906 8.45884C7.7583 8.96961 7.05586 9.97131 7.5482 11.1367C7.87235 11.904 8.53322 12.8868 9.72268 14.0763C10.9121 15.2657 11.895 15.9266 12.6623 16.2508C13.8277 16.7431 14.8294 16.0407 15.3401 15.5299L15.5672 15.3028C15.9191 14.9509 16.4762 14.9113 16.8743 15.2099L19.4757 17.1609C19.8691 17.456 19.91 18.0311 19.5622 18.3789C18.7093 19.2318 17.8816 19.7722 17.0175 19.7964C15.1004 19.8501 11.8894 19.0714 8.30847 15.4905Z" fill="black"/>
<path d="M16.4142 9.00001L21.7071 3.70712L20.2929 2.2929L15 7.5858V5.00001H13V11H19V9.00001H16.4142Z" fill="black"/>
</svg>
