<svg width="24" height="24" viewBox="0 0 24 24" fill="none" xmlns="http://www.w3.org/2000/svg">
<mask id="path-1-inside-1_1723_30310" fill="white">
<path fill-rule="evenodd" clip-rule="evenodd" d="M20.3848 3.41422L21.799 4.82841L12.6619 13.9655C12.9819 14.1856 13.242 14.3245 13.4406 14.4084L13.4427 14.4094C13.4517 14.4136 13.4698 14.4221 13.5375 14.3965C13.631 14.361 13.7676 14.274 13.9259 14.1157L14.153 13.8886C15.2087 12.8329 16.88 12.7142 18.0743 13.6099L20.6757 15.5609C22.0428 16.5863 22.1848 18.5847 20.9764 19.7931C20.0401 20.7295 18.7387 21.749 17.0735 21.7956C14.8582 21.8577 11.7356 21.0688 8.37005 18.2573L3.82841 22.799L2.41422 21.3848L20.3848 3.41422ZM11.2289 15.3985L9.79042 16.837C12.7644 19.2735 15.3692 19.8426 17.0175 19.7964C17.8816 19.7722 18.7093 19.2318 19.5622 18.3789C19.91 18.0311 19.8691 17.456 19.4757 17.1609L16.8743 15.2099C16.4762 14.9113 15.9191 14.9509 15.5672 15.3028L15.3401 15.5299C14.8294 16.0407 13.8277 16.7431 12.6623 16.2508C12.2471 16.0754 11.7689 15.8014 11.2289 15.3985Z"/>
<path d="M9.83347 11.1371L8.4005 12.5701C7.99756 12.0301 7.7236 11.5518 7.54821 11.1367C7.05586 9.97131 7.7583 8.96961 8.26906 8.45884L8.49614 8.23176C8.84803 7.87987 8.88762 7.32278 8.58903 6.92466L6.63803 4.32332C6.34295 3.92988 5.76783 3.88901 5.42007 4.23676C4.56719 5.08965 4.02678 5.91741 4.00256 6.78152C3.95636 8.42981 4.52552 11.0346 6.96201 14.0086L5.54164 15.4289C2.73012 12.0633 1.94125 8.94081 2.00334 6.72549C2.05002 5.06025 3.06952 3.75889 4.00586 2.82255C5.21423 1.61418 7.21269 1.7562 8.23803 3.12332L10.189 5.72466C11.0848 6.91902 10.966 8.5903 9.91035 9.64598L9.68328 9.87305C9.52492 10.0314 9.43796 10.168 9.4025 10.2615C9.37683 10.3292 9.38535 10.3473 9.38961 10.3563L9.39054 10.3584C9.47444 10.557 9.61335 10.817 9.83347 11.1371Z"/>
</mask>
<path fill-rule="evenodd" clip-rule="evenodd" d="M20.3848 3.41422L21.799 4.82841L12.6619 13.9655C12.9819 14.1856 13.242 14.3245 13.4406 14.4084L13.4427 14.4094C13.4517 14.4136 13.4698 14.4221 13.5375 14.3965C13.631 14.361 13.7676 14.274 13.9259 14.1157L14.153 13.8886C15.2087 12.8329 16.88 12.7142 18.0743 13.6099L20.6757 15.5609C22.0428 16.5863 22.1848 18.5847 20.9764 19.7931C20.0401 20.7295 18.7387 21.749 17.0735 21.7956C14.8582 21.8577 11.7356 21.0688 8.37005 18.2573L3.82841 22.799L2.41422 21.3848L20.3848 3.41422ZM11.2289 15.3985L9.79042 16.837C12.7644 19.2735 15.3692 19.8426 17.0175 19.7964C17.8816 19.7722 18.7093 19.2318 19.5622 18.3789C19.91 18.0311 19.8691 17.456 19.4757 17.1609L16.8743 15.2099C16.4762 14.9113 15.9191 14.9509 15.5672 15.3028L15.3401 15.5299C14.8294 16.0407 13.8277 16.7431 12.6623 16.2508C12.2471 16.0754 11.7689 15.8014 11.2289 15.3985Z" fill="black"/>
<path d="M9.83347 11.1371L8.4005 12.5701C7.99756 12.0301 7.7236 11.5518 7.54821 11.1367C7.05586 9.97131 7.7583 8.96961 8.26906 8.45884L8.49614 8.23176C8.84803 7.87987 8.88762 7.32278 8.58903 6.92466L6.63803 4.32332C6.34295 3.92988 5.76783 3.88901 5.42007 4.23676C4.56719 5.08965 4.02678 5.91741 4.00256 6.78152C3.95636 8.42981 4.52552 11.0346 6.96201 14.0086L5.54164 15.4289C2.73012 12.0633 1.94125 8.94081 2.00334 6.72549C2.05002 5.06025 3.06952 3.75889 4.00586 2.82255C5.21423 1.61418 7.21269 1.7562 8.23803 3.12332L10.189 5.72466C11.0848 6.91902 10.966 8.5903 9.91035 9.64598L9.68328 9.87305C9.52492 10.0314 9.43796 10.168 9.4025 10.2615C9.37683 10.3292 9.38535 10.3473 9.38961 10.3563L9.39054 10.3584C9.47444 10.557 9.61335 10.817 9.83347 11.1371Z" fill="black"/>
<path d="M20.3848 3.41422L21.799 2L20.3848 0.585793L18.9706 2.00001L20.3848 3.41422ZM21.799 4.82841L23.2132 6.24262L24.6274 4.82841L23.2132 3.41419L21.799 4.82841ZM12.6619 13.9655L11.2477 12.5513L9.54777 14.2512L11.5286 15.6134L12.6619 13.9655ZM13.4406 14.4084L14.2703 12.5886L14.2448 12.577L14.219 12.5661L13.4406 14.4084ZM13.4427 14.4094L14.294 12.5996L14.2832 12.5945L14.2723 12.5896L13.4427 14.4094ZM13.5375 14.3965L12.8283 12.5264L12.8283 12.5264L13.5375 14.3965ZM13.9259 14.1157L12.5117 12.7015L12.5117 12.7015L13.9259 14.1157ZM14.153 13.8886L15.5672 15.3028H15.5672L14.153 13.8886ZM18.0743 13.6099L16.8743 15.2099V15.2099L18.0743 13.6099ZM20.6757 15.5609L21.8757 13.9609L21.8757 13.9609L20.6757 15.5609ZM20.9764 19.7931L22.3906 21.2073L22.3906 21.2073L20.9764 19.7931ZM17.0735 21.7956L17.0175 19.7964H17.0175L17.0735 21.7956ZM8.37005 18.2573L9.65226 16.7224L8.24888 15.5501L6.95584 16.8431L8.37005 18.2573ZM3.82841 22.799L2.4142 24.2132L3.82841 25.6274L5.24262 24.2132L3.82841 22.799ZM2.41422 21.3848L1.00001 19.9706L-0.414207 21.3848L1.00001 22.799L2.41422 21.3848ZM9.83347 11.1371L11.2477 12.5513L12.4242 11.3748L11.4814 10.0038L9.83347 11.1371ZM8.4005 12.5701L6.79761 13.7662L8.18014 15.6189L9.81472 13.9843L8.4005 12.5701ZM7.54821 11.1367L9.39054 10.3584L9.39054 10.3584L7.54821 11.1367ZM8.26906 8.45884L9.68328 9.87306L9.68328 9.87305L8.26906 8.45884ZM8.49614 8.23176L9.91036 9.64598L9.91036 9.64597L8.49614 8.23176ZM8.58903 6.92466L10.189 5.72466L10.189 5.72466L8.58903 6.92466ZM6.63803 4.32332L8.23803 3.12332L8.23803 3.12332L6.63803 4.32332ZM5.42007 4.23676L6.83428 5.65098L6.83429 5.65098L5.42007 4.23676ZM4.00256 6.78152L6.00177 6.83756V6.83756L4.00256 6.78152ZM6.96201 14.0086L8.37622 15.4228L9.6569 14.1421L8.50911 12.7411L6.96201 14.0086ZM5.54164 15.4289L4.00674 16.7111L5.40912 18.3899L6.95586 16.8431L5.54164 15.4289ZM2.00334 6.72549L4.00256 6.78152V6.78152L2.00334 6.72549ZM4.00586 2.82255L2.59165 1.40833L2.59164 1.40834L4.00586 2.82255ZM8.23803 3.12332L9.83803 1.92332V1.92332L8.23803 3.12332ZM10.189 5.72466L11.789 4.52466L11.789 4.52465L10.189 5.72466ZM9.68328 9.87305L8.26906 8.45884L8.26906 8.45885L9.68328 9.87305ZM9.4025 10.2615L11.2725 10.9707L11.2725 10.9707L9.4025 10.2615ZM9.38961 10.3563L11.2097 9.5273L11.2045 9.51597L11.1992 9.50469L9.38961 10.3563ZM9.39054 10.3584L11.2329 9.58003L11.2221 9.55453L11.2106 9.52935L9.39054 10.3584ZM9.79042 16.837L8.3762 15.4228L6.81453 16.9844L8.52294 18.3841L9.79042 16.837ZM11.2289 15.3985L12.425 13.7956L11.0382 12.7607L9.81469 13.9843L11.2289 15.3985ZM17.0175 19.7964L17.0735 21.7956L17.0175 19.7964ZM19.5622 18.3789L18.148 16.9647H18.148L19.5622 18.3789ZM19.4757 17.1609L18.2757 18.7609V18.7609L19.4757 17.1609ZM16.8743 15.2099L18.0743 13.6099L16.8743 15.2099ZM15.5672 15.3028L14.153 13.8886L14.153 13.8886L15.5672 15.3028ZM15.3401 15.5299L16.7543 16.9441L16.7543 16.9441L15.3401 15.5299ZM12.6623 16.2508L11.8839 18.0931H11.8839L12.6623 16.2508ZM18.9706 4.82843L20.3848 6.24262L23.2132 3.41419L21.799 2L18.9706 4.82843ZM20.3848 3.4142L11.2477 12.5513L14.0761 15.3797L23.2132 6.24262L20.3848 3.4142ZM11.5286 15.6134C11.9382 15.8951 12.3168 16.1048 12.6623 16.2508L14.219 12.5661C14.1673 12.5443 14.0257 12.4761 13.7952 12.3176L11.5286 15.6134ZM12.611 16.2282L12.613 16.2292L14.2723 12.5896L14.2703 12.5886L12.611 16.2282ZM12.5913 16.2191C12.7725 16.3043 13.1059 16.4297 13.5456 16.4126C13.8634 16.4003 14.1132 16.3171 14.2467 16.2665L12.8283 12.5264C12.894 12.5015 13.101 12.4269 13.3906 12.4156C13.5514 12.4094 13.7355 12.4226 13.9321 12.4713C14.0281 12.495 14.1118 12.5235 14.1818 12.5511C14.2462 12.5766 14.2974 12.6012 14.294 12.5996L12.5913 16.2191ZM14.2467 16.2665C14.6911 16.098 15.0593 15.8107 15.3401 15.5299L12.5117 12.7015C12.505 12.7082 12.5196 12.6923 12.56 12.664C12.594 12.6402 12.6834 12.5814 12.8283 12.5264L14.2467 16.2665ZM15.3401 15.5299L15.5672 15.3028L12.7388 12.4744L12.5117 12.7015L15.3401 15.5299ZM15.5672 15.3028C15.9191 14.9509 16.4762 14.9113 16.8743 15.2099L19.2743 12.0099C17.2837 10.517 14.4982 10.7149 12.7388 12.4744L15.5672 15.3028ZM16.8743 15.2099L19.4757 17.1609L21.8757 13.9609L19.2743 12.0099L16.8743 15.2099ZM19.4757 17.1609C19.8691 17.456 19.91 18.0311 19.5622 18.3789L22.3906 21.2073C24.4596 19.1383 24.2165 15.7165 21.8757 13.9609L19.4757 17.1609ZM19.5622 18.3789C18.7092 19.2319 17.8815 19.7722 17.0175 19.7964L17.1295 23.7948C19.596 23.7257 21.3709 22.227 22.3906 21.2073L19.5622 18.3789ZM17.0175 19.7964C15.3368 19.8435 12.681 19.2525 9.65226 16.7224L7.08783 19.7922C10.7903 22.8852 14.3796 23.8719 17.1295 23.7948L17.0175 19.7964ZM6.95584 16.8431L2.4142 21.3848L5.24262 24.2132L9.78426 19.6715L6.95584 16.8431ZM5.24262 21.3848L3.82843 19.9706L1.00001 22.799L2.4142 24.2132L5.24262 21.3848ZM8.41926 9.72289L6.98629 11.1559L9.81472 13.9843L11.2477 12.5513L8.41926 9.72289ZM5.70587 11.915C5.95588 12.5068 6.31856 13.1243 6.79761 13.7662L10.0034 11.3739C9.67657 10.936 9.49131 10.5969 9.39054 10.3584L5.70587 11.915ZM6.85485 7.04463C6.21935 7.68013 4.70615 9.54868 5.70587 11.915L9.39054 10.3584C9.37729 10.327 9.38118 10.3231 9.38101 10.3331C9.38094 10.3371 9.38017 10.3194 9.39778 10.2738C9.41639 10.2257 9.45031 10.1605 9.50505 10.0831C9.55933 10.0063 9.62235 9.93398 9.68328 9.87306L6.85485 7.04463ZM7.08193 6.81755L6.85485 7.04463L9.68328 9.87305L9.91036 9.64598L7.08193 6.81755ZM6.98903 8.12466C6.69044 7.72654 6.73003 7.16944 7.08193 6.81755L9.91036 9.64597C10.966 8.5903 11.0848 6.91902 10.189 5.72466L6.98903 8.12466ZM5.03803 5.52332L6.98903 8.12466L10.189 5.72466L8.23803 3.12332L5.03803 5.52332ZM6.83429 5.65098C6.32142 6.16384 5.47322 6.10357 5.03803 5.52332L8.23803 3.12332C7.21269 1.7562 5.21423 1.61418 4.00586 2.82255L6.83429 5.65098ZM6.00177 6.83756C6.00354 6.77446 6.06501 6.42025 6.83428 5.65098L4.00586 2.82255C3.06937 3.75904 2.05001 5.06036 2.00334 6.72549L6.00177 6.83756ZM8.50911 12.7411C6.34934 10.1048 5.97026 7.96172 6.00177 6.83756L2.00334 6.72549C1.94245 8.8979 2.7017 11.9643 5.41491 15.276L8.50911 12.7411ZM5.5478 12.5944L4.12743 14.0147L6.95586 16.8431L8.37622 15.4228L5.5478 12.5944ZM7.07655 14.1467C4.54646 11.118 3.95545 8.4622 4.00256 6.78152L0.00412822 6.66945C-0.0729487 9.41942 0.913788 13.0087 4.00674 16.7111L7.07655 14.1467ZM4.00256 6.78152C4.02678 5.91748 4.56709 5.08974 5.42007 4.23676L2.59164 1.40834C1.57195 2.42804 0.0732569 4.20302 0.00412822 6.66945L4.00256 6.78152ZM5.42007 4.23676C5.76783 3.88901 6.34295 3.92988 6.63803 4.32332L9.83803 1.92332C8.08243 -0.41748 4.66063 -0.660648 2.59165 1.40833L5.42007 4.23676ZM6.63803 4.32332L8.58904 6.92466L11.789 4.52465L9.83803 1.92332L6.63803 4.32332ZM8.58903 6.92465C8.88762 7.32277 8.84803 7.87987 8.49614 8.23176L11.3246 11.0602C13.084 9.30073 13.282 6.51526 11.789 4.52466L8.58903 6.92465ZM8.49614 8.23176L8.26906 8.45884L11.0975 11.2873L11.3246 11.0602L8.49614 8.23176ZM8.26906 8.45885C7.98824 8.73967 7.70102 9.10785 7.53246 9.5523L11.2725 10.9707C11.2176 11.1156 11.1588 11.205 11.1349 11.239C11.1067 11.2794 11.0908 11.294 11.0975 11.2873L8.26906 8.45885ZM7.53247 9.55228C7.48186 9.68572 7.39866 9.93554 7.38633 10.2534C7.36928 10.6931 7.49464 11.0266 7.57998 11.2079L11.1992 9.50469C11.1977 9.50141 11.2223 9.55257 11.2478 9.61703C11.2755 9.68702 11.3039 9.77078 11.3277 9.86683C11.3763 10.0634 11.3896 10.2475 11.3833 10.4084C11.3721 10.698 11.2975 10.9049 11.2725 10.9707L7.53247 9.55228ZM7.56951 11.1853L7.57045 11.1874L11.2106 9.52935L11.2097 9.5273L7.56951 11.1853ZM7.54821 11.1367C7.69418 11.4822 7.90388 11.8608 8.18556 12.2704L11.4814 10.0038C11.3228 9.77325 11.2547 9.63171 11.2329 9.58003L7.54821 11.1367ZM11.2046 18.2512L12.6431 16.8127L9.81469 13.9843L8.3762 15.4228L11.2046 18.2512ZM16.9614 17.7972C15.8373 17.8287 13.6941 17.4496 11.0579 15.2899L8.52294 18.3841C11.8347 21.0973 14.9011 21.8565 17.0735 21.7956L16.9614 17.7972ZM18.148 16.9647C17.3787 17.734 17.0245 17.7954 16.9614 17.7972L17.0735 21.7956C18.7386 21.749 20.0399 20.7296 20.9764 19.7931L18.148 16.9647ZM18.2757 18.7609C17.6954 18.3258 17.6351 17.4775 18.148 16.9647L20.9764 19.7931C22.1848 18.5847 22.0428 16.5863 20.6757 15.5609L18.2757 18.7609ZM15.6743 16.8099L18.2757 18.7609L20.6757 15.5609L18.0743 13.6099L15.6743 16.8099ZM16.9814 16.717C16.6295 17.0689 16.0724 17.1085 15.6743 16.8099L18.0743 13.6099C16.88 12.7142 15.2087 12.8329 14.153 13.8886L16.9814 16.717ZM16.7543 16.9441L16.9814 16.717L14.153 13.8886L13.9259 14.1157L16.7543 16.9441ZM11.8839 18.0931C14.2503 19.0928 16.1188 17.5796 16.7543 16.9441L13.9259 14.1157C13.865 14.1766 13.7927 14.2396 13.7159 14.2939C13.6384 14.3487 13.5733 14.3826 13.5252 14.4012C13.4796 14.4188 13.4619 14.418 13.4659 14.418C13.4759 14.4178 13.472 14.4217 13.4406 14.4084L11.8839 18.0931ZM10.0328 17.0014C10.6747 17.4804 11.2922 17.8431 11.8839 18.0931L13.4406 14.4084C13.2021 14.3077 12.863 14.1224 12.425 13.7956L10.0328 17.0014ZM3.82843 22.799L21.799 4.82843L18.9706 2.00001L1.00001 19.9706L3.82843 22.799Z" fill="black" mask="url(#path-1-inside-1_1723_30310)"/>
</svg>
