<svg width="24" height="24" viewBox="0 0 24 24" fill="none" xmlns="http://www.w3.org/2000/svg">
<path fill-rule="evenodd" clip-rule="evenodd" d="M6.89425 16.9047C2.97651 12.987 1.93226 9.2617 2.00334 6.72549C2.05002 5.06025 3.06952 3.75889 4.00586 2.82255C5.21423 1.61418 7.21269 1.7562 8.23803 3.12332L10.189 5.72466C11.0848 6.91902 10.966 8.5903 9.91035 9.64598L9.68327 9.87305C9.52492 10.0314 9.43796 10.168 9.4025 10.2615C9.37683 10.3292 9.38535 10.3473 9.38961 10.3563L9.39054 10.3584C9.58208 10.8117 10.0603 11.5855 11.1369 12.6621C12.2135 13.7387 12.9872 14.2169 13.4406 14.4084L13.4427 14.4094C13.4517 14.4136 13.4698 14.4221 13.5375 14.3965C13.631 14.361 13.7676 14.274 13.9259 14.1157L14.153 13.8886C15.2087 12.8329 16.88 12.7142 18.0743 13.6099L20.6757 15.5609C22.0428 16.5863 22.1848 18.5847 20.9764 19.7931C20.0401 20.7295 18.7387 21.749 17.0735 21.7956C14.5373 21.8667 10.812 20.8225 6.89425 16.9047ZM4.00256 6.78152C3.94883 8.69861 4.72752 11.9096 8.30847 15.4905C11.8894 19.0714 15.1004 19.8501 17.0175 19.7964C17.8816 19.7722 18.7093 19.2318 19.5622 18.3789C19.91 18.0311 19.8691 17.456 19.4757 17.1609L16.8743 15.2099C16.4762 14.9113 15.9191 14.9509 15.5672 15.3028L15.3401 15.5299C14.8294 16.0407 13.8277 16.7431 12.6623 16.2508C11.895 15.9266 10.9121 15.2657 9.72268 14.0763C8.53322 12.8868 7.87235 11.904 7.5482 11.1367C7.05586 9.97131 7.7583 8.96961 8.26906 8.45884L8.49614 8.23176C8.84803 7.87987 8.88762 7.32278 8.58903 6.92466L6.63803 4.32332C6.34295 3.92988 5.76783 3.88901 5.42007 4.23676C4.56719 5.08965 4.02678 5.91741 4.00256 6.78152Z" fill="black"/>
<path d="M14 9.00001V2.00001H16V9.00001H14Z" fill="black"/>
<path d="M17 2.00001V9.00001H19V2.00001H17Z" fill="black"/>
</svg>
