<svg width="24" height="24" viewBox="0 0 24 24" fill="none" xmlns="http://www.w3.org/2000/svg">
<path fill-rule="evenodd" clip-rule="evenodd" d="M6.99521 2.49434C5.3555 4.04463 3.6875 7.02703 3.6875 11.8995C3.6875 16.772 5.3555 19.7544 6.99521 21.3047C8.08989 22.3397 9.56666 22.5136 10.7314 22.5136C12.3017 22.5136 13.5079 21.1228 13.2858 19.5684L12.8839 16.7549C12.6905 15.4011 11.5311 14.3955 10.1635 14.3955H9.88285C9.69803 14.3955 9.5791 14.3663 9.52097 14.3401C9.51702 14.3383 9.51363 14.3367 9.51077 14.3352C9.3588 13.9502 9.18354 13.1974 9.18354 11.8995C9.18354 10.6016 9.3588 9.84878 9.51078 9.46378L9.52097 9.45891C9.5791 9.43274 9.69803 9.40347 9.88285 9.40347L10.1635 9.40347C11.5311 9.40347 12.6905 8.39788 12.8839 7.04408L13.2858 4.23065C13.5079 2.67617 12.3017 1.2854 10.7314 1.2854C9.56666 1.2854 8.08989 1.45935 6.99521 2.49434ZM5.6875 11.8995C5.6875 7.50333 7.17959 5.0724 8.36925 3.94762C8.88156 3.46323 9.68469 3.2854 10.7314 3.2854C11.0846 3.2854 11.3559 3.59819 11.3059 3.94781L10.904 6.76123C10.8514 7.12974 10.5358 7.40347 10.1635 7.40347L9.88285 7.40347C9.23876 7.40347 8.11213 7.59182 7.66565 8.69152C7.38372 9.38593 7.18354 10.4192 7.18354 11.8995C7.18354 13.3798 7.38372 14.4131 7.66565 15.1075C8.11213 16.2072 9.23876 16.3955 9.88285 16.3955H10.1635C10.5358 16.3955 10.8514 16.6693 10.904 17.0378L11.3059 19.8512C11.3559 20.2008 11.0846 20.5136 10.7314 20.5136C9.68469 20.5136 8.88156 20.3358 8.36925 19.8514C7.17959 18.7266 5.6875 16.2957 5.6875 11.8995Z" fill="black"/>
<path d="M18.4853 10.9498H12.0001L12.0001 12.9498L18.4853 12.9498L16.6569 14.7782L18.0711 16.1924L22.3138 11.9498L18.0711 7.70712L16.6569 9.12133L18.4853 10.9498Z" fill="black"/>
</svg>
