<svg width="24" height="24" viewBox="0 0 24 24" fill="none" xmlns="http://www.w3.org/2000/svg">
<path d="M13.0002 2V4H14.586L12.0002 6.58579L7.70732 2.29289L6.29311 3.70711L12.0002 9.41421L16.0002 5.41421V7H18.0002V2H13.0002Z" fill="black"/>
<path fill-rule="evenodd" clip-rule="evenodd" d="M21.4055 13.9951C19.8552 12.3554 16.8728 10.6874 12.0003 10.6874C7.12786 10.6874 4.14546 12.3554 2.59517 13.9951C1.56018 15.0898 1.38623 16.5666 1.38623 17.7314C1.38623 19.3016 2.777 20.5078 4.33148 20.2858L7.14491 19.8839C8.49871 19.6905 9.5043 18.531 9.5043 17.1635V16.8828C9.5043 16.698 9.53357 16.579 9.55974 16.5209C9.5609 16.5183 9.562 16.516 9.56303 16.5139L9.56461 16.5107C9.94961 16.3587 10.7024 16.1835 12.0003 16.1835C13.2983 16.1835 14.0511 16.3587 14.4361 16.5107L14.4409 16.5209C14.4671 16.579 14.4964 16.698 14.4964 16.8828L14.4964 17.1635C14.4964 18.531 15.502 19.6905 16.8558 19.8839L19.6692 20.2858C21.2237 20.5079 22.6144 19.3016 22.6144 17.7314C22.6144 16.5666 22.4405 15.0898 21.4055 13.9951ZM12.0003 12.6874C16.3965 12.6874 18.8274 14.1795 19.9522 15.3692C20.4366 15.8815 20.6144 16.6846 20.6144 17.7314C20.6144 18.0845 20.3016 18.3558 19.952 18.3059L17.1386 17.904C16.7701 17.8513 16.4964 17.5357 16.4964 17.1635L16.4964 16.8828C16.4964 16.2387 16.308 15.1121 15.2083 14.6656C14.5139 14.3837 13.4806 14.1835 12.0003 14.1835C10.5201 14.1835 9.48676 14.3837 8.79236 14.6656C7.69265 15.1121 7.5043 16.2387 7.5043 16.8828L7.5043 17.1635C7.5043 17.5357 7.23058 17.8513 6.86206 17.904L4.04864 18.3059C3.69902 18.3558 3.38623 18.0845 3.38623 17.7314C3.38623 16.6846 3.56406 15.8815 4.04845 15.3692C5.17323 14.1795 7.60417 12.6874 12.0003 12.6874Z" fill="black"/>
</svg>
