<svg width="24" height="24" viewBox="0 0 24 24" fill="none" xmlns="http://www.w3.org/2000/svg">
<path fill-rule="evenodd" clip-rule="evenodd" d="M21.4055 7.99521C19.8552 6.3555 16.8728 4.6875 12.0003 4.6875C7.12786 4.6875 4.14546 6.3555 2.59517 7.99521C1.56018 9.08989 1.38623 10.5667 1.38623 11.7314C1.38623 13.3017 2.777 14.5079 4.33148 14.2858L7.14491 13.8839C8.49871 13.6905 9.5043 12.5311 9.5043 11.1635V10.8829C9.5043 10.698 9.53357 10.5791 9.55974 10.521C9.56152 10.517 9.56315 10.5136 9.56461 10.5108C9.94961 10.3588 10.7024 10.1835 12.0003 10.1835C13.2983 10.1835 14.0511 10.3588 14.4361 10.5108L14.4409 10.521C14.4671 10.5791 14.4964 10.698 14.4964 10.8829L14.4964 11.1635C14.4964 12.5311 15.502 13.6905 16.8558 13.8839L19.6692 14.2858C21.2237 14.5079 22.6144 13.3017 22.6144 11.7314C22.6144 10.5667 22.4405 9.08989 21.4055 7.99521ZM12.0003 6.6875C16.3965 6.6875 18.8274 8.17959 19.9522 9.36925C20.4366 9.88156 20.6144 10.6847 20.6144 11.7314C20.6144 12.0846 20.3016 12.3559 19.952 12.3059L17.1386 11.904C16.7701 11.8514 16.4964 11.5358 16.4964 11.1635L16.4964 10.8828C16.4964 10.2388 16.308 9.11213 15.2083 8.66565C14.5139 8.38372 13.4806 8.18354 12.0003 8.18354C10.5201 8.18354 9.48676 8.38372 8.79236 8.66565C7.69265 9.11213 7.5043 10.2388 7.5043 10.8829L7.5043 11.1635C7.5043 11.5358 7.23058 11.8514 6.86206 11.904L4.04864 12.3059C3.69902 12.3559 3.38623 12.0846 3.38623 11.7314C3.38623 10.6847 3.56406 9.88156 4.04845 9.36925C5.17323 8.17959 7.60417 6.6875 12.0003 6.6875Z" fill="black"/>
<path d="M11.0002 13.0001V18.5859L9.70732 17.293L8.29311 18.7072L12.0002 22.4143L15.7073 18.7072L14.2931 17.293L13.0002 18.5859V13.0001H11.0002Z" fill="black"/>
</svg>
