<svg width="24" height="24" viewBox="0 0 24 24" fill="none" xmlns="http://www.w3.org/2000/svg">
<path d="M16.7071 6.29297L15.4142 5.00008H19C19.5523 5.00008 20 5.44779 20 6.00008V13.0001H22V6.00008C22 4.34322 20.6569 3.00008 19 3.00008H15.4142L16.7071 1.70718L15.2929 0.292969L11.5858 4.00008L15.2929 7.70718L16.7071 6.29297Z" fill="black"/>
<path fill-rule="evenodd" clip-rule="evenodd" d="M2.00334 6.72555C1.93226 9.26176 2.97651 12.987 6.89425 16.9048C10.812 20.8225 14.5373 21.8668 17.0735 21.7957C18.7387 21.749 20.0401 20.7295 20.9764 19.7932C22.1848 18.5848 22.0428 16.5863 20.6757 15.561L18.0743 13.61C16.88 12.7142 15.2087 12.833 14.153 13.8887L13.9259 14.1158C13.7676 14.2741 13.631 14.3611 13.5375 14.3965C13.4698 14.4222 13.4517 14.4137 13.4427 14.4094L13.4406 14.4085C12.9872 14.217 12.2135 13.7387 11.1369 12.6621C10.0603 11.5855 9.58208 10.8118 9.39054 10.3584L9.38961 10.3564C9.38535 10.3473 9.37683 10.3292 9.4025 10.2616C9.43796 10.1681 9.52492 10.0315 9.68327 9.87312L9.91035 9.64604C10.966 8.59037 11.0848 6.91908 10.189 5.72472L8.23803 3.12338C7.21269 1.75627 5.21423 1.61425 4.00586 2.82261C3.06952 3.75896 2.05002 5.06032 2.00334 6.72555ZM8.30847 15.4906C4.72752 11.9096 3.94883 8.69868 4.00256 6.78159C4.02678 5.91748 4.56719 5.08971 5.42007 4.23683C5.76783 3.88908 6.34295 3.92995 6.63803 4.32339L8.58903 6.92472C8.88762 7.32284 8.84803 7.87994 8.49614 8.23183L8.26906 8.45891C7.7583 8.96967 7.05586 9.97138 7.5482 11.1368C7.87235 11.904 8.53322 12.8869 9.72268 14.0764C10.9121 15.2658 11.895 15.9267 12.6623 16.2508C13.8277 16.7432 14.8294 16.0407 15.3401 15.53L15.5672 15.3029C15.9191 14.951 16.4762 14.9114 16.8743 15.21L19.4757 17.161C19.8691 17.4561 19.91 18.0312 19.5622 18.379C18.7093 19.2318 17.8816 19.7723 17.0175 19.7965C15.1004 19.8502 11.8894 19.0715 8.30847 15.4906Z" fill="black"/>
</svg>
