<svg width="24" height="24" viewBox="0 0 24 24" fill="none" xmlns="http://www.w3.org/2000/svg">
<path fill-rule="evenodd" clip-rule="evenodd" d="M2.91419 2.32837L1.5 3.74255L3.76638 6.00893C2.21871 6.12814 1 7.42173 1 8.99997V19C1 20.6568 2.34315 22 4 22H19.7574L21.5564 23.799L22.9706 22.3848L21.9042 21.3183L20.4692 19.8833L16.5845 15.9987L14.975 14.3891L2.91419 2.32837ZM21 17.5858L22.9519 19.5377C22.9835 19.3632 23 19.1835 23 19V8.99997C23 7.34312 21.6569 5.99997 20 5.99997H17.9367C17.64 5.99997 17.3585 5.86815 17.1685 5.64016L15.8679 4.07942C15.2979 3.39544 14.4536 2.99997 13.5633 2.99997H10.4367C9.54641 2.99997 8.70207 3.39544 8.13209 4.07942L7.84189 4.42765L9.26194 5.8477L9.66853 5.35979C9.85852 5.13179 10.14 4.99997 10.4367 4.99997H13.5633C13.86 4.99997 14.1415 5.13179 14.3315 5.35979L15.6321 6.92052C16.2021 7.6045 17.0464 7.99997 17.9367 7.99997H20C20.5523 7.99997 21 8.44769 21 8.99997V17.5858ZM4 7.99997H5.75741L8.34524 10.5878C7.51074 11.4813 7 12.681 7 14C7 16.7614 9.23858 19 12 19C13.319 19 14.5187 18.4892 15.4122 17.6547L17.7574 20H4C3.44772 20 3 19.5523 3 19V8.99997C3 8.44769 3.44772 7.99997 4 7.99997ZM9 14C9 13.2333 9.28761 12.5337 9.76083 12.0034L13.9966 16.2391C13.4662 16.7124 12.7667 17 12 17C10.3431 17 9 15.6568 9 14ZM19 11C19.5523 11 20 10.5523 20 9.99997C20 9.44769 19.5523 8.99997 19 8.99997C18.4477 8.99997 18 9.44769 18 9.99997C18 10.5523 18.4477 11 19 11Z" fill="black"/>
</svg>
