<svg width="24" height="24" viewBox="0 0 24 24" fill="none" xmlns="http://www.w3.org/2000/svg">
<path fill-rule="evenodd" clip-rule="evenodd" d="M10.4367 5C10.14 5 9.85852 5.13182 9.66853 5.35982L8.36791 6.92055C7.79793 7.60453 6.95359 8 6.06325 8H4C3.44772 8 3 8.44772 3 9V19C3 19.5523 3.44772 20 4 20H20C20.5523 20 21 19.5523 21 19V9C21 8.44772 20.5523 8 20 8H17.9367C17.0464 8 16.2021 7.60453 15.6321 6.92055L14.3315 5.35982C14.1415 5.13182 13.86 5 13.5633 5H10.4367ZM8.13209 4.07945C8.70207 3.39547 9.54641 3 10.4367 3H13.5633C14.4536 3 15.2979 3.39547 15.8679 4.07945L17.1685 5.64018C17.3585 5.86818 17.64 6 17.9367 6H20C21.6569 6 23 7.34315 23 9V19C23 20.6569 21.6569 22 20 22H4C2.34315 22 1 20.6569 1 19V9C1 7.34315 2.34315 6 4 6H6.06325C6.36003 6 6.64148 5.86818 6.83147 5.64018L8.13209 4.07945ZM12 17C13.6569 17 15 15.6569 15 14C15 12.3431 13.6569 11 12 11C10.3431 11 9 12.3431 9 14C9 15.6569 10.3431 17 12 17ZM12 19C14.7614 19 17 16.7614 17 14C17 11.2386 14.7614 9 12 9C9.23858 9 7 11.2386 7 14C7 16.7614 9.23858 19 12 19ZM19 11C19.5523 11 20 10.5523 20 10C20 9.44771 19.5523 9 19 9C18.4477 9 18 9.44771 18 10C18 10.5523 18.4477 11 19 11Z" fill="black"/>
</svg>
