<svg width="24" height="24" viewBox="0 0 24 24" fill="none" xmlns="http://www.w3.org/2000/svg">
<path fill-rule="evenodd" clip-rule="evenodd" d="M2.91415 0.914307L1.5 2.32846L3.54653 4.375C2.62422 4.88676 1.99997 5.8705 1.99997 7.00003V15C1.99997 16.6569 3.34312 18 4.99997 18V22L10.3333 18H17.1716L21.1715 22L22.5857 20.5859L2.91415 0.914307ZM21.4949 16.6666C21.8139 16.1899 22 15.6167 22 15V7.00003C22 5.34318 20.6568 4.00003 19 4.00003H8.82831L10.8283 6.00003H19C19.5523 6.00003 20 6.44775 20 7.00003V15C20 15.0542 19.9957 15.1073 19.9874 15.1591L21.4949 16.6666ZM4.99997 6.00003H5.17157L15.1716 16H9.66664L6.99997 18V16H4.99997C4.44768 16 3.99997 15.5523 3.99997 15V7.00003C3.99997 6.44775 4.44768 6.00003 4.99997 6.00003Z" fill="black"/>
<path fill-rule="evenodd" clip-rule="evenodd" d="M2.91415 0.914307L1.5 2.32846L3.54653 4.375C3.54656 4.37498 3.54651 4.37501 3.54653 4.375C3.05483 4.64785 2.64777 5.05488 2.37494 5.54659C2.13602 5.97717 1.99997 6.47272 1.99997 7.00003V15C1.99997 16.6569 3.34312 18 4.99997 18V22L10.3333 18H17.1716L21.1715 22L22.5857 20.5859L2.91415 0.914307ZM19.9874 15.1591L21.4949 16.6666C21.8139 16.1899 22 15.6167 22 15V7.00003C22 5.34318 20.6568 4.00003 19 4.00003H8.82831L10.8283 6.00003H19C19.5523 6.00003 20 6.44775 20 7.00003V15C20 15.0542 19.9957 15.1073 19.9874 15.1591ZM4.99997 6.00003C4.44768 6.00003 3.99997 6.44775 3.99997 7.00003V15C3.99997 15.5523 4.44768 16 4.99997 16H6.99997V18L9.66664 16H15.1716L5.17157 6.00003H4.99997Z" fill="black"/>
</svg>
