<svg width="24" height="24" viewBox="0 0 24 24" fill="none" xmlns="http://www.w3.org/2000/svg">
<path fill-rule="evenodd" clip-rule="evenodd" d="M5.03809 16.0129L3.90956 20.0342L7.80693 18.8596L8.50981 19.201C9.56216 19.7123 10.7447 20 12 20C16.4183 20 20 16.4183 20 12C20 7.58172 16.4183 4 12 4C7.58172 4 4 7.58172 4 12C4 13.1979 4.26197 14.3292 4.72986 15.3442L5.03809 16.0129ZM1 23L2.91353 16.1814C2.3271 14.9092 2 13.4928 2 12C2 6.47715 6.47715 2 12 2C17.5228 2 22 6.47715 22 12C22 17.5228 17.5228 22 12 22C10.4354 22 8.95464 21.6407 7.63587 21L1 23Z" fill="black"/>
</svg>
