<svg width="24" height="24" viewBox="0 0 24 24" fill="none" xmlns="http://www.w3.org/2000/svg">
<path d="M8.29302 14.293L10.5859 12.0001L8.2932 9.70735L9.70741 8.29314L12.0001 10.5859L14.2929 8.29311L15.7071 9.70732L13.4144 12.0001L15.7072 14.2928L14.293 15.707L12.0001 13.4143L9.70723 15.7072L8.29302 14.293Z" fill="black"/>
<path fill-rule="evenodd" clip-rule="evenodd" d="M1 23L7.63587 21C8.95464 21.6407 10.4354 22 12 22C17.5228 22 22 17.5228 22 12C22 6.47715 17.5228 2 12 2C6.47715 2 2 6.47715 2 12C2 13.4928 2.3271 14.9092 2.91353 16.1814L1 23ZM5.03809 16.0129L4.72986 15.3442C4.26197 14.3292 4 13.1979 4 12C4 7.58172 7.58172 4 12 4C16.4183 4 20 7.58172 20 12C20 16.4183 16.4183 20 12 20C10.7447 20 9.56216 19.7123 8.50981 19.201L7.80693 18.8596L3.90956 20.0342L5.03809 16.0129Z" fill="black"/>
</svg>
