<svg width="24" height="24" viewBox="0 0 24 24" fill="none" xmlns="http://www.w3.org/2000/svg">
<path d="M12 8C10.8954 8 10 8.89543 10 10H8C8 7.79086 9.79086 6 12 6C14.2091 6 16 7.79086 16 10C16 10.9335 15.7615 11.6667 15.3633 12.2641C14.9825 12.8353 14.4888 13.227 14.1084 13.5186L14.0961 13.5281C13.2823 14.1519 13 14.3684 13 15H11C11 13.3556 12.0542 12.5622 12.7456 12.0419C12.7963 12.0038 12.8454 11.9668 12.8916 11.9314C13.2612 11.648 13.5175 11.4272 13.6992 11.1547C13.8635 10.9083 14 10.5665 14 10C14 8.89543 13.1046 8 12 8Z" fill="black"/>
<path d="M11 16V18H13V16H11Z" fill="black"/>
<path fill-rule="evenodd" clip-rule="evenodd" d="M1 23L2.91353 16.1814C2.3271 14.9092 2 13.4928 2 12C2 6.47715 6.47715 2 12 2C17.5228 2 22 6.47715 22 12C22 17.5228 17.5228 22 12 22C10.4354 22 8.95464 21.6407 7.63587 21L1 23ZM5.03809 16.0129L3.90956 20.0342L7.80693 18.8596L8.50981 19.201C9.56216 19.7123 10.7447 20 12 20C16.4183 20 20 16.4183 20 12C20 7.58172 16.4183 4 12 4C7.58172 4 4 7.58172 4 12C4 13.1979 4.26197 14.3292 4.72986 15.3442L5.03809 16.0129Z" fill="black"/>
</svg>
