<svg width="24" height="24" viewBox="0 0 24 24" fill="none" xmlns="http://www.w3.org/2000/svg">
<path d="M14.2929 14.7071L12 12.4142L9.70713 14.7071L8.29293 13.2929L10.5858 11L8.29291 8.70712L9.70712 7.29291L12 9.58582L14.293 7.29288L15.7072 8.70709L13.4142 11L15.7071 13.2929L14.2929 14.7071Z" fill="black"/>
<path fill-rule="evenodd" clip-rule="evenodd" d="M5 4C3.34315 4 2 5.34315 2 7V15C2 16.6569 3.34315 18 5 18V22L10.3333 18H19C20.6569 18 22 16.6569 22 15V7C22 5.34315 20.6569 4 19 4H5ZM4 7C4 6.44772 4.44772 6 5 6H19C19.5523 6 20 6.44772 20 7V15C20 15.5523 19.5523 16 19 16H9.66667L7 18V16H5C4.44772 16 4 15.5523 4 15V7Z" fill="black"/>
</svg>
