<svg width="24" height="24" viewBox="0 0 24 24" fill="none" xmlns="http://www.w3.org/2000/svg">
<path d="M22.2119 9.78782C19.6378 7.10153 16.0141 5.42896 11.9998 5.42896C7.98544 5.42896 4.36176 7.10154 1.7876 9.78783L3.60629 11.6065C5.71469 9.38531 8.69549 8.00026 11.9998 8.00026C15.3041 8.00026 18.2849 9.38531 20.3933 11.6065L22.2119 9.78782Z" fill="black"/>
<path d="M19.4838 12.516C17.6084 10.5273 14.949 9.28593 11.9998 9.28593C9.05051 9.28593 6.39117 10.5273 4.51574 12.516L6.33497 14.3352C7.74416 12.8113 9.76054 11.8572 11.9998 11.8572C14.239 11.8572 16.2554 12.8113 17.6646 14.3352L19.4838 12.516Z" fill="black"/>
<path d="M16.7546 15.2451C15.5789 13.9536 13.884 13.1429 11.9998 13.1429C10.1156 13.1429 8.42068 13.9536 7.24491 15.2451L9.06645 17.0667C9.77387 16.2389 10.8255 15.7142 11.9998 15.7142C13.174 15.7142 14.2257 16.2389 14.9331 17.0667L16.7546 15.2451Z" fill="black"/>
<path d="M14.0198 17.98C13.5489 17.383 12.8191 16.9998 11.9998 16.9998C11.1805 16.9998 10.4506 17.383 9.97977 17.98L11.9998 20L14.0198 17.98Z" fill="black"/>
</svg>
