<svg width="24" height="24" viewBox="0 0 24 24" fill="none" xmlns="http://www.w3.org/2000/svg">
<path d="M19.4842 12.5159C17.6087 10.5272 14.9494 9.28589 12.0001 9.28589C9.05088 9.28589 6.39154 10.5272 4.51611 12.5159L6.33535 14.3352C7.74453 12.8113 9.76092 11.8572 12.0001 11.8572C14.2394 11.8572 16.2558 12.8113 17.6649 14.3352L19.4842 12.5159Z" fill="black"/>
<path d="M16.755 15.2451C15.5792 13.9535 13.8844 13.1428 12.0001 13.1428C10.1159 13.1428 8.42105 13.9535 7.24528 15.2451L9.06683 17.0666C9.77424 16.2389 10.8259 15.7141 12.0001 15.7141C13.1744 15.7141 14.226 16.2389 14.9335 17.0666L16.755 15.2451Z" fill="black"/>
<path d="M14.0201 17.98C13.5493 17.383 12.8195 16.9998 12.0001 16.9998C11.1808 16.9998 10.451 17.383 9.98014 17.98L12.0001 20L14.0201 17.98Z" fill="black"/>
</svg>
