<svg width="24" height="24" viewBox="0 0 24 24" fill="none" xmlns="http://www.w3.org/2000/svg">
<path d="M3.41392 3.41431L1.99974 4.82849L4.65483 7.48359C3.6006 8.12555 2.63697 8.90156 1.7876 9.78793L3.60629 11.6066C4.45451 10.713 5.44392 9.95475 6.53879 9.36754L7.4941 10.3229C6.37154 10.8708 5.36354 11.6171 4.51574 12.5161L6.33497 14.3353C7.18356 13.4177 8.25233 12.7066 9.45736 12.2861L10.492 13.3208C9.22081 13.6263 8.09665 14.3096 7.24491 15.2452L9.06645 17.0668C9.77387 16.239 10.8255 15.7143 11.9998 15.7143C12.3539 15.7143 12.6969 15.762 13.0226 15.8514L17.9703 20.7991L19.3845 19.3849L3.41392 3.41431Z" fill="black"/>
<path d="M15.5481 12.7201C16.345 13.1336 17.0606 13.6821 17.6646 14.3353L19.4838 12.5161C17.6328 10.5532 15.0181 9.31844 12.1147 9.28665L15.5481 12.7201Z" fill="black"/>
<path d="M10.8817 8.05367C11.2496 8.0184 11.6226 8.00035 11.9998 8.00035C15.3041 8.00035 18.2849 9.3854 20.3933 11.6066L22.2119 9.78791C19.6378 7.10162 16.0141 5.42905 11.9998 5.42905C10.8475 5.42905 9.72732 5.56687 8.65496 5.82692L10.8817 8.05367Z" fill="black"/>
<path d="M14.0198 17.9801C13.5489 17.3831 12.8191 16.9999 11.9998 16.9999C11.1805 16.9999 10.4506 17.3831 9.97977 17.9801L11.9998 20.0001L14.0198 17.9801Z" fill="black"/>
</svg>
