<svg width="24" height="24" viewBox="0 0 24 24" fill="none" xmlns="http://www.w3.org/2000/svg">
<path fill-rule="evenodd" clip-rule="evenodd" d="M11.9999 0.585693L19.4884 8.07414L14.6902 11.9999L19.5349 15.9638L11.9999 22.7453V14.2011L7.63317 17.7739L6.3667 16.226L11.5319 11.9999L6.3667 7.77386L7.63317 6.22595L11.9999 9.79876V0.585693ZM13.9999 14.0192L16.4649 16.0361L13.9999 18.2545V14.0192ZM13.9999 9.98057V5.41412L16.5115 7.92567L13.9999 9.98057Z" fill="black"/>
<path d="M17.9999 12.9999C17.4477 12.9999 16.9999 12.5522 16.9999 11.9999C16.9999 11.4476 17.4477 10.9999 17.9999 10.9999C18.5522 10.9999 18.9999 11.4476 18.9999 11.9999C18.9999 12.5522 18.5522 12.9999 17.9999 12.9999Z" fill="black"/>
<path d="M7.99994 12.9999C8.55222 12.9999 8.99994 12.5522 8.99994 11.9999C8.99994 11.4476 8.55222 10.9999 7.99994 10.9999C7.44765 10.9999 6.99994 11.4476 6.99994 11.9999C6.99994 12.5522 7.44765 12.9999 7.99994 12.9999Z" fill="black"/>
</svg>
