<svg width="24" height="24" viewBox="0 0 24 24" fill="none" xmlns="http://www.w3.org/2000/svg">
<path fill-rule="evenodd" clip-rule="evenodd" d="M7 4C6.44772 4 6 4.44772 6 5V20C6 20.5523 6.44772 21 7 21H17C17.5523 21 18 20.5523 18 20V11H11V4H7ZM13 4.41421V9H17.5858L13 4.41421ZM4 5C4 3.34315 5.34315 2 7 2H13.4142L20 8.58579V20C20 21.6569 18.6569 23 17 23H7C5.34315 23 4 21.6569 4 20V5Z" fill="black"/>
<path fill-rule="evenodd" clip-rule="evenodd" d="M10.5858 16L8.79289 14.2071L10.2071 12.7929L12 14.5858L13.7929 12.7929L15.2071 14.2071L13.4142 16L15.2071 17.7929L13.7929 19.2071L12 17.4142L10.2071 19.2071L8.79289 17.7929L10.5858 16Z" fill="black"/>
</svg>
