<svg width="24" height="24" viewBox="0 0 24 24" fill="none" xmlns="http://www.w3.org/2000/svg">
<path fill-rule="evenodd" clip-rule="evenodd" d="M12 17C14.2091 17 16 15.2091 16 13C16 10.7909 14.2091 9 12 9C9.79086 9 8 10.7909 8 13C8 15.2091 9.79086 17 12 17ZM14.2171 14.1564C14.3978 13.8106 14.5 13.4172 14.5 13C14.5 11.6193 13.3807 10.5 12 10.5C11.5828 10.5 11.1894 10.6022 10.8436 10.7829L14.2171 14.1564ZM13.1564 15.217C12.8106 15.3978 12.4172 15.5 12 15.5C10.6193 15.5 9.5 14.3807 9.5 13C9.5 12.5828 9.60221 12.1894 9.78295 11.8436L13.1564 15.217Z" fill="black"/>
<path fill-rule="evenodd" clip-rule="evenodd" d="M2 7C2 5.34315 3.34315 4 5 4H8.58579C9.11622 4 9.62493 4.21071 10 4.58579L11.4142 6L19 6C20.6569 6 22 7.34315 22 9V17C22 18.6569 20.6569 20 19 20H5C3.34315 20 2 18.6569 2 17V7ZM5 6C4.44772 6 4 6.44772 4 7V17C4 17.5523 4.44772 18 5 18H19C19.5523 18 20 17.5523 20 17V9C20 8.44772 19.5523 8 19 8H11.4142C10.8838 8 10.3751 7.78929 10 7.41421L8.58579 6H5Z" fill="black"/>
</svg>
