<svg width="24" height="24" viewBox="0 0 24 24" fill="none" xmlns="http://www.w3.org/2000/svg">
<path fill-rule="evenodd" clip-rule="evenodd" d="M6 9C6 7.34315 7.34315 6 9 6H19C20.6569 6 22 7.34315 22 9V19C22 20.6569 20.6569 22 19 22H9C7.34315 22 6 20.6569 6 19V9ZM9 8C8.44772 8 8 8.44772 8 9V19C8 19.5523 8.44772 20 9 20H19C19.5523 20 20 19.5523 20 19V9C20 8.44772 19.5523 8 19 8H9Z" fill="black"/>
<path fill-rule="evenodd" clip-rule="evenodd" d="M2 5C2 3.34315 3.34315 2 5 2H17V4H5C4.44772 4 4 4.44772 4 5V17H2V5Z" fill="black"/>
</svg>
