<svg width="24" height="24" viewBox="0 0 24 24" fill="none" xmlns="http://www.w3.org/2000/svg">
<path fill-rule="evenodd" clip-rule="evenodd" d="M2 7C2 5.34315 3.34315 4 5 4H8.58579C9.11622 4 9.62493 4.21071 10 4.58579L11.4142 6L19 6C20.6569 6 22 7.34315 22 9V9.5H20V9C20 8.44772 19.5523 8 19 8H11.4142C10.8838 8 10.3751 7.78929 10 7.41421L8.58579 6H5C4.44772 6 4 6.44772 4 7V9.5H2V7ZM22 10.382V17C22 18.6569 20.6569 20 19 20H5C3.34315 20 2 18.6569 2 17V13.4648L5.92816 10.846L9.92816 12.846L12.9282 10.846L17 12.882L22 10.382ZM6.07184 13.154L4 14.5352V17C4 17.5523 4.44772 18 5 18H19C19.5523 18 20 17.5523 20 17V13.618L17 15.118L13.0718 13.154L10.0718 15.154L6.07184 13.154Z" fill="black"/>
</svg>
