<svg width="24" height="24" viewBox="0 0 24 24" fill="none" xmlns="http://www.w3.org/2000/svg">
<path d="M15.0858 12H11V14H15.0858L13.7929 15.2929L15.2071 16.7071L18.9142 13L15.2071 9.29288L13.7929 10.7071L15.0858 12Z" fill="black"/>
<path fill-rule="evenodd" clip-rule="evenodd" d="M5 4C3.34315 4 2 5.34315 2 7V17C2 18.6569 3.34315 20 5 20H19C20.6569 20 22 18.6569 22 17V9C22 7.34315 20.6569 6 19 6L11.4142 6L10 4.58579C9.62493 4.21071 9.11622 4 8.58579 4H5ZM4 7C4 6.44772 4.44772 6 5 6H8.58579L10 7.41421C10.3751 7.78929 10.8838 8 11.4142 8H19C19.5523 8 20 8.44772 20 9V17C20 17.5523 19.5523 18 19 18H5C4.44772 18 4 17.5523 4 17V7Z" fill="black"/>
</svg>
