<svg width="24" height="24" viewBox="0 0 24 24" fill="none" xmlns="http://www.w3.org/2000/svg">
<path fill-rule="evenodd" clip-rule="evenodd" d="M4 5C4 3.34315 5.34315 2 7 2H13.4142L20 8.58579V12H18V11H11V4H7C6.44772 4 6 4.44772 6 5V12H4V5ZM13 4.41421V9H17.5858L13 4.41421ZM4 13.1315L8.07184 15.846L12 13.882L15.9282 15.846L20 13.1315V20C20 21.6569 18.6569 23 17 23H7C5.34315 23 4 21.6569 4 20V13.1315ZM12 16.118L7.92816 18.154L6 16.8685V20C6 20.5523 6.44772 21 7 21H17C17.5523 21 18 20.5523 18 20V16.8685L16.0718 18.154L12 16.118Z" fill="black"/>
</svg>
