<svg width="24" height="24" viewBox="0 0 24 24" fill="none" xmlns="http://www.w3.org/2000/svg">
<path fill-rule="evenodd" clip-rule="evenodd" d="M2 7C2 5.34315 3.34315 4 5 4H8.58579C9.11622 4 9.62493 4.21071 10 4.58579L11.4142 6L19 6C20.6569 6 22 7.34315 22 9V17C22 18.6569 20.6569 20 19 20H5C3.34315 20 2 18.6569 2 17V7ZM5 6C4.44772 6 4 6.44772 4 7V17C4 17.5523 4.44772 18 5 18H19C19.5523 18 20 17.5523 20 17V9C20 8.44772 19.5523 8 19 8H11.4142C10.8838 8 10.3751 7.78929 10 7.41421L8.58579 6H5Z" fill="black"/>
<path fill-rule="evenodd" clip-rule="evenodd" d="M13 17V12.9142L14.2929 14.2071L15.7071 12.7929L12 9.08579L8.29289 12.7929L9.70711 14.2071L11 12.9142V17H13Z" fill="black"/>
</svg>
