<svg width="24" height="24" viewBox="0 0 24 24" fill="none" xmlns="http://www.w3.org/2000/svg">
<path d="M9 14C9.55228 14 10 13.5523 10 13C10 12.4477 9.55228 12 9 12C8.44772 12 8 12.4477 8 13C8 13.5523 8.44772 14 9 14Z" fill="black"/>
<path fill-rule="evenodd" clip-rule="evenodd" d="M4 5C4 3.34315 5.34315 2 7 2H13.4142L20 8.58579V20C20 21.6569 18.6569 23 17 23H7C5.34315 23 4 21.6569 4 20V5ZM7 4C6.44772 4 6 4.44772 6 5V20C6 20.1695 6.0422 20.3292 6.11666 20.4692L11 15.5858L12 16.5858L16 12.5858L18 14.5858V11H11V4H7ZM17 21H8.41424L11 18.4142L12 19.4142L16 15.4142L18 17.4142V20C18 20.5523 17.5523 21 17 21ZM13 4.41421V9H17.5858L13 4.41421Z" fill="black"/>
</svg>
