<svg width="24" height="24" viewBox="0 0 24 24" fill="none" xmlns="http://www.w3.org/2000/svg">
<path fill-rule="evenodd" clip-rule="evenodd" d="M5 4C3.34315 4 2 5.34315 2 7V17C2 18.6569 3.34315 20 5 20H19C20.6569 20 22 18.6569 22 17V9C22 7.34315 20.6569 6 19 6H15.4142L14 4.58579C13.6249 4.21071 13.1162 4 12.5858 4H5ZM5 6C4.44772 6 4 6.44772 4 7V17C4 17.5523 4.44772 18 5 18H19C19.5523 18 20 17.5523 20 17V9C20 8.44772 19.5523 8 19 8H11.4142C10.8838 8 10.3751 7.78929 10 7.41421L8.58579 6H5Z" fill="black"/>
</svg>
