<svg width="24" height="24" viewBox="0 0 24 24" fill="none" xmlns="http://www.w3.org/2000/svg">
<path d="M12.1805 9.37827C12.1081 9.22645 11.8919 9.22645 11.8195 9.37827L10.8947 11.3164C10.8655 11.3775 10.8074 11.4197 10.7403 11.4285L8.61131 11.7092C8.44453 11.7311 8.37775 11.9367 8.49975 12.0525L10.0572 13.5309C10.1063 13.5775 10.1285 13.6458 10.1162 13.7124L9.72517 15.8239C9.69454 15.9894 9.86938 16.1164 10.0172 16.0361L11.9046 15.0118C11.9641 14.9795 12.0359 14.9795 12.0954 15.0118L13.9828 16.0361C14.1306 16.1164 14.3055 15.9894 14.2748 15.8239L13.8838 13.7124C13.8715 13.6458 13.8937 13.5775 13.9428 13.5309L15.5002 12.0525C15.6223 11.9367 15.5555 11.7311 15.3887 11.7092L13.2597 11.4285C13.1926 11.4197 13.1345 11.3775 13.1053 11.3164L12.1805 9.37827Z" fill="black"/>
<path fill-rule="evenodd" clip-rule="evenodd" d="M5 4C3.34315 4 2 5.34315 2 7V17C2 18.6569 3.34315 20 5 20H19C20.6569 20 22 18.6569 22 17V9C22 7.34315 20.6569 6 19 6L11.4142 6L10 4.58579C9.62493 4.21071 9.11622 4 8.58579 4H5ZM4 7C4 6.44772 4.44772 6 5 6H8.58579L10 7.41421C10.3751 7.78929 10.8838 8 11.4142 8H19C19.5523 8 20 8.44772 20 9V17C20 17.5523 19.5523 18 19 18H5C4.44772 18 4 17.5523 4 17V7Z" fill="black"/>
</svg>
