<svg width="24" height="24" viewBox="0 0 24 24" fill="none" xmlns="http://www.w3.org/2000/svg">
<path fill-rule="evenodd" clip-rule="evenodd" d="M7 4C6.44772 4 6 4.44772 6 5V20C6 20.5523 6.44772 21 7 21H17C17.5523 21 18 20.5523 18 20V11H11V4H7ZM13 4.41421V9H17.5858L13 4.41421ZM4 5C4 3.34315 5.34315 2 7 2H13.4142L20 8.58579V20C20 21.6569 18.6569 23 17 23H7C5.34315 23 4 21.6569 4 20V5Z" fill="black"/>
<path d="M11.8195 12.3783C11.8919 12.2264 12.1081 12.2264 12.1805 12.3783L13.1053 14.3164C13.1345 14.3775 13.1926 14.4197 13.2597 14.4285L15.3887 14.7092C15.5555 14.7311 15.6223 14.9367 15.5002 15.0525L13.9428 16.5309C13.8937 16.5776 13.8715 16.6458 13.8838 16.7124L14.2748 18.8239C14.3055 18.9894 14.1306 19.1164 13.9828 19.0361L12.0954 18.0118C12.0359 17.9795 11.9641 17.9795 11.9046 18.0118L10.0172 19.0361C9.86938 19.1164 9.69454 18.9894 9.72517 18.8239L10.1162 16.7124C10.1285 16.6458 10.1063 16.5776 10.0572 16.5309L8.49975 15.0525C8.37775 14.9367 8.44453 14.7311 8.61131 14.7092L10.7403 14.4285C10.8074 14.4197 10.8655 14.3775 10.8947 14.3164L11.8195 12.3783Z" fill="black"/>
</svg>
