<svg width="24" height="24" viewBox="0 0 24 24" fill="none" xmlns="http://www.w3.org/2000/svg">
<path fill-rule="evenodd" clip-rule="evenodd" d="M12 20C14.2091 20 16 18.2091 16 16C16 13.7909 14.2091 12 12 12C9.79086 12 8 13.7909 8 16C8 18.2091 9.79086 20 12 20ZM14.2171 17.1564C14.3978 16.8106 14.5 16.4172 14.5 16C14.5 14.6193 13.3807 13.5 12 13.5C11.5828 13.5 11.1894 13.6022 10.8436 13.7829L14.2171 17.1564ZM13.1564 18.2171C12.8106 18.3978 12.4172 18.5 12 18.5C10.6193 18.5 9.5 17.3807 9.5 16C9.5 15.5828 9.60221 15.1894 9.78295 14.8436L13.1564 18.2171Z" fill="black"/>
<path fill-rule="evenodd" clip-rule="evenodd" d="M4 5C4 3.34315 5.34315 2 7 2H13.4142L20 8.58579V20C20 21.6569 18.6569 23 17 23H7C5.34315 23 4 21.6569 4 20V5ZM7 4C6.44772 4 6 4.44772 6 5V20C6 20.5523 6.44772 21 7 21H17C17.5523 21 18 20.5523 18 20V11H11V4H7ZM13 4.41421V9H17.5858L13 4.41421Z" fill="black"/>
</svg>
