<svg width="24" height="24" viewBox="0 0 24 24" fill="none" xmlns="http://www.w3.org/2000/svg">
<path fill-rule="evenodd" clip-rule="evenodd" d="M2.41419 3.41421L1 4.8284L4.00003 7.82843V20C4.00003 21.6569 5.34317 23 7.00003 23H17C17.6167 23 18.1899 22.814 18.6665 22.4949L19.9706 23.799L21.3848 22.3848L2.41419 3.41421ZM17 21C17.0541 21 17.1072 20.9957 17.159 20.9874L6.00003 9.82843V20C6.00003 20.5523 6.44774 21 7.00003 21H17Z" fill="black"/>
<path fill-rule="evenodd" clip-rule="evenodd" d="M20 18.1716V8.58579L13.4142 2H7.00003C6.12794 2 5.34277 2.37211 4.79462 2.96622L6.2123 4.3839C6.39535 4.15019 6.68015 4 7.00003 4H11V9.17163L12.8284 11H18V16.1716L20 18.1716ZM13 4.41421V9H17.5858L13 4.41421Z" fill="black"/>
</svg>
