<svg width="24" height="24" viewBox="0 0 24 24" fill="none" xmlns="http://www.w3.org/2000/svg">
<path d="M7.5 12.375H16.125V10.5H7.5V12.375ZM10.875 17.625H16.125V15.75H10.875V17.625ZM17.4999 1.44631L15.5582 0.721436L13.6825 1.42197L11.8071 0.721436L9.93184 1.42197L8.05669 0.721436L6.1194 1.44631L3.375 0.819011V22.2219L6.18458 23.2728L8.05811 22.5722L9.93236 23.2728L11.8071 22.5722L13.6819 23.2728L15.5569 22.5722L17.4347 23.2728L20.25 22.222V0.819011L17.4999 1.44631ZM18.375 20.9208L17.4347 21.2711L15.5582 20.5706L13.6824 21.2711L11.807 20.5706L9.9318 21.2711L8.05665 20.5706L6.18454 21.2711L5.25 20.9208V3.17041L6.24975 3.39931L8.05811 2.72311L9.93236 3.42365L11.8071 2.72311L13.6819 3.42365L15.5569 2.72311L17.3695 3.39931L18.375 3.17041V20.9208ZM7.5 8.99997H16.125V7.12497H7.5V8.99997Z" fill="black"/>
</svg>
