<svg width="24" height="24" viewBox="0 0 24 24" fill="none" xmlns="http://www.w3.org/2000/svg">
<path d="M5.78033 5.46967C6.07322 5.76256 6.07322 6.23744 5.78033 6.53033C5.48743 6.82322 5.01256 6.82322 4.71967 6.53033C4.42678 6.23743 4.42678 5.76256 4.71967 5.46967C5.01256 5.17678 5.48744 5.17678 5.78033 5.46967" stroke="black" stroke-width="2" stroke-linecap="round" stroke-linejoin="round"/>
<path d="M12.5303 5.46967C12.8232 5.76256 12.8232 6.23744 12.5303 6.53033C12.2374 6.82322 11.7626 6.82322 11.4697 6.53033C11.1768 6.23743 11.1768 5.76256 11.4697 5.46967C11.7626 5.17678 12.2374 5.17678 12.5303 5.46967" stroke="black" stroke-width="2" stroke-linecap="round" stroke-linejoin="round"/>
<path d="M19.2803 5.46967C19.5732 5.76256 19.5732 6.23744 19.2803 6.53033C18.9874 6.82322 18.5126 6.82322 18.2197 6.53033C17.9268 6.23743 17.9268 5.76256 18.2197 5.46967C18.5126 5.17678 18.9874 5.17678 19.2803 5.46967" stroke="black" stroke-width="2" stroke-linecap="round" stroke-linejoin="round"/>
<path d="M5.78033 11.4697C6.07322 11.7626 6.07322 12.2374 5.78033 12.5303C5.48743 12.8232 5.01256 12.8232 4.71967 12.5303C4.42678 12.2374 4.42678 11.7626 4.71967 11.4697C5.01256 11.1768 5.48744 11.1768 5.78033 11.4697Z" stroke="black" stroke-width="2" stroke-linecap="round" stroke-linejoin="round"/>
<path d="M12.5303 11.4697C12.8232 11.7626 12.8232 12.2374 12.5303 12.5303C12.2374 12.8232 11.7626 12.8232 11.4697 12.5303C11.1768 12.2374 11.1768 11.7626 11.4697 11.4697C11.7626 11.1768 12.2374 11.1768 12.5303 11.4697Z" stroke="black" stroke-width="2" stroke-linecap="round" stroke-linejoin="round"/>
<path d="M19.2803 11.4697C19.5732 11.7626 19.5732 12.2374 19.2803 12.5303C18.9874 12.8232 18.5126 12.8232 18.2197 12.5303C17.9268 12.2374 17.9268 11.7626 18.2197 11.4697C18.5126 11.1768 18.9874 11.1768 19.2803 11.4697Z" stroke="black" stroke-width="2" stroke-linecap="round" stroke-linejoin="round"/>
<path d="M5.78033 17.4697C6.07322 17.7626 6.07322 18.2374 5.78033 18.5303C5.48743 18.8232 5.01256 18.8232 4.71967 18.5303C4.42678 18.2374 4.42678 17.7626 4.71967 17.4697C5.01256 17.1768 5.48744 17.1768 5.78033 17.4697Z" stroke="black" stroke-width="2" stroke-linecap="round" stroke-linejoin="round"/>
<path d="M12.5303 17.4697C12.8232 17.7626 12.8232 18.2374 12.5303 18.5303C12.2374 18.8232 11.7626 18.8232 11.4697 18.5303C11.1768 18.2374 11.1768 17.7626 11.4697 17.4697C11.7626 17.1768 12.2374 17.1768 12.5303 17.4697Z" stroke="black" stroke-width="2" stroke-linecap="round" stroke-linejoin="round"/>
<path d="M19.2803 17.4697C19.5732 17.7626 19.5732 18.2374 19.2803 18.5303C18.9874 18.8232 18.5126 18.8232 18.2197 18.5303C17.9268 18.2374 17.9268 17.7626 18.2197 17.4697C18.5126 17.1768 18.9874 17.1768 19.2803 17.4697Z" stroke="black" stroke-width="2" stroke-linecap="round" stroke-linejoin="round"/>
</svg>
