<svg width="24" height="24" viewBox="0 0 24 24" fill="none" xmlns="http://www.w3.org/2000/svg">
<path fill-rule="evenodd" clip-rule="evenodd" d="M11.9996 1.71948L20.6337 8.62671L23.1428 10.7344L21.8564 12.2658L20.9996 11.5461V19.0001C20.9996 20.657 19.6565 22.0001 17.9996 22.0001H5.99964C4.34278 22.0001 2.99964 20.657 2.99964 19.0001V11.5461L2.14283 12.2658L0.856445 10.7344L3.3656 8.62671L11.9996 1.71948ZM4.99964 9.88073V19.0001C4.99964 19.5524 5.44735 20.0001 5.99964 20.0001H7.99964V12.0001H15.9996V20.0001H17.9996C18.5519 20.0001 18.9996 19.5524 18.9996 19.0001V9.88073L11.9996 4.28073L4.99964 9.88073ZM13.9996 20.0001V14.0001H9.99964V20.0001H13.9996Z" fill="black"/>
</svg>
