<svg width="19" height="20" viewBox="0 0 19 20" fill="none" xmlns="http://www.w3.org/2000/svg">
<path d="M18.8109 10.2278C18.8109 9.58618 18.7488 8.92388 18.6453 8.30298H9.68359V11.9663H14.8164C14.6094 13.146 13.9264 14.1809 12.9123 14.8432L15.9754 17.2233C17.776 15.5468 18.8109 13.1046 18.8109 10.2278Z" fill="#4280EF"/>
<path d="M9.68368 19.5001C12.2501 19.5001 14.4025 18.6515 15.9755 17.2028L12.9124 14.8433C12.0638 15.4228 10.9669 15.754 9.68368 15.754C7.20006 15.754 5.10969 14.0775 4.34391 11.8423L1.198 14.2638C2.81235 17.4718 6.08244 19.5001 9.68368 19.5001Z" fill="#34A353"/>
<path d="M4.34384 11.8214C3.9506 10.6417 3.9506 9.35851 4.34384 8.17879L1.19793 5.73657C-0.147358 8.42715 -0.147358 11.5938 1.19793 14.2636L4.34384 11.8214Z" fill="#F6B704"/>
<path d="M9.68368 4.26717C11.029 4.24648 12.3536 4.7639 13.3263 5.69525L16.0376 2.96328C14.3198 1.34893 12.0431 0.479664 9.68368 0.500361C6.08244 0.500361 2.81235 2.52865 1.198 5.73665L4.34391 8.17886C5.10969 5.92292 7.20006 4.26717 9.68368 4.26717Z" fill="#E54335"/>
</svg>
