<svg width="24" height="24" viewBox="0 0 24 24" fill="none" xmlns="http://www.w3.org/2000/svg">
<path d="M20.6342 8.62647L12.0001 1.71924L3.36609 8.62647L0.856934 10.7342L2.14332 12.2656L3.00013 11.5458V18.9999C3.00013 20.6567 4.34327 21.9999 6.00013 21.9999V19.9999C5.44784 19.9999 5.00013 19.5521 5.00013 18.9999V9.88049L12.0001 4.28049L19.0001 9.88049V18.9999C19.0001 19.5521 18.5524 19.9999 18.0001 19.9999V21.9999C19.657 21.9999 21.0001 20.6567 21.0001 18.9999V11.5459L21.8569 12.2656L23.1433 10.7342L20.6342 8.62647Z" fill="black"/>
<path fill-rule="evenodd" clip-rule="evenodd" d="M12.0001 19.9999C14.7615 19.9999 17.0001 17.7613 17.0001 14.9999C17.0001 12.2385 14.7615 9.99988 12.0001 9.99988C9.2387 9.99988 7.00013 12.2385 7.00013 14.9999C7.00013 17.7613 9.2387 19.9999 12.0001 19.9999ZM12.0001 18.1249C12.5217 18.1249 13.0134 17.9971 13.4456 17.7712L9.22881 13.5544C9.00288 13.9867 8.87513 14.4783 8.87513 14.9999C8.87513 16.7258 10.2742 18.1249 12.0001 18.1249ZM10.5546 12.2286L14.7714 16.4454C14.9974 16.0131 15.1251 15.5214 15.1251 14.9999C15.1251 13.274 13.726 11.8749 12.0001 11.8749C11.4786 11.8749 10.9869 12.0026 10.5546 12.2286Z" fill="black"/>
</svg>
