<svg width="24" height="24" viewBox="0 0 24 24" fill="none" xmlns="http://www.w3.org/2000/svg">
<path fill-rule="evenodd" clip-rule="evenodd" d="M2.41431 1.41431L1.0001 2.82852L5.27286 7.10128L3.36609 8.62669L0.856934 10.7344L2.14332 12.2658L3.00013 11.5461V19.0001C3.00013 20.6569 4.34327 22.0001 6.00013 22.0001H18.0001C18.6168 22.0001 19.1899 21.8141 19.6666 21.495L21.9707 23.7991L23.3849 22.3849L2.41431 1.41431ZM5.00013 9.88072L6.69577 8.5242L10.1717 12.0001H8.00013V20.0001H6.00013C5.44784 20.0001 5.00013 19.5524 5.00013 19.0001V9.88072ZM14.0001 15.8286L12.1717 14.0001H10.0001V20.0001H14.0001V15.8286ZM18.1591 19.9875L16.0001 17.8286V20.0001H18.0001C18.0542 20.0001 18.1073 19.9958 18.1591 19.9875Z" fill="black"/>
<path d="M8.41554 4.58714L9.83845 6.01005L12.0001 4.28072L19.0001 9.88072V15.1717L21.0001 17.1717V11.5461L21.8569 12.2658L23.1433 10.7344L20.6342 8.62669L12.0001 1.71947L8.41554 4.58714Z" fill="black"/>
</svg>
