<svg width="24" height="24" viewBox="0 0 24 24" fill="none" xmlns="http://www.w3.org/2000/svg">
<path fill-rule="evenodd" clip-rule="evenodd" d="M12.0001 1.71948L20.6342 8.62671L23.1433 10.7344L21.8569 12.2658L21.0001 11.5461V19.0001C21.0001 20.657 19.657 22.0001 18.0001 22.0001H6.00013C4.34327 22.0001 3.00013 20.657 3.00013 19.0001V11.5461L2.14332 12.2658L0.856934 10.7344L3.36609 8.62671L12.0001 1.71948ZM5.00013 9.88073V19.0001C5.00013 19.5524 5.44784 20.0001 6.00013 20.0001H8.00013V12.0001H16.0001V20.0001H18.0001C18.5524 20.0001 19.0001 19.5524 19.0001 19.0001V9.88073L12.0001 4.28073L5.00013 9.88073ZM14.0001 20.0001V14.0001H10.0001V20.0001H14.0001Z" fill="black"/>
</svg>
