<svg width="24" height="24" viewBox="0 0 24 24" fill="none" xmlns="http://www.w3.org/2000/svg">
<path fill-rule="evenodd" clip-rule="evenodd" d="M12 21C14.2948 21 16.389 20.1411 17.9787 18.7273L17.9241 18.6887C16.4897 17.6846 14.4014 17 12 17C9.5986 17 7.51034 17.6846 6.07586 18.6887C6.05753 18.7015 6.03933 18.7144 6.02127 18.7273C7.61097 20.1411 9.70518 21 12 21ZM12 15C14.892 15 17.4972 15.8593 19.323 17.2331C20.3787 15.7585 21 13.9518 21 12C21 7.02944 16.9706 3 12 3C7.02944 3 3 7.02944 3 12C3 13.9518 3.62132 15.7585 4.67696 17.2331C6.50279 15.8593 9.10803 15 12 15ZM12 23C18.0751 23 23 18.0751 23 12C23 5.92487 18.0751 1 12 1C5.92487 1 1 5.92487 1 12C1 18.0751 5.92487 23 12 23ZM14 9C14 9.79685 13.7056 10.6192 13.2454 11.2152C12.7797 11.8184 12.3112 12 12 12C11.6888 12 11.2203 11.8184 10.7546 11.2152C10.2944 10.6192 10 9.79685 10 9C10 7.89543 10.8954 7 12 7C13.1046 7 14 7.89543 14 9ZM16 9C16 11.5 14.2091 14 12 14C9.79086 14 8 11.5 8 9C8 6.79086 9.79086 5 12 5C14.2091 5 16 6.79086 16 9Z" fill="black"/>
</svg>
