<svg width="24" height="24" viewBox="0 0 24 24" fill="none" xmlns="http://www.w3.org/2000/svg">
<path d="M20.6342 8.62647L12.0001 1.71924L3.36609 8.62647L0.856934 10.7342L2.14332 12.2656L3.00013 11.5458V18.9999C3.00013 20.6567 4.34327 21.9999 6.00013 21.9999V19.9999C5.44784 19.9999 5.00013 19.5521 5.00013 18.9999V9.88049L12.0001 4.28049L19.0001 9.88049V18.9999C19.0001 19.5521 18.5524 19.9999 18.0001 19.9999V21.9999C19.657 21.9999 21.0001 20.6567 21.0001 18.9999V11.5459L21.8569 12.2656L23.1433 10.7342L20.6342 8.62647Z" fill="black"/>
<path fill-rule="evenodd" clip-rule="evenodd" d="M16.0001 10.9999V22.9999L12.0001 19.9999L8.00013 22.9999V10.9999H16.0001ZM12.0001 17.4999L10.0001 18.9999V12.9999H14.0001V18.9999L12.0001 17.4999Z" fill="black"/>
</svg>
