<svg width="24" height="24" viewBox="0 0 24 24" fill="none" xmlns="http://www.w3.org/2000/svg">
<path fill-rule="evenodd" clip-rule="evenodd" d="M12.0001 4.71948L20.6342 11.6267L23.1433 13.7344L21.8569 15.2658L21.0001 14.5461V19.0001C21.0001 20.657 19.657 22.0001 18.0001 22.0001H6.00013C4.34327 22.0001 3.00013 20.657 3.00013 19.0001V14.5461L2.14332 15.2658L0.856934 13.7344L3.36609 11.6267L12.0001 4.71948ZM5.00013 12.8807V19.0001C5.00013 19.5524 5.44784 20.0001 6.00013 20.0001H8.00013V17.0001C8.00013 14.791 9.79099 13.0001 12.0001 13.0001C14.2093 13.0001 16.0001 14.791 16.0001 17.0001V20.0001H18.0001C18.5524 20.0001 19.0001 19.5524 19.0001 19.0001V12.8807L12.0001 7.28073L5.00013 12.8807ZM14.0001 20.0001V17.0001C14.0001 15.8955 13.1047 15.0001 12.0001 15.0001C10.8956 15.0001 10.0001 15.8955 10.0001 17.0001V20.0001H14.0001Z" fill="black"/>
</svg>
