<svg width="24" height="24" viewBox="0 0 24 24" fill="none" xmlns="http://www.w3.org/2000/svg">
<path fill-rule="evenodd" clip-rule="evenodd" d="M13.1658 1.39217C13.5509 0.942839 14.2187 0.869533 14.6921 1.22462C17.1085 3.03688 17.9071 6.25771 16.7097 8.95551H17.8868C20.6553 8.95551 22.7548 11.4517 22.2804 14.1793L21.5108 18.6045C21.1237 20.8305 19.1917 22.4555 16.9323 22.4555H8.04987L5.29851 22.7307C3.53245 22.9073 2 21.5204 2 19.7455V10.9555C2 9.29866 3.34315 7.95551 5 7.95551H7.54007L13.1658 1.39217ZM7 9.95551H5C4.44772 9.95551 4 10.4032 4 10.9555V19.7455C4 20.3372 4.51082 20.7994 5.0995 20.7406L7 20.5505V9.95551ZM9 20.4555H16.9323C18.2193 20.4555 19.3199 19.5298 19.5404 18.2618L20.31 13.8366C20.5716 12.3322 19.4137 10.9555 17.8868 10.9555H15.7907C14.6654 10.9555 13.9704 9.72792 14.5493 8.76301L14.6293 8.62972C15.6503 6.92807 15.3984 4.79112 14.1002 3.37519L9 9.32544V20.4555Z" fill="black"/>
</svg>
