<svg width="24" height="24" viewBox="0 0 24 24" fill="none" xmlns="http://www.w3.org/2000/svg">
<path fill-rule="evenodd" clip-rule="evenodd" d="M11.728 8.07109L10.3138 6.65691C8.75166 5.09483 6.21902 5.09483 4.65692 6.65692C3.09483 8.21902 3.09483 10.7517 4.65691 12.3138L11.7279 19.3848L18.799 12.3138C20.3611 10.7517 20.3611 8.21902 18.799 6.65692C17.2369 5.09483 14.7043 5.09483 13.1422 6.65691L11.728 8.07109ZM11.7279 22.2133L3.24268 13.728C0.899565 11.3848 0.899574 7.58585 3.24271 5.24271C5.58572 2.8997 9.3844 2.89957 11.7276 5.24229C14.0708 2.89963 17.8702 2.89973 20.2132 5.24271C22.5564 7.58586 22.5564 11.3848 20.2132 13.728L11.7279 22.2133Z" fill="black"/>
</svg>
