<svg width="24" height="24" viewBox="0 0 24 24" fill="none" xmlns="http://www.w3.org/2000/svg">
<path fill-rule="evenodd" clip-rule="evenodd" d="M15.0879 5.83797C15.0303 5.56774 15 5.28741 15 5C15 2.79086 16.7909 1 19 1C21.2091 1 23 2.79086 23 5C23 7.20914 21.2091 9 19 9C17.7961 9 16.7163 8.4681 15.983 7.62647L8.91207 11.162C8.96968 11.4322 9 11.7126 9 12C9 12.2874 8.96968 12.5678 8.91208 12.838L15.9831 16.3735C16.7164 15.5319 17.7961 15 19 15C21.2091 15 23 16.7909 23 19C23 21.2091 21.2091 23 19 23C16.7909 23 15 21.2091 15 19C15 18.7126 15.0303 18.4322 15.0879 18.162L8.01694 14.6265C7.28363 15.4681 6.20393 16 5 16C2.79086 16 1 14.2091 1 12C1 9.79086 2.79086 8 5 8C6.20392 8 7.28361 8.53187 8.01692 9.37346L15.0879 5.83797ZM21 5C21 6.10457 20.1046 7 19 7C18.5927 7 18.2138 6.87823 17.8978 6.66911C17.8924 6.66558 17.8871 6.66202 17.8818 6.65843C17.3498 6.29902 17 5.69036 17 5C17 4.95976 17.0012 4.91981 17.0035 4.88016C17.0655 3.83138 17.9357 3 19 3C20.1046 3 21 3.89543 21 5ZM6.11822 10.3416C5.79902 10.1259 5.41421 10 5 10C3.89543 10 3 10.8954 3 12C3 13.1046 3.89543 14 5 14C5.40731 14 5.78617 13.8782 6.10219 13.6691C6.64318 13.3112 7 12.6973 7 12C7 11.3096 6.65022 10.701 6.11822 10.3416ZM17.8818 17.3416C17.3498 17.701 17 18.3096 17 19C17 19.0402 17.0012 19.0802 17.0035 19.1198C17.0655 20.1686 17.9357 21 19 21C20.1046 21 21 20.1046 21 19C21 17.8954 20.1046 17 19 17C18.5858 17 18.201 17.1259 17.8818 17.3416Z" fill="black"/>
</svg>
