<svg width="24" height="24" viewBox="0 0 24 24" fill="none" xmlns="http://www.w3.org/2000/svg">
<mask id="path-1-inside-1_1723_29963" fill="white">
<path fill-rule="evenodd" clip-rule="evenodd" d="M2.41419 1.41431L1 2.82849L3.32935 5.15784C3.30026 5.18579 3.27139 5.21409 3.24274 5.24274C0.899603 7.58588 0.899594 11.3849 3.24271 13.728L11.728 22.2133L16.0564 17.8849L19.9706 21.7991L21.3848 20.3849L2.41419 1.41431ZM4.65695 6.65696C4.68564 6.62827 4.71465 6.60011 4.74398 6.57248L14.6422 16.4707L11.728 19.3849L4.65694 12.3138C3.09486 10.7517 3.09486 8.21905 4.65695 6.65696Z"/>
<path d="M18.8848 15.0565L20.2133 13.728C22.5564 11.3849 22.5564 7.58589 20.2133 5.24274C17.8703 2.89976 14.0716 2.8996 11.7285 5.24226C10.5139 4.0279 8.90735 3.44311 7.31607 3.48776L11.8137 7.98541L13.1422 6.65694C14.7043 5.09486 17.2369 5.09486 18.799 6.65696C20.3611 8.21905 20.3611 10.7517 18.799 12.3138L17.4706 13.6423L18.8848 15.0565Z"/>
</mask>
<path fill-rule="evenodd" clip-rule="evenodd" d="M2.41419 1.41431L1 2.82849L3.32935 5.15784C3.30026 5.18579 3.27139 5.21409 3.24274 5.24274C0.899603 7.58588 0.899594 11.3849 3.24271 13.728L11.728 22.2133L16.0564 17.8849L19.9706 21.7991L21.3848 20.3849L2.41419 1.41431ZM4.65695 6.65696C4.68564 6.62827 4.71465 6.60011 4.74398 6.57248L14.6422 16.4707L11.728 19.3849L4.65694 12.3138C3.09486 10.7517 3.09486 8.21905 4.65695 6.65696Z" fill="black"/>
<path d="M18.8848 15.0565L20.2133 13.728C22.5564 11.3849 22.5564 7.58589 20.2133 5.24274C17.8703 2.89976 14.0716 2.8996 11.7285 5.24226C10.5139 4.0279 8.90735 3.44311 7.31607 3.48776L11.8137 7.98541L13.1422 6.65694C14.7043 5.09486 17.2369 5.09486 18.799 6.65696C20.3611 8.21905 20.3611 10.7517 18.799 12.3138L17.4706 13.6423L18.8848 15.0565Z" fill="black"/>
<path d="M2.41419 1.41431L3.8284 9.31025e-05L2.41419 -1.41412L0.999973 9.23872e-05L2.41419 1.41431ZM1 2.82849L-0.414213 1.41428L-1.82843 2.82849L-0.414214 4.2427L1 2.82849ZM3.32935 5.15784L4.71525 6.59981L6.18609 5.18615L4.74356 3.74362L3.32935 5.15784ZM3.24274 5.24274L1.82853 3.82852L1.82853 3.82853L3.24274 5.24274ZM3.24271 13.728L1.82849 15.1422L1.8285 15.1422L3.24271 13.728ZM11.728 22.2133L10.3138 23.6275L11.728 25.0417L13.1422 23.6275L11.728 22.2133ZM16.0564 17.8849L17.4706 16.4707L16.0564 15.0565L14.6422 16.4707L16.0564 17.8849ZM19.9706 21.7991L18.5564 23.2133L19.9706 24.6275L21.3848 23.2133L19.9706 21.7991ZM21.3848 20.3849L22.799 21.7991L24.2132 20.3849L22.799 18.9707L21.3848 20.3849ZM18.8848 15.0565L17.4706 16.4707L18.8848 17.8849L20.299 16.4707L18.8848 15.0565ZM20.2133 13.728L18.799 12.3138L18.799 12.3138L20.2133 13.728ZM20.2133 5.24274L21.6275 3.82853V3.82853L20.2133 5.24274ZM11.7285 5.24226L10.3144 6.65661L11.7284 8.07039L13.1425 6.65663L11.7285 5.24226ZM7.31607 3.48776L7.25998 1.48855L2.61864 1.61876L5.90185 4.90197L7.31607 3.48776ZM11.8137 7.98541L10.3995 9.39962L11.8137 10.8138L13.2279 9.39963L11.8137 7.98541ZM13.1422 6.65694L14.5564 8.07116L14.5564 8.07116L13.1422 6.65694ZM18.799 6.65696L17.3848 8.07117L18.799 6.65696ZM18.799 12.3138L17.3848 10.8996L18.799 12.3138ZM17.4706 13.6423L16.0564 12.2281L14.6422 13.6423L16.0564 15.0565L17.4706 13.6423ZM4.74398 6.57248L6.1582 5.15826L4.78547 3.78554L3.37249 5.11679L4.74398 6.57248ZM14.6422 16.4707L16.0564 17.8849L17.4706 16.4707L16.0564 15.0565L14.6422 16.4707ZM11.728 19.3849L10.3138 20.7991L11.728 22.2133L13.1422 20.7991L11.728 19.3849ZM4.65694 12.3138L3.24271 13.728L3.24272 13.728L4.65694 12.3138ZM0.999973 9.23872e-05L-0.414213 1.41428L2.41421 4.24271L3.8284 2.82852L0.999973 9.23872e-05ZM-0.414214 4.2427L1.91513 6.57205L4.74356 3.74362L2.41421 1.41428L-0.414214 4.2427ZM1.94344 3.71587C1.90483 3.75297 1.86653 3.79053 1.82853 3.82852L4.65695 6.65696C4.67626 6.63765 4.69569 6.6186 4.71525 6.59981L1.94344 3.71587ZM1.82853 3.82853C-1.29566 6.95271 -1.29567 12.018 1.82849 15.1422L4.65694 12.3138C3.09486 10.7517 3.09486 8.21905 4.65695 6.65696L1.82853 3.82853ZM14.6422 19.2991L18.5564 23.2133L21.3848 20.3848L17.4706 16.4707L14.6422 19.2991ZM21.3848 23.2133L22.799 21.7991L19.9705 18.9707L18.5564 20.3848L21.3848 23.2133ZM22.799 18.9707L3.8284 9.31025e-05L0.999973 2.82852L19.9705 21.7991L22.799 18.9707ZM20.299 16.4707L21.6275 15.1422L18.799 12.3138L17.4706 13.6423L20.299 16.4707ZM21.6275 15.1422C24.7517 12.018 24.7517 6.95272 21.6275 3.82853L18.799 6.65696C20.3611 8.21905 20.3611 10.7517 18.799 12.3138L21.6275 15.1422ZM21.6275 3.82853C18.5035 0.70455 13.4386 0.704334 10.3144 3.82789L13.1425 6.65663C14.7046 5.09486 17.237 5.09497 18.799 6.65696L21.6275 3.82853ZM13.1425 3.82791C11.523 2.20866 9.37763 1.42913 7.25998 1.48855L7.37215 5.48697C8.43707 5.4571 9.50476 5.84715 10.3144 6.65661L13.1425 3.82791ZM5.90185 4.90197L10.3995 9.39962L13.2279 6.57119L8.73028 2.07354L5.90185 4.90197ZM13.2279 9.39963L14.5564 8.07116L11.728 5.24272L10.3995 6.57119L13.2279 9.39963ZM14.5564 8.07116C15.3375 7.29012 16.6038 7.29012 17.3848 8.07117L20.2133 5.24274C17.8701 2.89961 14.0711 2.8996 11.728 5.24272L14.5564 8.07116ZM17.3848 8.07117C18.1659 8.85222 18.1659 10.1185 17.3848 10.8996L20.2133 13.728C22.5564 11.3849 22.5564 7.58589 20.2133 5.24274L17.3848 8.07117ZM17.3848 10.8996L16.0564 12.2281L18.8848 15.0565L20.2133 13.728L17.3848 10.8996ZM16.0564 15.0565L17.4706 16.4707L20.299 13.6423L18.8848 12.2281L16.0564 15.0565ZM3.37249 5.11679C3.32871 5.15804 3.28546 5.20003 3.24274 5.24274L6.07117 8.07117C6.08582 8.05651 6.1006 8.04218 6.11547 8.02816L3.37249 5.11679ZM16.0564 15.0565L6.1582 5.15826L3.32977 7.98669L13.228 17.8849L16.0564 15.0565ZM13.1422 20.7991L16.0564 17.8849L13.228 15.0565L10.3138 17.9707L13.1422 20.7991ZM3.24272 13.728L10.3138 20.7991L13.1422 17.9707L6.07115 10.8996L3.24272 13.728ZM3.24274 5.24274C0.899603 7.58588 0.899594 11.3849 3.24271 13.728L6.07116 10.8996C5.29012 10.1185 5.29012 8.85222 6.07117 8.07117L3.24274 5.24274ZM1.8285 15.1422L10.3138 23.6275L13.1422 20.7991L4.65693 12.3138L1.8285 15.1422ZM13.1422 23.6275L17.4706 19.2991L14.6422 16.4707L10.3138 20.7991L13.1422 23.6275Z" fill="black" mask="url(#path-1-inside-1_1723_29963)"/>
</svg>
