<svg width="24" height="24" viewBox="0 0 24 24" fill="none" xmlns="http://www.w3.org/2000/svg">
<path fill-rule="evenodd" clip-rule="evenodd" d="M13.1658 22.3537C13.5509 22.803 14.2187 22.8763 14.6921 22.5212C17.1085 20.709 17.9071 17.4881 16.7097 14.7903H17.8868C20.6553 14.7903 22.7548 12.2941 22.2804 9.56658L21.5108 5.14132C21.1237 2.91533 19.1917 1.29032 16.9323 1.29032H8.04987L5.29851 1.01518C3.53245 0.838575 2 2.22543 2 4.00029V12.7903C2 14.4472 3.34315 15.7903 5 15.7903H7.54007L13.1658 22.3537ZM7 13.7903H5C4.44772 13.7903 4 13.3426 4 12.7903V4.00029C4 3.40867 4.51082 2.94639 5.0995 3.00525L7 3.1953V13.7903ZM9 3.29032H16.9323C18.2193 3.29032 19.3199 4.21599 19.5404 5.48401L20.31 9.90926C20.5716 11.4136 19.4137 12.7903 17.8868 12.7903H15.7907C14.6654 12.7903 13.9704 14.0179 14.5493 14.9828L14.6293 15.1161C15.6503 16.8178 15.3984 18.9547 14.1002 20.3706L9 14.4204V3.29032Z" fill="black"/>
</svg>
