<svg width="24" height="24" viewBox="0 0 24 24" fill="none" xmlns="http://www.w3.org/2000/svg">
<path d="M14.793 8.793L11.0001 12.5859L9.20721 10.793L7.793 12.2072L11.0001 15.4143L16.2072 10.2072L14.793 8.793Z" fill="black"/>
<path fill-rule="evenodd" clip-rule="evenodd" d="M13.2973 1.79174C12.5498 1.15471 11.4504 1.15471 10.7029 1.79174L8.5364 3.63799L5.69898 3.86441C4.71996 3.94254 3.94254 4.71996 3.86441 5.69898L3.63799 8.5364L1.79174 10.7029C1.15471 11.4504 1.15471 12.5498 1.79174 13.2973L3.63799 15.4638L3.86441 18.3012C3.94254 19.2802 4.71996 20.0577 5.69898 20.1358L8.5364 20.3622L10.7029 22.2085C11.4504 22.8455 12.5498 22.8455 13.2973 22.2085L15.4638 20.3622L18.3012 20.1358C19.2802 20.0577 20.0577 19.2802 20.1358 18.3012L20.3622 15.4638L22.2085 13.2973C22.8455 12.5498 22.8455 11.4504 22.2085 10.7029L20.3622 8.5364L20.1358 5.69898C20.0577 4.71996 19.2802 3.94254 18.3012 3.86441L15.4638 3.63799L13.2973 1.79174ZM9.83364 5.16021L12.0001 3.31396L14.1666 5.16021C14.4869 5.4332 14.8852 5.59817 15.3047 5.63165L18.1421 5.85808L18.3686 8.6955C18.402 9.11503 18.567 9.51331 18.84 9.83364L20.6862 12.0001L18.84 14.1666C18.567 14.4869 18.402 14.8852 18.3686 15.3047L18.1421 18.1421L15.3047 18.3686C14.8852 18.402 14.4869 18.567 14.1666 18.84L12.0001 20.6862L9.83364 18.84C9.51331 18.567 9.11503 18.402 8.6955 18.3686L5.85808 18.1421L5.63165 15.3047C5.59817 14.8852 5.4332 14.4869 5.16021 14.1666L3.31396 12.0001L5.16021 9.83364C5.4332 9.51331 5.59817 9.11503 5.63165 8.6955L5.85808 5.85808L8.6955 5.63165C9.11503 5.59817 9.51331 5.4332 9.83364 5.16021Z" fill="black"/>
</svg>
