<svg width="24" height="24" viewBox="0 0 24 24" fill="none" xmlns="http://www.w3.org/2000/svg">
<path fill-rule="evenodd" clip-rule="evenodd" d="M5 5C3.34315 5 2 6.34315 2 8V16C2 17.6569 3.34315 19 5 19H12V17H5C4.44772 17 4 16.5523 4 16V10.5388L12 14.0943L20 10.5388V14H22V8C22 6.34315 20.6569 5 19 5H5ZM12 11.9057L4 8.35013V8C4 7.44772 4.44772 7 5 7H19C19.5523 7 20 7.44772 20 8V8.35013L12 11.9057Z" fill="black"/>
<path d="M15 18C15.5523 18 16 17.5523 16 17C16 16.4477 15.5523 16 15 16C14.4477 16 14 16.4477 14 17C14 17.5523 14.4477 18 15 18Z" fill="black"/>
<path d="M19 17C19 17.5523 18.5523 18 18 18C17.4477 18 17 17.5523 17 17C17 16.4477 17.4477 16 18 16C18.5523 16 19 16.4477 19 17Z" fill="black"/>
<path d="M21 18C21.5523 18 22 17.5523 22 17C22 16.4477 21.5523 16 21 16C20.4477 16 20 16.4477 20 17C20 17.5523 20.4477 18 21 18Z" fill="black"/>
</svg>
