<svg width="24" height="24" viewBox="0 0 24 24" fill="none" xmlns="http://www.w3.org/2000/svg">
<path fill-rule="evenodd" clip-rule="evenodd" d="M5 5C3.34315 5 2 6.34315 2 8V16C2 17.6569 3.34315 19 5 19H15V17H5C4.44772 17 4 16.5523 4 16V10.5388L12 14.0943L20 10.5388V12H22V8C22 6.34315 20.6569 5 19 5H5ZM12 11.9057L4 8.35013V8C4 7.44772 4.44772 7 5 7H19C19.5523 7 20 7.44772 20 8V8.35013L12 11.9057Z" fill="black"/>
<path d="M23 16L20 13V15H19C17.3431 15 16 16.3431 16 18V21H18V18C18 17.4477 18.4477 17 19 17H20V19L23 16Z" fill="black"/>
</svg>
