<svg width="24" height="24" viewBox="0 0 24 24" fill="none" xmlns="http://www.w3.org/2000/svg">
<path fill-rule="evenodd" clip-rule="evenodd" d="M5 5C3.34315 5 2 6.34315 2 8V16C2 17.6569 3.34315 19 5 19H15V17H5C4.44772 17 4 16.5523 4 16V10.5388L12 14.0943L20 10.5388V13H22V8C22 6.34315 20.6569 5 19 5H5ZM12 11.9057L4 8.35013V8C4 7.44772 4.44772 7 5 7H19C19.5523 7 20 7.44772 20 8V8.35013L12 11.9057Z" fill="black"/>
<path d="M17.2927 18.2927L18.5855 17L17.2927 15.7073L18.7069 14.2931L19.9997 15.5858L21.2927 14.2927L22.7069 15.7069L21.4139 17L22.707 18.293L21.2928 19.7072L19.9997 18.4142L18.7069 19.7069L17.2927 18.2927Z" fill="black"/>
</svg>
