<svg width="24" height="24" viewBox="0 0 24 24" fill="none" xmlns="http://www.w3.org/2000/svg">
<path fill-rule="evenodd" clip-rule="evenodd" d="M12 2.90576L20.2184 6.55839C21.3018 7.0399 22 8.11426 22 9.29983V18.0001C22 19.6569 20.6569 21.0001 19 21.0001H5C3.34315 21.0001 2 19.6569 2 18.0001V9.29983C2 8.11426 2.6982 7.03989 3.78159 6.55839L12 2.90576ZM12 5.0944L4.59386 8.38601C4.23273 8.54651 4 8.90464 4 9.29983V10.3502L12 13.9058L20 10.3502V9.29983C20 8.90464 19.7673 8.54651 19.4061 8.38601L12 5.0944ZM20 12.5388L12 16.0944L4 12.5388V18.0001C4 18.5524 4.44772 19.0001 5 19.0001H19C19.5523 19.0001 20 18.5524 20 18.0001V12.5388Z" fill="black"/>
</svg>
