<svg width="24" height="24" viewBox="0 0 24 24" fill="none" xmlns="http://www.w3.org/2000/svg">
<path fill-rule="evenodd" clip-rule="evenodd" d="M7 9C7 7.89543 7.89543 7 9 7H15C16.1046 7 17 7.89543 17 9V15C17 16.1046 16.1046 17 15 17H9C7.89543 17 7 16.1046 7 15V9ZM9 9H15V15H9V9Z" fill="black"/>
<path fill-rule="evenodd" clip-rule="evenodd" d="M5.07037 1C2.82237 1 1 2.82237 1 5.07037C1 5.87396 1.23786 6.65957 1.68362 7.3282L2.16795 8.0547C2.54957 8.62713 2.54957 9.37287 2.16795 9.9453C1.33847 11.1895 1.33847 12.8105 2.16795 14.0547C2.54957 14.6271 2.54957 15.3729 2.16795 15.9453L1.68362 16.6718C1.23786 17.3404 1 18.126 1 18.9296C1 21.1776 2.82237 23 5.07037 23C5.87396 23 6.65957 22.7621 7.3282 22.3164L8.0547 21.8321C8.62713 21.4504 9.37287 21.4504 9.9453 21.8321C11.1895 22.6615 12.8105 22.6615 14.0547 21.8321C14.6271 21.4504 15.3729 21.4504 15.9453 21.8321L16.6718 22.3164C17.3404 22.7621 18.126 23 18.9296 23C21.1776 23 23 21.1776 23 18.9296C23 18.126 22.7621 17.3404 22.3164 16.6718L21.8321 15.9453C21.4504 15.3729 21.4504 14.6271 21.8321 14.0547C22.6615 12.8105 22.6615 11.1895 21.8321 9.9453C21.4504 9.37287 21.4504 8.62713 21.8321 8.0547L22.3164 7.3282C22.7621 6.65957 23 5.87396 23 5.07037C23 2.82237 21.1776 1 18.9296 1C18.126 1 17.3404 1.23786 16.6718 1.68362L15.9453 2.16795C15.3729 2.54957 14.6271 2.54957 14.0547 2.16795C12.8105 1.33847 11.1895 1.33847 9.9453 2.16795C9.37287 2.54957 8.62713 2.54957 8.0547 2.16795L7.3282 1.68362C6.65957 1.23786 5.87396 1 5.07037 1ZM3 5.07037C3 3.92694 3.92694 3 5.07037 3C5.47911 3 5.87871 3.12099 6.2188 3.34772L6.9453 3.83205C8.18953 4.66153 9.81047 4.66153 11.0547 3.83205C11.6271 3.45043 12.3729 3.45043 12.9453 3.83205C14.1895 4.66153 15.8105 4.66153 17.0547 3.83205L17.7812 3.34772C18.1213 3.12099 18.5209 3 18.9296 3C20.0731 3 21 3.92694 21 5.07037C21 5.47911 20.879 5.87871 20.6523 6.2188L20.1679 6.9453C19.3385 8.18953 19.3385 9.81047 20.1679 11.0547C20.5496 11.6271 20.5496 12.3729 20.1679 12.9453C19.3385 14.1895 19.3385 15.8105 20.1679 17.0547L20.6523 17.7812C20.879 18.1213 21 18.5209 21 18.9296C21 20.0731 20.0731 21 18.9296 21C18.5209 21 18.1213 20.879 17.7812 20.6523L17.0547 20.1679C15.8105 19.3385 14.1895 19.3385 12.9453 20.1679C12.3729 20.5496 11.6271 20.5496 11.0547 20.1679C9.81047 19.3385 8.18953 19.3385 6.9453 20.1679L6.2188 20.6523C5.87871 20.879 5.47911 21 5.07037 21C3.92694 21 3 20.0731 3 18.9296C3 18.5209 3.12099 18.1213 3.34772 17.7812L3.83205 17.0547C4.66153 15.8105 4.66153 14.1895 3.83205 12.9453C3.45043 12.3729 3.45043 11.6271 3.83205 11.0547C4.66153 9.81047 4.66153 8.18953 3.83205 6.9453L3.34772 6.2188C3.12099 5.87871 3 5.47911 3 5.07037Z" fill="black"/>
</svg>
