<svg width="24" height="24" viewBox="0 0 24 24" fill="none" xmlns="http://www.w3.org/2000/svg">
<path fill-rule="evenodd" clip-rule="evenodd" d="M12 2C9.23858 2 7 4.23858 7 7C7 9.41896 8.71776 11.4367 11 11.9V19H13V11.9C15.2822 11.4367 17 9.41896 17 7C17 4.23858 14.7614 2 12 2ZM9 7C9 5.34315 10.3431 4 12 4C13.6569 4 15 5.34315 15 7C15 8.65685 13.6569 10 12 10C10.3431 10 9 8.65685 9 7Z" fill="black"/>
<path d="M5.99202 15.9424C6.85503 15.6188 7.87728 15.3683 9 15.2073V17.2303C8.11977 17.3723 7.33844 17.5735 6.69427 17.815C6.03602 18.0619 5.57279 18.3317 5.29209 18.5806C5.01022 18.8305 5 18.9745 5 19C5 19.0256 5.01022 19.1696 5.29209 19.4195C5.57279 19.6684 6.03602 19.9382 6.69427 20.185C8.0034 20.6759 9.87903 21 12 21C14.121 21 15.9966 20.6759 17.3057 20.185C17.964 19.9382 18.4272 19.6684 18.7079 19.4195C18.9898 19.1696 19 19.0256 19 19C19 18.9745 18.9898 18.8305 18.7079 18.5806C18.4272 18.3317 17.964 18.0619 17.3057 17.815C16.6616 17.5735 15.8802 17.3723 15 17.2303V15.2073C16.1227 15.3683 17.145 15.6188 18.008 15.9424C18.7974 16.2384 19.5058 16.6151 20.0347 17.084C20.5625 17.552 21 18.1971 21 19C21 19.8029 20.5625 20.4481 20.0347 20.916C19.5058 21.385 18.7974 21.7616 18.008 22.0577C16.4217 22.6525 14.2973 23 12 23C9.70269 23 7.57833 22.6525 5.99202 22.0577C5.20256 21.7616 4.49422 21.385 3.96527 20.916C3.43749 20.4481 3 19.8029 3 19C3 18.1971 3.43749 17.552 3.96527 17.084C4.49422 16.6151 5.20256 16.2384 5.99202 15.9424Z" fill="black"/>
</svg>
