<svg width="24" height="24" viewBox="0 0 24 24" fill="none" xmlns="http://www.w3.org/2000/svg">
<path fill-rule="evenodd" clip-rule="evenodd" d="M18.1362 13.3079C18.2257 12.8861 18.2727 12.4486 18.2727 12.0001C18.2727 8.53576 15.4643 5.72736 12 5.72736C11.5515 5.72736 11.114 5.77443 10.6922 5.8639L9.08415 4.25587C9.69193 4.02692 10.3338 3.86746 11 3.78719V2.00009H13V3.78719C16.7695 4.24137 19.7587 7.23057 20.2129 11.0001H22V13.0001H20.2129C20.1326 13.6663 19.9732 14.3082 19.7442 14.9159L18.1362 13.3079ZM22.5857 20.5858L3.91415 1.91431L2.49997 3.32849L5.75068 6.5792C4.69594 7.79407 3.98959 9.31953 3.7871 11.0001H2V13.0001H3.7871C4.24128 16.7696 7.23048 19.7588 11 20.213V22.0001H13V20.213C14.6806 20.0105 16.206 19.3042 17.4209 18.2494L21.1715 22.0001L22.5857 20.5858ZM5.72727 12.0001C5.72727 10.4789 6.26878 9.08411 7.16956 7.99809L8.78767 9.6162C8.2928 10.2819 8 11.1068 8 12.0001C8 14.2092 9.79086 16.0001 12 16.0001C12.8933 16.0001 13.7181 15.7073 14.3839 15.2124L16.002 16.8305C14.916 17.7313 13.5212 18.2728 12 18.2728C8.53567 18.2728 5.72727 15.4644 5.72727 12.0001ZM10 12.0001C10 11.661 10.0844 11.3416 10.2333 11.0618L12.9383 13.7668C12.6585 13.9157 12.3391 14.0001 12 14.0001C10.8954 14.0001 10 13.1047 10 12.0001Z" fill="black"/>
</svg>
