<svg width="24" height="24" viewBox="0 0 24 24" fill="none" xmlns="http://www.w3.org/2000/svg">
<path fill-rule="evenodd" clip-rule="evenodd" d="M18 10C18 12.2099 16.4591 14.7232 14.5052 16.9213C13.6043 17.9348 12.6976 18.7907 12 19.4048C11.3024 18.7907 10.3957 17.9348 9.49482 16.9213C7.54094 14.7232 6 12.2099 6 10C6 6.68629 8.68629 4 12 4C15.3137 4 18 6.68629 18 10ZM20 10C20 16 12 22 12 22C12 22 4 16 4 10C4 5.58172 7.58172 2 12 2C16.4183 2 20 5.58172 20 10Z" fill="black"/>
<path fill-rule="evenodd" clip-rule="evenodd" d="M11 9C11 8.62477 11.0925 8.38609 11.202 8.25635C11.2856 8.15721 11.4786 8 12 8C12.5214 8 12.7144 8.15721 12.798 8.25635C12.9075 8.38609 13 8.62477 13 9C13 9.27117 12.9343 9.38592 12.8853 9.45178C12.8129 9.549 12.698 9.64267 12.4513 9.80457C12.4289 9.81928 12.4041 9.8353 12.3772 9.85266C12.1677 9.98783 11.8347 10.2026 11.5745 10.4873C11.2278 10.8665 11 11.3617 11 12H13C13 11.8919 13.0208 11.8692 13.0478 11.8398L13.0505 11.8369C13.1271 11.7532 13.2325 11.6841 13.4975 11.5103L13.5487 11.4767C13.802 11.3105 14.1871 11.0526 14.4897 10.6459C14.8157 10.2078 15 9.66633 15 9C15 8.3397 14.8425 7.57841 14.327 6.96704C13.7856 6.32507 12.9786 6 12 6C11.0214 6 10.2144 6.32507 9.67305 6.96704C9.15746 7.57841 9 8.3397 9 9H11ZM11 13V15H13V13H11Z" fill="black"/>
</svg>
