<svg width="24" height="24" viewBox="0 0 24 24" fill="none" xmlns="http://www.w3.org/2000/svg">
<path fill-rule="evenodd" clip-rule="evenodd" d="M12 8C9.79086 8 8 9.79086 8 12C8 14.2091 9.79086 16 12 16C14.2091 16 16 14.2091 16 12C16 9.79086 14.2091 8 12 8ZM10 12C10 10.8954 10.8954 10 12 10C13.1046 10 14 10.8954 14 12C14 13.1046 13.1046 14 12 14C10.8954 14 10 13.1046 10 12Z" fill="black"/>
<path fill-rule="evenodd" clip-rule="evenodd" d="M3.7871 11C4.24128 7.23048 7.23048 4.24128 11 3.7871V2H13V3.7871C16.7695 4.24128 19.7587 7.23048 20.2129 11H22V13H20.2129C19.7587 16.7695 16.7695 19.7587 13 20.2129V22H11V20.2129C7.23048 19.7587 4.24128 16.7695 3.7871 13H2V11H3.7871ZM5.72727 12C5.72727 8.53567 8.53567 5.72727 12 5.72727C15.4643 5.72727 18.2727 8.53567 18.2727 12C18.2727 15.4643 15.4643 18.2727 12 18.2727C8.53567 18.2727 5.72727 15.4643 5.72727 12Z" fill="black"/>
</svg>
