<svg width="24" height="24" viewBox="0 0 24 24" fill="none" xmlns="http://www.w3.org/2000/svg">
<path fill-rule="evenodd" clip-rule="evenodd" d="M13.5813 13.4958C14.974 11.6186 16 9.56667 16 8C16 5.79086 14.2091 4 12 4C9.79084 4 7.99998 5.79086 7.99998 8C7.99998 9.56667 9.02594 11.6186 10.4187 13.4958C10.9701 14.2391 11.529 14.888 12 15.3833C12.471 14.888 13.0298 14.2391 13.5813 13.4958ZM12 18C12.5 18 18 12.5 18 8C18 4.68629 15.3137 2 12 2C8.68627 2 5.99998 4.68629 5.99998 8C5.99998 12.5 11.5 18 12 18ZM4.32295 15H7.99998V17H5.67702L4.47702 20H19.523L18.323 17H16V15H19.677L22.477 22H1.52295L4.32295 15ZM12 10C13.1046 10 14 9.10457 14 8C14 6.89543 13.1046 6 12 6C10.8954 6 9.99998 6.89543 9.99998 8C9.99998 9.10457 10.8954 10 12 10Z" fill="black"/>
</svg>
