<svg width="24" height="24" viewBox="0 0 24 24" fill="none" xmlns="http://www.w3.org/2000/svg">
<path d="M12.0001 5.72727C10.2062 5.72727 8.5894 6.47908 7.44485 7.68762L5.99271 6.31238C7.28371 4.94919 9.03635 4.02398 11.0001 3.78716V2H13.0001V3.7871C16.7697 4.24128 19.7589 7.23048 20.213 11H22.0001V13H20.213C19.7589 16.7695 16.7697 19.7587 13.0001 20.2129V22H11.0001V20.2128C9.03635 19.976 7.28371 19.0508 5.99271 17.6876L7.44485 16.3124C8.5894 17.5209 10.2062 18.2727 12.0001 18.2727C15.4645 18.2727 18.2729 15.4643 18.2729 12C18.2729 8.53567 15.4645 5.72727 12.0001 5.72727Z" fill="black"/>
<path fill-rule="evenodd" clip-rule="evenodd" d="M12.0002 16C9.79101 16 8.00015 14.2091 8.00015 12C8.00015 9.79086 9.79101 8 12.0002 8C14.2093 8 16.0002 9.79086 16.0002 12C16.0002 14.2091 14.2093 16 12.0002 16ZM10.0002 12C10.0002 13.1046 10.8956 14 12.0002 14C13.1047 14 14.0002 13.1046 14.0002 12C14.0002 10.8954 13.1047 10 12.0002 10C10.8956 10 10.0002 10.8954 10.0002 12Z" fill="black"/>
<path d="M0.585938 12L4.29304 15.7071L5.70726 14.2929L3.41436 12L5.70726 9.70711L4.29304 8.29289L0.585938 12Z" fill="black"/>
</svg>
