<svg width="24" height="24" viewBox="0 0 24 24" fill="none" xmlns="http://www.w3.org/2000/svg">
<path fill-rule="evenodd" clip-rule="evenodd" d="M18 10C18 12.2099 16.4591 14.7232 14.5052 16.9213C13.6043 17.9348 12.6976 18.7907 12 19.4048C11.3024 18.7907 10.3957 17.9348 9.49482 16.9213C7.54094 14.7232 6 12.2099 6 10C6 6.68629 8.68629 4 12 4C15.3137 4 18 6.68629 18 10ZM20 10C20 16 12 22 12 22C12 22 4 16 4 10C4 5.58172 7.58172 2 12 2C16.4183 2 20 5.58172 20 10Z" fill="black"/>
<path d="M11 9V6H13V9H16V11H13V14H11V11H8V9H11Z" fill="black"/>
</svg>
