<svg width="24" height="24" viewBox="0 0 24 24" fill="none" xmlns="http://www.w3.org/2000/svg">
<path d="M12 0.585693L8.29289 4.2928L9.70711 5.70701L12 3.41412L14.2929 5.70701L15.7071 4.2928L12 0.585693Z" fill="black"/>
<path d="M18.2727 11.9999C18.2727 10.2059 17.5209 8.58915 16.3124 7.4446L17.6876 5.99247C19.0508 7.28347 19.976 9.0361 20.2128 10.9999H22V12.9999H20.2129C19.7587 16.7694 16.7695 19.7586 13 20.2128V21.9999H11V20.2128C7.23048 19.7586 4.24128 16.7694 3.7871 12.9999H2V10.9999H3.78716C4.02398 9.0361 4.94919 7.28347 6.31238 5.99247L7.68762 7.4446C6.47908 8.58915 5.72727 10.2059 5.72727 11.9999C5.72727 15.4642 8.53567 18.2726 12 18.2726C15.4643 18.2726 18.2727 15.4642 18.2727 11.9999Z" fill="black"/>
<path fill-rule="evenodd" clip-rule="evenodd" d="M8 11.9999C8 9.79077 9.79086 7.99991 12 7.99991C14.2091 7.99991 16 9.79077 16 11.9999C16 14.209 14.2091 15.9999 12 15.9999C9.79086 15.9999 8 14.209 8 11.9999ZM12 9.99991C10.8954 9.99991 10 10.8953 10 11.9999C10 13.1045 10.8954 13.9999 12 13.9999C13.1046 13.9999 14 13.1045 14 11.9999C14 10.8953 13.1046 9.99991 12 9.99991Z" fill="black"/>
</svg>
