<svg width="24" height="24" viewBox="0 0 24 24" fill="none" xmlns="http://www.w3.org/2000/svg">
<path fill-rule="evenodd" clip-rule="evenodd" d="M1.91421 1.91406L21.5857 21.5856L20.1715 22.9998L15.7256 18.5539C13.8211 20.634 12 21.9998 12 21.9998C12 21.9998 4 15.9998 4 9.99983C4 9.05111 4.16515 8.14095 4.46826 7.29654L0.5 3.32823L1.91421 1.91406ZM20 9.99983C20 11.8464 19.2423 13.693 18.1932 15.3647L16.7371 13.9086C17.512 12.5831 18 11.2434 18 9.99983C18 6.68613 15.3137 3.99983 12 3.99983C10.5541 3.99983 9.22764 4.51129 8.19169 5.36315L6.77242 3.94389C8.1745 2.73251 10.0017 1.99983 12 1.99983C16.4183 1.99983 20 5.58156 20 9.99983ZM15.2123 12.3838C15.7072 11.718 16 10.8931 16 9.99983C16 7.7907 14.2091 5.99983 12 5.99983C11.1067 5.99983 10.2818 6.29265 9.61607 6.78753L11.0617 8.23315C11.3415 8.08423 11.6609 7.99983 12 7.99983C13.1046 7.99983 14 8.89527 14 9.99983C14 10.3389 13.9156 10.6583 13.7667 10.9381L15.2123 12.3838ZM14.3099 17.1382C13.4744 18.057 12.6472 18.8349 12 19.4046C11.3024 18.7906 10.3957 17.9346 9.49482 16.9211C7.54094 14.723 6 12.2098 6 9.99983C6 9.63272 6.03297 9.27331 6.09611 8.9244L14.3099 17.1382Z" fill="black"/>
</svg>
