<svg width="24" height="24" viewBox="0 0 24 24" fill="none" xmlns="http://www.w3.org/2000/svg">
<path d="M5.72727 11C5.72727 12.794 6.47908 14.4107 7.68762 15.5553L6.31238 17.0074C4.94919 15.7164 4.02398 13.9638 3.78716 12H2V10H3.7871C4.24128 6.23048 7.23048 3.24128 11 2.7871V1H13V2.7871C16.7695 3.24128 19.7587 6.23048 20.2129 10H22V12H20.2128C19.976 13.9638 19.0508 15.7164 17.6876 17.0074L16.3124 15.5553C17.5209 14.4107 18.2727 12.794 18.2727 11C18.2727 7.53567 15.4643 4.72727 12 4.72727C8.53567 4.72727 5.72727 7.53567 5.72727 11Z" fill="black"/>
<path fill-rule="evenodd" clip-rule="evenodd" d="M16 11C16 13.2091 14.2091 15 12 15C9.79086 15 8 13.2091 8 11C8 8.79085 9.79086 6.99999 12 6.99999C14.2091 6.99999 16 8.79085 16 11ZM12 13C13.1046 13 14 12.1046 14 11C14 9.89542 13.1046 8.99999 12 8.99999C10.8954 8.99999 10 9.89542 10 11C10 12.1046 10.8954 13 12 13Z" fill="black"/>
<path d="M12 22.4142L15.7071 18.7071L14.2929 17.2929L12 19.5858L9.70711 17.2929L8.29289 18.7071L12 22.4142Z" fill="black"/>
</svg>
