<svg width="24" height="24" viewBox="0 0 24 24" fill="none" xmlns="http://www.w3.org/2000/svg">
<path d="M12 18.2727C13.794 18.2727 15.4107 17.5209 16.5553 16.3124L18.0074 17.6876C16.7164 19.0508 14.9638 19.976 13 20.2128L13 22H11L11 20.2129C7.23048 19.7587 4.24128 16.7695 3.7871 13H2V11H3.7871C4.24128 7.23048 7.23048 4.24128 11 3.7871V2H13V3.78716C14.9638 4.02398 16.7164 4.94919 18.0074 6.31238L16.5553 7.68762C15.4107 6.47908 13.794 5.72727 12 5.72727C8.53567 5.72727 5.72727 8.53567 5.72727 12C5.72727 15.4643 8.53567 18.2727 12 18.2727Z" fill="black"/>
<path fill-rule="evenodd" clip-rule="evenodd" d="M12 8C14.2091 8 16 9.79086 16 12C16 14.2091 14.2091 16 12 16C9.79085 16 7.99999 14.2091 7.99999 12C7.99999 9.79086 9.79086 8 12 8ZM14 12C14 10.8954 13.1046 10 12 10C10.8954 10 9.99999 10.8954 9.99999 12C9.99999 13.1046 10.8954 14 12 14C13.1046 14 14 13.1046 14 12Z" fill="black"/>
<path d="M23.4142 12L19.7071 8.29289L18.2929 9.70711L20.5858 12L18.2929 14.2929L19.7071 15.7071L23.4142 12Z" fill="black"/>
</svg>
