<svg width="24" height="24" viewBox="0 0 24 24" fill="none" xmlns="http://www.w3.org/2000/svg">
<path fill-rule="evenodd" clip-rule="evenodd" d="M18 10C18 12.2099 16.4591 14.7232 14.5052 16.9213C13.6043 17.9348 12.6976 18.7907 12 19.4048C11.3024 18.7907 10.3957 17.9348 9.49482 16.9213C7.54094 14.7232 6 12.2099 6 10C6 6.68629 8.68629 4 12 4C15.3137 4 18 6.68629 18 10ZM20 10C20 16 12 22 12 22C12 22 4 16 4 10C4 5.58172 7.58172 2 12 2C16.4183 2 20 5.58172 20 10ZM14 10C14 11.1046 13.1046 12 12 12C10.8954 12 10 11.1046 10 10C10 8.89543 10.8954 8 12 8C13.1046 8 14 8.89543 14 10ZM16 10C16 12.2091 14.2091 14 12 14C9.79086 14 8 12.2091 8 10C8 7.79086 9.79086 6 12 6C14.2091 6 16 7.79086 16 10Z" fill="black"/>
</svg>
