<svg width="24" height="24" viewBox="0 0 24 24" fill="none" xmlns="http://www.w3.org/2000/svg">
<path fill-rule="evenodd" clip-rule="evenodd" d="M12 22C17.5228 22 22 17.5228 22 12C22 6.47715 17.5228 2 12 2C6.47715 2 2 6.47715 2 12C2 17.5228 6.47715 22 12 22ZM12 4C11.7731 4 11.4816 4.0993 11.1324 4.43166C10.778 4.76892 10.4134 5.30422 10.0854 6.04218C9.83379 6.60826 9.61531 7.26765 9.44164 8H14.5584C14.3847 7.26765 14.1662 6.60826 13.9146 6.04218C13.5866 5.30422 13.222 4.76892 12.8676 4.43166C12.5184 4.0993 12.2269 4 12 4ZM8.25776 5.2299C7.89762 6.04022 7.60515 6.9765 7.39317 8H5.07026C5.8571 6.63979 7.03292 5.53275 8.44561 4.83099C8.38064 4.96122 8.31802 5.09431 8.25776 5.2299ZM7.09432 10H4.25203C4.08751 10.6392 4 11.3094 4 12C4 12.6906 4.08751 13.3608 4.25203 14H7.09432C7.03228 13.3521 7 12.6829 7 12C7 11.3171 7.03228 10.6479 7.09432 10ZM7.39317 16H5.07026C5.8571 17.3602 7.03292 18.4672 8.44561 19.169C8.38064 19.0388 8.31802 18.9057 8.25776 18.7701C7.89762 17.9598 7.60515 17.0235 7.39317 16ZM9.44164 16H14.5584C14.3847 16.7324 14.1662 17.3917 13.9146 17.9578C13.5866 18.6958 13.222 19.2311 12.8676 19.5683C12.5184 19.9007 12.2269 20 12 20C11.7731 20 11.4816 19.9007 11.1324 19.5683C10.778 19.2311 10.4134 18.6958 10.0854 17.9578C9.83379 17.3917 9.61531 16.7324 9.44164 16ZM14.8955 14H9.10446C9.03652 13.3624 9 12.6928 9 12C9 11.3072 9.03652 10.6376 9.10446 10H14.8955C14.9635 10.6376 15 11.3072 15 12C15 12.6928 14.9635 13.3624 14.8955 14ZM16.6068 16C16.3949 17.0235 16.1024 17.9598 15.7422 18.7701C15.682 18.9057 15.6194 19.0388 15.5544 19.169C16.9671 18.4672 18.1429 17.3602 18.9297 16H16.6068ZM19.748 14H16.9057C16.9677 13.3521 17 12.6829 17 12C17 11.3171 16.9677 10.6479 16.9057 10H19.748C19.9125 10.6392 20 11.3094 20 12C20 12.6906 19.9125 13.3608 19.748 14ZM15.5544 4.83099C16.9671 5.53275 18.1429 6.63979 18.9297 8H16.6068C16.3949 6.9765 16.1024 6.04022 15.7422 5.2299C15.682 5.09431 15.6194 4.96122 15.5544 4.83099Z" fill="black"/>
</svg>
