<svg width="24" height="24" viewBox="0 0 24 24" fill="none" xmlns="http://www.w3.org/2000/svg">
<path fill-rule="evenodd" clip-rule="evenodd" d="M16.5479 2.44952C17.7374 2.78045 18.9111 3.49702 20.0709 4.6568C21.2307 5.81657 21.9472 6.99026 22.2782 8.1798C22.6109 9.37572 22.5338 10.5165 22.2186 11.5717C21.6073 13.6178 20.0687 15.4077 18.8666 16.8048C17.9808 17.8342 17.5354 19.1713 17.5354 20.5908V21.3345L15.1211 23.7487L0.979004 9.60655L3.39322 7.19233H4.13685C5.55637 7.19233 6.89349 6.74687 7.9229 5.86113C9.31998 4.65903 11.1099 3.12034 13.156 2.50907C14.2112 2.19384 15.352 2.11681 16.5479 2.44952ZM13.7285 4.42538C12.163 4.89308 10.6928 6.11622 9.22736 7.37718C7.81205 8.59495 6.028 9.17427 4.22206 9.19192L3.80743 9.60655L15.1211 20.9203L15.5358 20.5056C15.5534 18.6997 16.1327 16.9156 17.3505 15.5003C18.6115 14.0348 19.8346 12.5647 20.3023 10.9992C20.5265 10.2486 20.5683 9.49568 20.3513 8.71584C20.1326 7.92963 19.6311 7.04545 18.6567 6.07101C17.6822 5.09658 16.7981 4.59507 16.0118 4.37635C15.232 4.1594 14.4791 4.20114 13.7285 4.42538Z" fill="black"/>
<path d="M8.34296 18.3847L12.5856 22.6274C11.414 23.7989 9.51453 23.7989 8.34296 22.6274C7.17139 21.4558 7.17139 19.5563 8.34296 18.3847Z" fill="black"/>
</svg>
