<svg width="24" height="24" viewBox="0 0 24 24" fill="none" xmlns="http://www.w3.org/2000/svg">
<path fill-rule="evenodd" clip-rule="evenodd" d="M12 2C10.3598 2 9.02322 2.32323 7.94808 2.93036C6.86717 3.54074 6.11499 4.40185 5.59177 5.37088C4.57721 7.24991 4.39954 9.60362 4.26167 11.4415C4.16008 12.7957 3.52958 14.0562 2.52583 15.06L2 15.5858V19H22V15.5858L21.4742 15.06C20.4704 14.0562 19.8399 12.7957 19.7383 11.4415C19.6005 9.60362 19.4228 7.24991 18.4082 5.37088C17.885 4.40185 17.1328 3.54074 16.0519 2.93036C14.9768 2.32323 13.6402 2 12 2ZM6.25606 11.5911C6.40069 9.66324 6.57536 7.75879 7.35163 6.3211C7.72382 5.63177 8.22668 5.06989 8.93151 4.67187C9.64211 4.27059 10.6219 4 12 4C13.3781 4 14.3579 4.27059 15.0685 4.67187C15.7733 5.06989 16.2762 5.63177 16.6484 6.3211C17.4246 7.75879 17.5993 9.66324 17.7439 11.5911C17.8836 13.453 18.7355 15.1242 20 16.4136V17H4V16.4136C5.26451 15.1242 6.11639 13.453 6.25606 11.5911ZM12 23C13.6569 23 15 21.6569 15 20H9C9 21.6569 10.3431 23 12 23Z" fill="black"/>
</svg>
