<svg width="24" height="24" viewBox="0 0 24 24" fill="none" xmlns="http://www.w3.org/2000/svg">
<path d="M9 12H15V10H9V12Z" fill="black"/>
<path fill-rule="evenodd" clip-rule="evenodd" d="M7.94808 2.93036C9.02322 2.32323 10.3598 2 12 2C13.6402 2 14.9768 2.32323 16.0519 2.93036C17.1328 3.54074 17.885 4.40185 18.4082 5.37088C19.4228 7.24991 19.6005 9.60362 19.7383 11.4415C19.8399 12.7957 20.4704 14.0562 21.4742 15.06L22 15.5858V19H2V15.5858L2.52583 15.06C3.52958 14.0562 4.16008 12.7957 4.26167 11.4415C4.39954 9.60362 4.57721 7.24991 5.59177 5.37088C6.11499 4.40185 6.86717 3.54074 7.94808 2.93036ZM7.35163 6.3211C6.57536 7.75879 6.40069 9.66324 6.25606 11.5911C6.11639 13.453 5.26451 15.1242 4 16.4136V17H20V16.4136C18.7355 15.1242 17.8836 13.453 17.7439 11.5911C17.5993 9.66324 17.4246 7.75879 16.6484 6.3211C16.2762 5.63177 15.7733 5.06989 15.0685 4.67187C14.3579 4.27059 13.3781 4 12 4C10.6219 4 9.64211 4.27059 8.93151 4.67187C8.22668 5.06989 7.72382 5.63177 7.35163 6.3211Z" fill="black"/>
<path d="M15 20C15 21.6569 13.6569 23 12 23C10.3431 23 9 21.6569 9 20H15Z" fill="black"/>
</svg>
