<svg width="24" height="24" viewBox="0 0 24 24" fill="none" xmlns="http://www.w3.org/2000/svg">
<path fill-rule="evenodd" clip-rule="evenodd" d="M2.41421 1.41431L1 2.82852L4.98734 6.81586C4.49296 8.36721 4.36595 10.0519 4.2617 11.4416C4.16011 12.7958 3.52961 14.0563 2.52585 15.0601L2.00003 15.5859V19.0001H17.1716L20.9706 22.7991L22.3848 21.3849L2.41421 1.41431ZM6.25609 11.5912C6.33699 10.5128 6.4273 9.44171 6.62704 8.45556L15.1716 17.0001H4.00003V16.4137C5.26454 15.1243 6.11642 13.4531 6.25609 11.5912Z" fill="black"/>
<path d="M7.23333 3.40502L8.66494 4.83663C8.75045 4.77898 8.83926 4.72407 8.93154 4.67196C9.64214 4.27068 10.622 4.00009 12 4.00009C13.3781 4.00009 14.3579 4.27068 15.0685 4.67196C15.7733 5.06998 16.2762 5.63186 16.6484 6.32119C17.4247 7.75888 17.5993 9.66333 17.744 11.5912C17.8415 12.8919 18.2867 14.0996 18.9773 15.149L22 18.1717V15.5859L21.4742 15.0601C20.4704 14.0563 19.8399 12.7958 19.7384 11.4416C19.6005 9.60371 19.4228 7.25 18.4083 5.37097C17.885 4.40194 17.1329 3.54083 16.0519 2.93045C14.9768 2.32332 13.6402 2.00009 12 2.00009C10.3599 2.00009 9.02325 2.32332 7.94811 2.93045C7.69181 3.07518 7.454 3.234 7.23333 3.40502Z" fill="black"/>
<path d="M12 23.0001C13.6569 23.0001 15 21.6569 15 20.0001H9.00003C9.00003 21.6569 10.3432 23.0001 12 23.0001Z" fill="black"/>
</svg>
