<svg width="24" height="24" viewBox="0 0 24 24" fill="none" xmlns="http://www.w3.org/2000/svg">
<path fill-rule="evenodd" clip-rule="evenodd" d="M21 5C21 7.20914 19.2091 9 17 9C14.7909 9 13 7.20914 13 5C13 2.79086 14.7909 1 17 1C19.2091 1 21 2.79086 21 5ZM19 5C19 6.10457 18.1046 7 17 7C15.8954 7 15 6.10457 15 5C15 3.89543 15.8954 3 17 3C18.1046 3 19 3.89543 19 5Z" fill="black"/>
<path d="M7.94808 2.93035C8.97958 2.34786 10.2518 2.0267 11.8018 2.00159C11.4436 2.62116 11.1931 3.31073 11.0756 4.04474C10.1675 4.13727 9.47173 4.3668 8.93151 4.67186C8.22668 5.06988 7.72382 5.63176 7.35163 6.32109C6.57536 7.75878 6.40069 9.66323 6.25606 11.5911C6.11639 13.453 5.26451 15.1242 4 16.4136V17H20V16.4136C18.7355 15.1241 17.8836 13.453 17.7439 11.5911C17.7281 11.3803 17.712 11.1698 17.6947 10.9602C18.3908 10.8799 19.0507 10.6805 19.6534 10.3829C19.6863 10.7491 19.713 11.104 19.7383 11.4415C19.8399 12.7957 20.4704 14.0562 21.4742 15.06L22 15.5858V19H2V15.5858L2.52583 15.06C3.52958 14.0562 4.16008 12.7957 4.26167 11.4415C4.39954 9.60361 4.57721 7.2499 5.59177 5.37087C6.11499 4.40184 6.86717 3.54073 7.94808 2.93035Z" fill="black"/>
<path d="M12 23C13.6569 23 15 21.6568 15 20H9C9 21.6568 10.3431 23 12 23Z" fill="black"/>
</svg>
