<svg width="24" height="24" viewBox="0 0 24 24" fill="none" xmlns="http://www.w3.org/2000/svg">
<path d="M2 7.4999C2 4.83539 3.12262 2.32055 5.55279 1.10547L6.44721 2.89432C4.87738 3.67924 4 5.3644 4 7.4999H2Z" fill="black"/>
<path fill-rule="evenodd" clip-rule="evenodd" d="M12 1.99989C10.3598 1.99989 9.02322 2.32312 7.94808 2.93025C6.86717 3.54064 6.11499 4.40174 5.59177 5.37078C4.57721 7.2498 4.39954 9.60351 4.26167 11.4414C4.16008 12.7956 3.52958 14.0561 2.52583 15.0599L2 15.5857V18.9999H22V15.5857L21.4742 15.0599C20.4704 14.0561 19.8399 12.7956 19.7383 11.4414C19.6005 9.60351 19.4228 7.2498 18.4082 5.37078C17.885 4.40174 17.1328 3.54064 16.0519 2.93025C14.9768 2.32312 13.6402 1.99989 12 1.99989ZM6.25606 11.591C6.40069 9.66313 6.57536 7.75868 7.35163 6.32099C7.72382 5.63167 8.22668 5.06978 8.93151 4.67176C9.64211 4.27048 10.6219 3.99989 12 3.99989C13.3781 3.99989 14.3579 4.27048 15.0685 4.67176C15.7733 5.06978 16.2762 5.63167 16.6484 6.32099C17.4246 7.75868 17.5993 9.66313 17.7439 11.591C17.8836 13.4529 18.7355 15.1241 20 16.4135V16.9999H4V16.4135C5.26451 15.1241 6.11639 13.4529 6.25606 11.591Z" fill="black"/>
<path d="M12 22.9999C13.6569 22.9999 15 21.6567 15 19.9999H9C9 21.6567 10.3431 22.9999 12 22.9999Z" fill="black"/>
<path d="M18.4472 1.10547C20.8774 2.32055 22 4.83539 22 7.4999H20C20 5.3644 19.1226 3.67924 17.5528 2.89432L18.4472 1.10547Z" fill="black"/>
</svg>
