<svg width="24" height="24" viewBox="0 0 24 24" fill="none" xmlns="http://www.w3.org/2000/svg">
<path d="M17.5 9.5C18.8807 9.5 20 8.38071 20 7C20 5.61929 18.8807 4.5 17.5 4.5C16.1193 4.5 15 5.61929 15 7C15 8.38071 16.1193 9.5 17.5 9.5Z" stroke="black" stroke-width="1.5" stroke-linecap="round" stroke-linejoin="round"/>
<path d="M3 7.05078L10.4252 7.05131" stroke="black" stroke-width="1.5" stroke-linecap="round" stroke-linejoin="round"/>
<path d="M12 16.0508L19.4252 16.0513" stroke="black" stroke-width="1.5" stroke-linecap="round" stroke-linejoin="round"/>
<path d="M5.5 18.5C6.88071 18.5 8 17.3807 8 16C8 14.6193 6.88071 13.5 5.5 13.5C4.11929 13.5 3 14.6193 3 16C3 17.3807 4.11929 18.5 5.5 18.5Z" stroke="black" stroke-width="1.5" stroke-linecap="round" stroke-linejoin="round"/>
</svg>
