<svg width="69" height="69" viewBox="0 0 69 69" fill="none" xmlns="http://www.w3.org/2000/svg">
<path d="M27.75 49.6875V19.3125L48 34.5L27.75 49.6875ZM34.5 0.75C30.0679 0.75 25.6792 1.62297 21.5844 3.31907C17.4897 5.01516 13.7691 7.50117 10.6351 10.6351C4.30579 16.9645 0.75 25.5489 0.75 34.5C0.75 43.4511 4.30579 52.0355 10.6351 58.3649C13.7691 61.4988 17.4897 63.9848 21.5844 65.6809C25.6792 67.377 30.0679 68.25 34.5 68.25C43.4511 68.25 52.0355 64.6942 58.3649 58.3649C64.6942 52.0355 68.25 43.4511 68.25 34.5C68.25 30.0679 67.377 25.6792 65.6809 21.5844C63.9848 17.4897 61.4988 13.7691 58.3649 10.6351C55.2309 7.50117 51.5103 5.01516 47.4156 3.31907C43.3208 1.62297 38.9321 0.75 34.5 0.75Z" fill="white"/>
</svg>
