<svg width="24" height="24" viewBox="0 0 24 24" fill="none" xmlns="http://www.w3.org/2000/svg">
<path d="M8 8V6H10V8H12V10H10V12H8V10H6V8H8Z" fill="black"/>
<path fill-rule="evenodd" clip-rule="evenodd" d="M2 9C2 5.13401 5.13401 2 9 2C12.866 2 16 5.13401 16 9C16 10.5723 15.4816 12.0236 14.6064 13.1922L21.7071 20.2929L20.2929 21.7071L13.1922 14.6064C12.0236 15.4816 10.5723 16 9 16C5.13401 16 2 12.866 2 9ZM9 4C6.23858 4 4 6.23858 4 9C4 11.7614 6.23858 14 9 14C11.7614 14 14 11.7614 14 9C14 6.23858 11.7614 4 9 4Z" fill="black"/>
</svg>
