<svg width="24" height="24" viewBox="0 0 24 24" fill="none" xmlns="http://www.w3.org/2000/svg">
<path d="M5.79289 7.20711L7.58579 9L5.79289 10.7929L7.20711 12.2071L9 10.4142L10.7929 12.2071L12.2071 10.7929L10.4142 9L12.2071 7.20711L10.7929 5.79289L9 7.58579L7.20711 5.79289L5.79289 7.20711Z" fill="black"/>
<path fill-rule="evenodd" clip-rule="evenodd" d="M2 9C2 5.13401 5.13401 2 9 2C12.866 2 16 5.13401 16 9C16 10.5723 15.4816 12.0236 14.6064 13.1922L21.7071 20.2929L20.2929 21.7071L13.1922 14.6064C12.0236 15.4816 10.5723 16 9 16C5.13401 16 2 12.866 2 9ZM9 4C6.23858 4 4 6.23858 4 9C4 11.7614 6.23858 14 9 14C11.7614 14 14 11.7614 14 9C14 6.23858 11.7614 4 9 4Z" fill="black"/>
</svg>
