<svg width="24" height="24" viewBox="0 0 24 24" fill="none" xmlns="http://www.w3.org/2000/svg">
<path fill-rule="evenodd" clip-rule="evenodd" d="M13.65 1L15.3 3.2L15.8891 3.44401L18.6114 3.0551L20.9449 5.38856L20.556 8.11092L20.8 8.7L23 10.35V13.65L20.8 15.3L20.556 15.8891L20.9449 18.6115L18.6114 20.9449L15.8891 20.556L15.3 20.8L13.65 23H10.35L8.7 20.8L8.11091 20.556L5.38855 20.9449L3.0551 18.6115L3.44401 15.8891L3.2 15.3L1 13.65V10.35L3.2 8.7L3.44401 8.11096L3.0551 5.3886L5.38855 3.05514L8.11091 3.44405L8.7 3.2L10.35 1H13.65ZM17.9043 5.17643L18.8236 6.09566L18.4986 8.37028L19.1618 9.97139L21 11.35V12.65L19.1618 14.0286L18.4986 15.6298L18.8236 17.9044L17.9043 18.8236L15.6298 18.4987L14.0287 19.1618L12.65 21H11.35L9.97137 19.1618L8.37026 18.4986L6.09566 18.8236L5.17642 17.9043L5.50136 15.6297L4.83817 14.0286L3 12.65V11.35L4.83814 9.97139L5.50137 8.37034L5.17642 6.0957L6.09566 5.17646L8.37033 5.50142L9.97142 4.83811L11.35 3H12.65L14.0286 4.83815L15.6297 5.50137L17.9043 5.17643ZM15 12C15 13.6569 13.6569 15 12 15C10.3431 15 9 13.6569 9 12C9 10.3431 10.3431 9 12 9C13.6569 9 15 10.3431 15 12ZM17 12C17 14.7614 14.7614 17 12 17C9.23858 17 7 14.7614 7 12C7 9.23858 9.23858 7 12 7C14.7614 7 17 9.23858 17 12Z" fill="black"/>
</svg>
