<svg width="24" height="24" viewBox="0 0 24 24" fill="none" xmlns="http://www.w3.org/2000/svg">
<path fill-rule="evenodd" clip-rule="evenodd" d="M13.5 1H10.5L10.2282 3.17435C9.05872 3.40784 7.97102 3.86796 7.01282 4.50698L5.28249 3.16117L3.16117 5.28249L4.50698 7.01282C3.86796 7.97102 3.40784 9.05872 3.17435 10.2282L1 10.5V13.5L3.17435 13.7718C3.40784 14.9413 3.86797 16.029 4.507 16.9872L3.16117 18.7176L5.28249 20.8389L7.01286 19.493C7.97105 20.1321 9.05874 20.5922 10.2282 20.8256L10.5 23H13.5L13.7718 20.8256C14.9413 20.5922 16.029 20.1321 16.9871 19.493L18.7175 20.8389L20.8388 18.7176L19.493 16.9872C20.132 16.029 20.5922 14.9413 20.8256 13.7718L23 13.5V10.5L20.8256 10.2282C20.5922 9.05872 20.132 7.97102 19.493 7.01282L20.8388 5.28249L18.7175 3.16117L16.9872 4.50698C16.029 3.86796 14.9413 3.40784 13.7718 3.17435L13.5 1ZM7.05847 7.04205L7.04205 7.05846C5.78012 8.32456 5 10.0712 5 12C5 15.866 8.13401 19 12 19C15.866 19 19 15.866 19 12C19 10.0712 18.2199 8.32467 16.9581 7.05858L16.9414 7.04194C15.6753 5.78007 13.9288 5 12 5C10.0712 5 8.32456 5.78012 7.05847 7.04205ZM14 12C14 13.1046 13.1046 14 12 14C10.8954 14 10 13.1046 10 12C10 10.8954 10.8954 10 12 10C13.1046 10 14 10.8954 14 12ZM16 12C16 14.2091 14.2091 16 12 16C9.79086 16 8 14.2091 8 12C8 9.79086 9.79086 8 12 8C14.2091 8 16 9.79086 16 12Z" fill="black"/>
</svg>
