<svg width="24" height="24" viewBox="0 0 24 24" fill="none" xmlns="http://www.w3.org/2000/svg">
<path fill-rule="evenodd" clip-rule="evenodd" d="M8.94868 11.4225C7.95171 8.43162 5.15271 6.41422 2 6.41422V4.41422C6.01357 4.41422 9.57685 6.98248 10.8461 10.7901L11.0513 11.4059C11.9414 14.0762 14.2679 15.9705 17 16.3459V13L21.4142 17.4142L17 21.8284V18.3607C13.4044 17.9744 10.3166 15.5264 9.15395 12.0383L8.94868 11.4225Z" fill="black"/>
<path fill-rule="evenodd" clip-rule="evenodd" d="M8.63076 14.2019C7.43638 16.7492 4.86415 18.4142 2 18.4142V20.4142C5.23839 20.4142 8.18362 18.7422 9.8672 16.0963C9.38464 15.5236 8.96797 14.8888 8.63076 14.2019ZM17 8.48249C15.3142 8.71417 13.7828 9.5241 12.6481 10.7378C12.4085 10.3205 12.2077 9.87516 12.0513 9.40589L11.8461 8.79009L11.8313 8.74618C13.2554 7.49043 15.0533 6.67689 17 6.4677V3L21.4142 7.41421L17 11.8284V8.48249Z" fill="black"/>
</svg>
