<svg width="24" height="24" viewBox="0 0 24 24" fill="none" xmlns="http://www.w3.org/2000/svg">
<path d="M2.41421 1.41422L1 2.82843L8.00003 9.82846V11C8.00003 13.2091 9.79089 15 12 15C12.3583 15 12.7056 14.9529 13.0361 14.8645L14.7033 16.5317C13.8589 16.8349 12.9488 17 12.0001 17C8.64267 17 5.76834 14.9318 4.58157 12H2.45785C3.63607 15.7513 6.96531 18.55 11 18.9506V21H7.00003V23H17V21H13V18.9506C14.1459 18.8369 15.2348 18.5297 16.2338 18.0622L20.9706 22.799L22.3848 21.3848L2.41421 1.41422Z" fill="black"/>
<path d="M8.07154 4.24314L10 6.17163V5C10 3.89543 10.8955 3 12 3C13.1046 3 14 3.89543 14 5V10.1716L15.8645 12.0361C15.9529 11.7057 16 11.3583 16 11V5C16 2.79086 14.2092 1 12 1C10.0497 1 8.4253 2.3959 8.07154 4.24314Z" fill="black"/>
<path d="M18.056 14.2276L19.4732 15.6448C20.401 14.6022 21.1138 13.3641 21.5422 12H19.4185C19.0872 12.8186 18.6243 13.5699 18.056 14.2276Z" fill="black"/>
</svg>
