<svg width="24" height="24" viewBox="0 0 24 24" fill="none" xmlns="http://www.w3.org/2000/svg">
<path d="M2 12C2 9.2386 3.11929 6.7386 4.92893 4.92896L6.34315 6.34317C4.89543 7.79088 4 9.79088 4 12C4 14.2092 4.89543 16.2092 6.34315 17.6569L4.92893 19.0711C3.11929 17.2614 2 14.7614 2 12Z" fill="black"/>
<path d="M6 12C6 10.3432 6.67157 8.84317 7.75736 7.75738L9.17157 9.1716C8.44772 9.89545 8 10.8955 8 12C8 13.1046 8.44772 14.1046 9.17157 14.8285L7.75736 16.2427C6.67157 15.1569 6 13.6569 6 12Z" fill="black"/>
<path d="M14.8284 9.1716L16.2426 7.75738C17.3284 8.84317 18 10.3432 18 12C18 13.6569 17.3284 15.1569 16.2426 16.2427L14.8284 14.8285C15.5523 14.1046 16 13.1046 16 12C16 10.8955 15.5523 9.89545 14.8284 9.1716Z" fill="black"/>
<path d="M20 12C20 14.2092 19.1046 16.2092 17.6569 17.6569L19.0711 19.0711C20.8807 17.2614 22 14.7614 22 12C22 9.2386 20.8807 6.7386 19.0711 4.92896L17.6569 6.34317C19.1046 7.79088 20 9.79088 20 12Z" fill="black"/>
<path d="M12 14C13.1046 14 14 13.1046 14 12C14 10.8955 13.1046 10 12 10C10.8954 10 10 10.8955 10 12C10 13.1046 10.8954 14 12 14Z" fill="black"/>
</svg>
