<svg width="24" height="24" viewBox="0 0 24 24" fill="none" xmlns="http://www.w3.org/2000/svg">
<path fill-rule="evenodd" clip-rule="evenodd" d="M8 3L22 2V18C22 20.2091 20.2091 22 18 22C15.7909 22 14 20.2091 14 18C14 15.7909 15.7909 14 18 14C18.7286 14 19.4117 14.1948 20 14.5351V8L10 9V19C10 21.2091 8.20914 23 6 23C3.79086 23 2 21.2091 2 19C2 16.7909 3.79086 15 6 15C6.72857 15 7.41165 15.1948 8 15.5351V3ZM10 5L20 4V6L10 7V5ZM8 19C8 17.8954 7.10457 17 6 17C4.89543 17 4 17.8954 4 19C4 20.1046 4.89543 21 6 21C7.10457 21 8 20.1046 8 19ZM18 20C19.1046 20 20 19.1046 20 18C20 16.8954 19.1046 16 18 16C16.8954 16 16 16.8954 16 18C16 19.1046 16.8954 20 18 20Z" fill="black"/>
</svg>
