<svg width="24" height="24" viewBox="0 0 24 24" fill="none" xmlns="http://www.w3.org/2000/svg">
<path d="M19.1421 4.92893C17.3324 3.11929 14.8324 2 12.071 2C9.3096 2 6.8096 3.11929 4.99995 4.92893L6.41417 6.34315C7.86188 4.89543 9.86188 4 12.071 4C14.2802 4 16.2802 4.89543 17.7279 6.34315L19.1421 4.92893Z" fill="black"/>
<path d="M16.3137 7.75736C15.2279 6.67157 13.7279 6 12.071 6C10.4142 6 8.91417 6.67157 7.82838 7.75736L9.24259 9.17157C9.96645 8.44772 10.9665 8 12.071 8C13.1756 8 14.1756 8.44772 14.8994 9.17157L16.3137 7.75736Z" fill="black"/>
<path fill-rule="evenodd" clip-rule="evenodd" d="M6.5 11C3.46243 11 1 13.4624 1 16.5C1 19.5376 3.46243 22 6.5 22H17.5C20.5376 22 23 19.5376 23 16.5C23 13.4624 20.5376 11 17.5 11H6.5ZM3 16.5C3 14.6525 4.43151 13.1393 6.24587 13.0091C6.25256 13.0432 6.25932 13.0789 6.26613 13.1164C6.37812 13.7323 6.5 14.7957 6.5 16.5C6.5 18.2043 6.37812 19.2677 6.26613 19.8836C6.25932 19.9211 6.25256 19.9568 6.24587 19.9909C4.43151 19.8607 3 18.3475 3 16.5ZM8.5 16.5C8.5 14.8843 8.39628 13.7617 8.27496 13H15.725C15.6037 13.7617 15.5 14.8843 15.5 16.5C15.5 18.1157 15.6037 19.2383 15.725 20H8.27497C8.39629 19.2383 8.5 18.1157 8.5 16.5ZM17.7541 19.9909C17.7474 19.9568 17.7407 19.9211 17.7339 19.8836C17.6219 19.2677 17.5 18.2043 17.5 16.5C17.5 14.7957 17.6219 13.7323 17.7339 13.1164C17.7407 13.0789 17.7474 13.0432 17.7541 13.0091C19.5685 13.1393 21 14.6525 21 16.5C21 18.3475 19.5685 19.8607 17.7541 19.9909Z" fill="black"/>
</svg>
