<svg width="24" height="24" viewBox="0 0 24 24" fill="none" xmlns="http://www.w3.org/2000/svg">
<path fill-rule="evenodd" clip-rule="evenodd" d="M2.41421 1.41431L1 2.82852L8.73021 10.5587L1.96454 19.1067L4.96454 22.1067L13.5125 15.341L20.9706 22.7991L22.3848 21.3849L2.41421 1.41431ZM4.63792 18.9516L10.2031 12.0316L12.0605 13.889L5.11959 19.4333L4.63792 18.9516Z" fill="black"/>
<path fill-rule="evenodd" clip-rule="evenodd" d="M11.2294 7.40113L16.6701 12.8417L17.7067 12.0212C18.7417 11.8743 19.7395 11.4028 20.5356 10.6067C22.4882 8.65405 22.4882 5.48823 20.5356 3.5356C18.583 1.58298 15.4171 1.58298 13.4645 3.5356C12.6684 4.33171 12.1969 5.32949 12.0499 6.36449L11.2294 7.40113ZM18.1474 9.8439C17.0602 10.2933 15.7624 10.0761 14.8787 9.19246C13.879 8.19274 13.7324 6.66298 14.4388 5.50776C14.7115 6.17228 15.1007 6.90717 15.6225 7.60914C16.2449 8.44652 17.0763 9.26269 18.1474 9.8439ZM19.7084 8.36327C18.6547 7.96639 17.8396 7.23934 17.2276 6.41604C16.6554 5.64623 16.2885 4.82731 16.0929 4.21092C17.1264 3.88409 18.3019 4.13039 19.1214 4.94982C20.0446 5.87308 20.2403 7.24839 19.7084 8.36327Z" fill="black"/>
</svg>
