<svg width="24" height="24" viewBox="0 0 24 24" fill="none" xmlns="http://www.w3.org/2000/svg">
<path fill-rule="evenodd" clip-rule="evenodd" d="M10 13C10 13.3506 9.93985 13.6872 9.82929 14H14.1707C14.0602 13.6872 14 13.3506 14 13C14 11.3431 15.3431 10 17 10C18.6569 10 20 11.3431 20 13C20 14.6569 18.6569 16 17 16H7C5.34315 16 4 14.6569 4 13C4 11.3431 5.34315 10 7 10C8.65685 10 10 11.3431 10 13ZM8 13C8 13.5523 7.55228 14 7 14C6.44772 14 6 13.5523 6 13C6 12.4477 6.44772 12 7 12C7.55228 12 8 12.4477 8 13ZM18 13C18 13.5523 17.5523 14 17 14C16.4477 14 16 13.5523 16 13C16 12.4477 16.4477 12 17 12C17.5523 12 18 12.4477 18 13Z" fill="black"/>
<path fill-rule="evenodd" clip-rule="evenodd" d="M4 4C2.34315 4 1 5.34315 1 7V18C1 19.6569 2.34315 21 4 21H20C21.6569 21 23 19.6569 23 18V7C23 5.34315 21.6569 4 20 4H4ZM3 7C3 6.44772 3.44772 6 4 6H20C20.5523 6 21 6.44772 21 7V18C21 18.5523 20.5523 19 20 19H4C3.44772 19 3 18.5523 3 18V7Z" fill="black"/>
</svg>
