<svg width="24" height="24" viewBox="0 0 24 24" fill="none" xmlns="http://www.w3.org/2000/svg">
<path fill-rule="evenodd" clip-rule="evenodd" d="M15 20.6181V3.38208L7.76393 7.00011H5C3.34315 7.00011 2 8.34326 2 10.0001V14.0001C2 15.657 3.34315 17.0001 5 17.0001H7.76393L15 20.6181ZM5 9.00011H7V15.0001H5C4.44772 15.0001 4 14.5524 4 14.0001V10.0001C4 9.44783 4.44772 9.00011 5 9.00011ZM13 17.3821L9 15.3821V8.61815L13 6.61815V17.3821Z" fill="black"/>
<path d="M20 12.0001C20 14.2309 19.1884 16.272 17.8444 17.8445L16.4246 16.4247C17.4094 15.2188 18 13.6784 18 12.0001C18 10.3218 17.4094 8.78142 16.4246 7.57553L17.8444 6.1557C19.1884 7.72818 20 9.76937 20 12.0001Z" fill="black"/>
</svg>
