<svg width="24" height="24" viewBox="0 0 24 24" fill="none" xmlns="http://www.w3.org/2000/svg">
<path d="M9.80692 5.97861L11.2976 7.46932L13 6.61813V9.17172L15 11.1717V3.38206L9.80692 5.97861Z" fill="black"/>
<path d="M17.7367 13.9084L19.3043 15.476C19.7524 14.4065 20 13.2322 20 12.0001C20 9.76935 19.1884 7.72816 17.8444 6.15568L16.4246 7.57551C17.4094 8.7814 18 10.3218 18 12.0001C18 12.6617 17.9083 13.3018 17.7367 13.9084Z" fill="black"/>
<path d="M19.9848 16.1565L21.4544 17.6261C22.4361 15.98 23 14.0559 23 12.0001C23 8.96252 21.7688 6.21252 19.7782 4.22192L18.364 5.63613C19.9927 7.26481 21 9.51481 21 12.0001C21 13.4995 20.6334 14.9132 19.9848 16.1565Z" fill="black"/>
<path fill-rule="evenodd" clip-rule="evenodd" d="M22.3848 21.3849L2.41421 1.41431L1 2.82852L5.17157 7.00009H5.00003C3.34317 7.00009 2.00003 8.34324 2.00003 10.0001V14.0001C2.00003 15.6569 3.34317 17.0001 5.00003 17.0001H7.76396L15 20.6181V16.8285L20.9706 22.7991L22.3848 21.3849ZM9.00003 10.8285L13 14.8285V17.3821L9.00003 15.3821V10.8285ZM5.00003 9.00009H7.00003V15.0001H5.00003C4.44774 15.0001 4.00003 14.5524 4.00003 14.0001V10.0001C4.00003 9.44781 4.44774 9.00009 5.00003 9.00009Z" fill="black"/>
</svg>
