<svg width="24" height="24" viewBox="0 0 24 24" fill="none" xmlns="http://www.w3.org/2000/svg">
<path fill-rule="evenodd" clip-rule="evenodd" d="M12 16C14.2091 16 16 14.2091 16 12C16 9.79086 14.2091 8 12 8C9.79086 8 8 9.79086 8 12C8 14.2091 9.79086 16 12 16ZM12 14C13.1046 14 14 13.1046 14 12C14 10.8954 13.1046 10 12 10C10.8954 10 10 10.8954 10 12C10 13.1046 10.8954 14 12 14Z" fill="black"/>
<path fill-rule="evenodd" clip-rule="evenodd" d="M12 22C17.5228 22 22 17.5228 22 12C22 6.47715 17.5228 2 12 2C6.47715 2 2 6.47715 2 12C2 17.5228 6.47715 22 12 22ZM18.3199 16.9056C19.3729 15.551 20 13.8487 20 12C20 7.58172 16.4183 4 12 4C10.1513 4 8.44904 4.62708 7.09436 5.68014L8.46447 7.05025L7.05025 8.46447L5.68014 7.09436C4.62708 8.44904 4 10.1513 4 12C4 16.4183 7.58172 20 12 20C13.8487 20 15.551 19.3729 16.9056 18.3199L15.5355 16.9498L16.9497 15.5355L18.3199 16.9056Z" fill="black"/>
</svg>
