<svg width="24" height="24" viewBox="0 0 24 24" fill="none" xmlns="http://www.w3.org/2000/svg">
<path fill-rule="evenodd" clip-rule="evenodd" d="M15 20.6181V3.38208L7.76393 7.00011H5C3.34315 7.00011 2 8.34326 2 10.0001V14.0001C2 15.657 3.34315 17.0001 5 17.0001H7.76393L15 20.6181ZM5 9.00011H7V15.0001H5C4.44772 15.0001 4 14.5524 4 14.0001V10.0001C4 9.44783 4.44772 9.00011 5 9.00011ZM13 17.3821L9 15.3821V8.61815L13 6.61815V17.3821Z" fill="black"/>
<path d="M16.2929 10.7072L17.5858 12.0001L16.2929 13.293L17.7071 14.7072L19 13.4143L20.2929 14.7072L21.7071 13.293L20.4142 12.0001L21.7071 10.7072L20.2929 9.29301L19 10.5859L17.7071 9.29301L16.2929 10.7072Z" fill="black"/>
</svg>
