<svg width="24" height="24" viewBox="0 0 24 24" fill="none" xmlns="http://www.w3.org/2000/svg">
<path fill-rule="evenodd" clip-rule="evenodd" d="M17.7065 12.0212C18.7415 11.8742 19.7393 11.4027 20.5354 10.6066C22.488 8.65396 22.488 5.48813 20.5354 3.53551C18.5828 1.58289 15.4169 1.58289 13.4643 3.53551C12.6682 4.33162 12.1967 5.32939 12.0498 6.36439L1.96436 19.1066L4.96436 22.1066L17.7065 12.0212ZM18.1472 9.84381C17.06 10.2932 15.7622 10.076 14.8785 9.19237C13.8788 8.19264 13.7322 6.66289 14.4386 5.50767C14.7114 6.17219 15.1005 6.90708 15.6223 7.60905C16.2447 8.44643 17.0761 9.2626 18.1472 9.84381ZM19.7082 8.36318C18.6546 7.9663 17.8394 7.23925 17.2274 6.41595C16.6552 5.64614 16.2883 4.82722 16.0927 4.21082C17.1262 3.884 18.3018 4.1303 19.1212 4.94972C20.0444 5.87298 20.2401 7.2483 19.7082 8.36318ZM12.4764 9.20451C12.7156 9.7118 13.0449 10.1872 13.4643 10.6066C13.8952 11.0375 14.3853 11.3733 14.9083 11.614L5.1194 19.4332L4.63774 18.9515L12.4764 9.20451Z" fill="black"/>
</svg>
