<svg width="24" height="24" viewBox="0 0 24 24" fill="none" xmlns="http://www.w3.org/2000/svg">
<path fill-rule="evenodd" clip-rule="evenodd" d="M4 9.99993H19C19.5523 9.99993 20 10.4476 20 10.9999V18.9999C20 19.5522 19.5523 19.9999 19 19.9999H5C4.44772 19.9999 4 19.5522 4 18.9999V9.99993ZM7.50756 7.99993H19C20.6569 7.99993 22 9.34308 22 10.9999V18.9999C22 20.6568 20.6569 21.9999 19 21.9999H5C3.34315 21.9999 2 20.6568 2 18.9999V8.36307L17.5771 1.09375L18.4229 2.90612L7.50756 7.99993Z" fill="black"/>
<path fill-rule="evenodd" clip-rule="evenodd" d="M9 16.9999C10.1046 16.9999 11 16.1045 11 14.9999C11 13.8954 10.1046 12.9999 9 12.9999C7.89543 12.9999 7 13.8954 7 14.9999C7 16.1045 7.89543 16.9999 9 16.9999ZM9 18.9999C11.2091 18.9999 13 17.2091 13 14.9999C13 12.7908 11.2091 10.9999 9 10.9999C6.79086 10.9999 5 12.7908 5 14.9999C5 17.2091 6.79086 18.9999 9 18.9999Z" fill="black"/>
<path d="M15 10.9999H19V12.9999H15V10.9999Z" fill="black"/>
<path d="M15 13.9999H19V15.9999H15V13.9999Z" fill="black"/>
<path d="M15 16.9999H19V18.9999H15V16.9999Z" fill="black"/>
<path d="M10 14.9999C10 15.5522 9.55228 15.9999 9 15.9999C8.44772 15.9999 8 15.5522 8 14.9999C8 14.4476 8.44772 13.9999 9 13.9999C9.55228 13.9999 10 14.4476 10 14.9999Z" fill="black"/>
</svg>
