<svg width="24" height="24" viewBox="0 0 24 24" fill="none" xmlns="http://www.w3.org/2000/svg">
<path d="M2.41421 1.41431L1 2.82852L4.07373 5.90225C2.77338 7.59001 2.00003 9.70474 2.00003 12.0001V20.0001C2.00003 20.5524 2.44774 21.0001 3.00003 21.0001H5.00003C6.1046 21.0001 7.00003 20.1047 7.00003 19.0001V15.0001H4.00003V12.0001C4.00003 10.2576 4.55711 8.64526 5.50288 7.3314L17 18.8286V19.0001C17 20.1047 17.8955 21.0001 19 21.0001H19.1716L21.9706 23.7991L23.3848 22.3849L2.41421 1.41431Z" fill="black"/>
<path d="M7.10586 3.27755L8.58965 4.76134C9.62417 4.2731 10.7802 4.00009 12 4.00009C16.4183 4.00009 20 7.58181 20 12.0001V15.0001H18.8284L22 18.1717V12.0001C22 6.47724 17.5229 2.00009 12 2.00009C10.2221 2.00009 8.55256 2.46407 7.10586 3.27755Z" fill="black"/>
</svg>
