<svg width="24" height="24" viewBox="0 0 24 24" fill="none" xmlns="http://www.w3.org/2000/svg">
<path fill-rule="evenodd" clip-rule="evenodd" d="M15 3.38208V20.6181L7.76393 17.0001H5C3.34315 17.0001 2 15.657 2 14.0001V10.0001C2 8.34326 3.34315 7.00011 5 7.00011H7.76393L15 3.38208ZM7 9.00011H5C4.44772 9.00011 4 9.44783 4 10.0001V14.0001C4 14.5524 4.44772 15.0001 5 15.0001H7V9.00011ZM9 15.3821L13 17.3821V6.61815L9 8.61815V15.3821Z" fill="black"/>
<path d="M17.8444 17.8445C19.1884 16.272 20 14.2309 20 12.0001C20 9.76937 19.1884 7.72818 17.8444 6.1557L16.4246 7.57553C17.4094 8.78142 18 10.3218 18 12.0001C18 13.6784 17.4094 15.2188 16.4246 16.4247L17.8444 17.8445Z" fill="black"/>
<path d="M19.7782 19.7783L18.364 18.3641C19.9926 16.7354 21 14.4854 21 12.0001C21 9.51483 19.9926 7.26483 18.364 5.63615L19.7782 4.22194C21.7688 6.21255 23 8.96255 23 12.0001C23 15.0377 21.7688 17.7877 19.7782 19.7783Z" fill="black"/>
</svg>
