<svg width="24" height="24" viewBox="0 0 24 24" fill="none" xmlns="http://www.w3.org/2000/svg">
<path fill-rule="evenodd" clip-rule="evenodd" d="M12.0002 1C9.79104 1 8.00018 2.79086 8.00018 5V11C8.00018 13.2091 9.79104 15 12.0002 15C14.2093 15 16.0002 13.2091 16.0002 11V5C16.0002 2.79086 14.2093 1 12.0002 1ZM14.0002 11V5C14.0002 3.89543 13.1048 3 12.0002 3C10.8956 3 10.0002 3.89543 10.0002 5V11C10.0002 12.1046 10.8956 13 12.0002 13C13.1048 13 14.0002 12.1046 14.0002 11Z" fill="black"/>
<path d="M11.0002 21H7.00018V23H17.0002V21H13.0002V18.9506C17.0349 18.55 20.3642 15.7513 21.5424 12H19.4187C18.2319 14.9318 15.3576 17 12.0002 17C8.64283 17 5.7685 14.9318 4.58172 12H2.45801C3.63622 15.7513 6.96546 18.55 11.0002 18.9506V21Z" fill="black"/>
</svg>
