<svg width="24" height="24" viewBox="0 0 24 24" fill="none" xmlns="http://www.w3.org/2000/svg">
<path fill-rule="evenodd" clip-rule="evenodd" d="M5.70718 2.70706L2.70718 5.70706L1.29297 4.29285L4.29297 1.29285L5.70718 2.70706Z" fill="black"/>
<path fill-rule="evenodd" clip-rule="evenodd" d="M18.293 2.70706L21.293 5.70706L22.7072 4.29285L19.7072 1.29285L18.293 2.70706Z" fill="black"/>
<path fill-rule="evenodd" clip-rule="evenodd" d="M12.0001 3.99995C7.5818 3.99995 4.00008 7.58168 4.00008 12C4.00008 16.4182 7.5818 20 12.0001 20C16.4184 20 20.0001 16.4182 20.0001 12C20.0001 7.58168 16.4184 3.99995 12.0001 3.99995ZM2.00008 12C2.00008 6.47711 6.47723 1.99995 12.0001 1.99995C17.5229 1.99995 22.0001 6.47711 22.0001 12C22.0001 17.5228 17.5229 22 12.0001 22C6.47723 22 2.00008 17.5228 2.00008 12Z" fill="black"/>
<path fill-rule="evenodd" clip-rule="evenodd" d="M11.0001 11V8.99995H13.0001V11H15.0001V13H13.0001V15H11.0001V13H9.00008V11H11.0001Z" fill="black"/>
</svg>
