<svg width="24" height="24" viewBox="0 0 24 24" fill="none" xmlns="http://www.w3.org/2000/svg">
<path fill-rule="evenodd" clip-rule="evenodd" d="M2.41419 3.41428L1 4.82847L3.27747 7.10594C2.464 8.55264 2.00003 10.2222 2.00003 12.0001C2.00003 17.5229 6.47718 22.0001 12 22.0001C13.7779 22.0001 15.4475 21.5361 16.8942 20.7226L18.9706 22.799L20.3848 21.3848L2.41419 3.41428ZM12 20.0001C13.2198 20.0001 14.3759 19.7271 15.4104 19.2388L4.76126 8.58974C4.27303 9.62424 4.00003 10.7803 4.00003 12.0001C4.00003 16.4184 7.58175 20.0001 12 20.0001Z" fill="black"/>
<path d="M19.9263 18.098C21.2267 16.4102 22 14.2954 22 12.0001C22 6.47723 17.5229 2.00008 12 2.00008C9.70466 2.00008 7.58991 2.77344 5.90215 4.07381L7.3313 5.50296C8.64516 4.55717 10.2575 4.00008 12 4.00008C16.4183 4.00008 20 7.5818 20 12.0001C20 13.7426 19.4429 15.3549 18.4971 16.6688L19.9263 18.098Z" fill="black"/>
<path d="M14.8284 13.0001H16V11.0001H13V7.00008H11V9.17169L14.8284 13.0001Z" fill="black"/>
<path d="M21.2929 5.70718L18.2929 2.70718L19.7071 1.29297L22.7071 4.29297L21.2929 5.70718Z" fill="black"/>
</svg>
