<svg width="24" height="24" viewBox="0 0 24 24" fill="none" xmlns="http://www.w3.org/2000/svg">
<path d="M11 13V8H13V13H11Z" fill="black"/>
<path fill-rule="evenodd" clip-rule="evenodd" d="M13 3H15V1H9V3H11V4.05493C6.50005 4.55237 3 8.36745 3 13C3 17.9706 7.02944 22 12 22C16.9706 22 21 17.9706 21 13C21 10.4929 19.9749 8.22524 18.3209 6.5933L19.7678 5.14645L18.3536 3.73224L16.7387 5.3471C15.63 4.65911 14.3607 4.20535 13 4.05493V3ZM12 6C15.866 6 19 9.13401 19 13C19 16.866 15.866 20 12 20C8.13401 20 5 16.866 5 13C5 9.13401 8.13401 6 12 6Z" fill="black"/>
</svg>
