<svg width="24" height="24" viewBox="0 0 24 24" fill="none" xmlns="http://www.w3.org/2000/svg">
<path fill-rule="evenodd" clip-rule="evenodd" d="M2.41421 1.41422L1 2.82843L2.67417 4.5026C2.26067 4.86901 2.00003 5.40407 2.00003 6V8C2.00003 9.10457 2.89546 10 4.00003 10H4.074L4.86093 20.2301C4.98116 21.7931 6.28448 23 7.85209 23H16.148C17.4998 23 18.6551 22.1025 19.0246 20.8531L20.9706 22.799L22.3848 21.3848L2.41421 1.41422ZM7.00003 3.17163L9.8284 6H20V8H11.8284L13.8284 10H17.9202L17.6279 13.7995L19.4905 15.6621L19.9261 10H20C21.1046 10 22 9.10457 22 8V6C22 4.89543 21.1046 4 20 4H17V3C17 1.89543 16.1046 1 15 1H9.00003C7.89546 1 7.00003 1.89543 7.00003 3V3.17163ZM6.17157 8L4.17157 6H4.00003V8H6.17157ZM17.2238 19.0523L8.17157 10H6.07991L6.85504 20.0767C6.89511 20.5977 7.32956 21 7.85209 21H16.148C16.6705 21 17.1049 20.5977 17.145 20.0767L17.2238 19.0523ZM9.00003 4H15V3H9.00003V4Z" fill="black"/>
</svg>
