<svg width="24" height="24" viewBox="0 0 24 24" fill="none" xmlns="http://www.w3.org/2000/svg">
<path d="M8.79289 13.7071L10.5858 15.5L8.79289 17.2929L10.2071 18.7071L12 16.9142L13.7929 18.7071L15.2071 17.2929L13.4142 15.5L15.2071 13.7071L13.7929 12.2929L12 14.0858L10.2071 12.2929L8.79289 13.7071Z" fill="black"/>
<path fill-rule="evenodd" clip-rule="evenodd" d="M9 1C7.89543 1 7 1.89543 7 3V4H4C2.89543 4 2 4.89543 2 6V8C2 9.10457 2.89543 10 4 10H4.07397L4.8609 20.2301C4.98113 21.7931 6.28445 23 7.85206 23H16.1479C17.7155 23 19.0189 21.7931 19.1391 20.2301L19.926 10H20C21.1046 10 22 9.10457 22 8V6C22 4.89543 21.1046 4 20 4H17V3C17 1.89543 16.1046 1 15 1H9ZM15 4H9V3H15V4ZM6.85501 20.0767L6.07988 10H17.9201L17.145 20.0767C17.1049 20.5977 16.6705 21 16.1479 21H7.85206C7.32953 21 6.89508 20.5977 6.85501 20.0767ZM4 8V6H20V8H4Z" fill="black"/>
</svg>
