<svg width="24" height="24" viewBox="0 0 24 24" fill="none" xmlns="http://www.w3.org/2000/svg">
<path fill-rule="evenodd" clip-rule="evenodd" d="M7 3C7 1.89543 7.89543 1 9 1H15C16.1046 1 17 1.89543 17 3V4H20C21.1046 4 22 4.89543 22 6V8C22 9.10457 21.1046 10 20 10H19.926L19.1391 20.2301C19.0189 21.7931 17.7155 23 16.1479 23H7.85206C6.28445 23 4.98113 21.7931 4.8609 20.2301L4.07397 10H4C2.89543 10 2 9.10457 2 8V6C2 4.89543 2.89543 4 4 4H7V3ZM9 4H15V3H9V4ZM6.07988 10L6.85501 20.0767C6.89508 20.5977 7.32953 21 7.85206 21H16.1479C16.6705 21 17.1049 20.5977 17.145 20.0767L17.9201 10H6.07988ZM4 6V8H20V6H4Z" fill="black"/>
</svg>
