<?xml version="1.0" encoding="utf-8"?>
<!-- Generator: Adobe Illustrator 28.3.0, SVG Export Plug-In . SVG Version: 6.00 Build 0)  -->
<svg version="1.1" id="Layer_1" xmlns="http://www.w3.org/2000/svg" xmlns:xlink="http://www.w3.org/1999/xlink" x="0px" y="0px"
	 viewBox="0 0 74 29" style="enable-background:new 0 0 74 29;" xml:space="preserve">
<path d="M13.4,11.2v4.2c0,2.1,0.8,2.6,2.3,1.7l1.4,3.5c-0.7,0.6-1.7,1-3.3,1c-3.5,0-4.8-2.6-4.8-5.9v-4.5H6.6V7.1h2.3V2.6l4.5-1.4
	v5.9H17v4.1H13.4z"/>
<path d="M32.7,13v8.1h-4.5v-7.7c0-2.3-1.3-2.7-2.3-2.7c-0.9,0-2.3,0.8-2.3,3.2v7.2h-4.5V0.8h4.5v7.9c0.7-1.1,1.9-2,3.6-2
	C30.1,6.7,32.7,8.8,32.7,13z"/>
<path d="M43.2,21.1L43,19.5c-0.8,1.2-2.3,2-4.1,2c-3.2,0-4.9-2.2-4.9-4.7c0-3.7,4.5-5.5,8.5-3.9c-0.1-1.6-0.8-2.5-2.4-2.5
	c-1.1,0-2.4,0.4-3.2,0.9L35.5,8c1-0.7,3-1.4,5.2-1.4c3.3,0,6.3,1.9,6.3,6.9v7.5H43.2z M38.4,16.7c0,1.1,0.7,1.6,1.6,1.6
	c1.2,0,2.3-1.3,2.5-2.9C40.4,14.8,38.4,15.2,38.4,16.7z"/>
<path d="M53.5,8.5c0.7-1,2.1-1.9,3.9-1.9c3.7,0,6.5,3.3,6.5,7.4s-2.8,7.4-6.5,7.4c-1.7,0-3.1-0.8-3.9-1.9v8.6H49V7.1h4.5V8.5z
	 M59.3,14.1c0-1.9-1.3-3.4-2.9-3.4s-2.9,1.5-2.9,3.4c0,1.9,1.3,3.4,2.9,3.4S59.3,16,59.3,14.1z"/>
<path d="M65.1,19.1c0-1.4,1.1-2.5,2.5-2.5c1.4,0,2.5,1.1,2.5,2.5c0,1.4-1.1,2.5-2.5,2.5C66.2,21.6,65.1,20.5,65.1,19.1z"/>
</svg>
