<svg width="213" height="213" viewBox="0 0 213 213" fill="none" xmlns="http://www.w3.org/2000/svg">
<path d="M51.2019 104.247H95.0308V186.17H51.2019V165.689V136.197" stroke="black" stroke-width="2" stroke-miterlimit="10" stroke-linecap="round" stroke-linejoin="round"/>
<path d="M163.437 104.247H95.0308V186.17H163.437V136.197" stroke="black" stroke-width="2" stroke-miterlimit="10" stroke-linecap="round" stroke-linejoin="round"/>
<path d="M74.55 136.197H30.7212L51.202 104.247H95.0308L74.55 136.197Z" stroke="black" stroke-width="2" stroke-miterlimit="10" stroke-linecap="round" stroke-linejoin="round"/>
<path d="M115.512 136.197H183.917L163.437 104.247H95.0308L115.512 136.197Z" stroke="black" stroke-width="2" stroke-miterlimit="10" stroke-linecap="round" stroke-linejoin="round"/>
<path d="M81.549 102.731L68.7318 95.3308C67.7792 94.7808 67.4498 93.5514 67.9998 92.5987L99.0998 38.732C99.6498 37.7793 100.879 37.4499 101.832 37.9999L124.608 51.1499C125.561 51.6999 125.89 52.9293 125.34 53.882L98.2903 100.734" stroke="black" stroke-width="2" stroke-miterlimit="10" stroke-linecap="round" stroke-linejoin="round"/>
<path d="M85.687 50.9646L90.087 43.3436C90.387 42.8239 90.9334 42.6775 91.453 42.9775L95.3501 45.2275L89.9501 54.5806L86.053 52.3306C85.5334 52.0306 85.437 51.3976 85.687 50.9646Z" fill="black"/>
<path d="M67.5371 82.4006L71.9371 74.7796C72.2371 74.26 72.7835 74.1136 73.3031 74.4136L77.2002 76.6636L71.8002 86.0166L67.9031 83.7666C67.3835 83.4666 67.2371 82.9202 67.5371 82.4006Z" fill="black"/>
<path d="M101.829 47.0049L93.3791 61.6407" stroke="black" stroke-width="2" stroke-miterlimit="10" stroke-linecap="round" stroke-linejoin="round"/>
<path d="M107.285 50.1546L109.502 56.5151L103.035 57.5158L105.352 63.7032L98.8349 64.7904" stroke="black" stroke-width="2" stroke-miterlimit="10" stroke-linecap="round" stroke-linejoin="round"/>
<path d="M155.244 169.171H135.378V177.978H155.244V169.171Z" fill="black"/>
<path d="M139.474 87.8624L145.618 79.4653" stroke="black" stroke-width="2" stroke-miterlimit="10" stroke-linecap="round" stroke-linejoin="round"/>
<path d="M170.325 91.65C173.266 91.65 175.65 89.2658 175.65 86.325C175.65 83.3842 173.266 81 170.325 81C167.384 81 165 83.3842 165 86.325C165 89.2658 167.384 91.65 170.325 91.65Z" stroke="black" stroke-width="2" stroke-miterlimit="10" stroke-linecap="round" stroke-linejoin="round"/>
<path d="M51 69.6897C53.2529 67.4368 56.9394 67.4368 59.3971 69.6897C61.8548 71.9425 61.65 75.6291 59.3971 78.0868" stroke="black" stroke-width="2" stroke-miterlimit="10" stroke-linecap="round" stroke-linejoin="round"/>
<path d="M95.031 164.437L51.2021 185.327H95.031V164.437Z" fill="black"/>
<path d="M187.507 50.6465L151.062 71.6881C149.653 72.5017 147.836 72.0168 147.024 70.6106L124.476 31.5567C123.664 30.1505 124.153 28.3344 125.562 27.5208L162.007 6.4792C163.416 5.66564 165.233 6.15052 166.045 7.55672L188.593 46.6106C189.405 48.0168 188.916 49.8329 187.507 50.6465Z" stroke="black" stroke-width="2" stroke-miterlimit="10" stroke-linecap="round" stroke-linejoin="round"/>
<path d="M147.661 51.7132C149.095 50.8848 149.587 49.05 148.759 47.6152C147.93 46.1803 146.095 45.6887 144.661 46.5171C143.226 47.3455 142.734 49.1803 143.563 50.6152C144.391 52.05 146.226 52.5417 147.661 51.7132Z" stroke="black" stroke-width="2" stroke-miterlimit="10" stroke-linecap="round" stroke-linejoin="round"/>
<path d="M157.187 46.2132C158.622 45.3848 159.113 43.55 158.285 42.1152C157.457 40.6803 155.622 40.1887 154.187 41.0171C152.752 41.8455 152.26 43.6803 153.089 45.1152C153.917 46.55 155.752 47.0417 157.187 46.2132Z" stroke="black" stroke-width="2" stroke-miterlimit="10" stroke-linecap="round" stroke-linejoin="round"/>
<path d="M168.239 33.0865L167.1 43.2678C167.084 43.5341 167.397 43.7826 167.651 43.6361L169.807 42.3914C169.997 42.2815 170.198 42.337 170.309 42.53L174.433 49.6726C174.619 49.9943 175.074 49.9033 175.115 49.5361L176.255 39.3548C176.27 39.0886 175.958 38.84 175.704 38.9865L173.548 40.2313C173.358 40.3411 173.157 40.2856 173.045 40.0926L168.921 32.9501C168.736 32.6283 168.281 32.7193 168.239 33.0865Z" fill="black"/>
<path d="M162.357 65.1675C163.455 67.0693 162.99 69.4208 161.326 70.3816C159.661 71.3424 157.392 70.5693 156.294 68.6675L162.357 65.1675Z" fill="black"/>
<path d="M182.275 53.6675C183.373 55.5693 182.908 57.9208 181.244 58.8816C179.58 59.8424 177.311 59.0693 176.213 57.1675L182.275 53.6675Z" fill="black"/>
<path d="M131 42.8564L172.569 18.8564" stroke="black" stroke-width="2" stroke-miterlimit="10" stroke-linecap="round" stroke-linejoin="round"/>
<path d="M144.301 29.4046L134.351 35.1488C133.959 35.3756 133.535 35.2458 133.291 34.8245L131.102 31.0327C130.859 30.6114 130.959 30.1794 131.351 29.9527L141.301 24.2085C141.693 23.9817 142.117 24.1114 142.361 24.5327L144.55 28.3245C144.793 28.7458 144.628 29.2157 144.301 29.4046Z" fill="black"/>
<path d="M164.219 17.9046L154.27 23.6488C153.877 23.8756 153.453 23.7458 153.21 23.3245L151.021 19.5327C150.777 19.1114 150.877 18.6794 151.27 18.4527L161.219 12.7085C161.612 12.4817 162.036 12.6114 162.279 13.0327L164.468 16.8245C164.711 17.2458 164.612 17.6779 164.219 17.9046Z" fill="black"/>
</svg>
